<svg xmlns="http://www.w3.org/2000/svg" viewBox="0 0 99.05 99.05"><defs><style>.cls-1{fill:#f5932f;}.cls-2{fill:none;stroke:#fff;stroke-linejoin:round;stroke-width:1.37px;}</style></defs><g id="Layer_2" data-name="Layer 2"><g id="Capa_1" data-name="Capa 1"><circle class="cls-1" cx="49.52" cy="49.52" r="49.52"/><path class="cls-2" d="M65.76,40.89A12.18,12.18,0,0,0,53.58,28.71H51.84V26.39a3.48,3.48,0,0,0-7,0v2.32H36.77a3.46,3.46,0,0,0-1.16,6.73V63.61a3.46,3.46,0,0,0,1.16,6.73h8.12v2.32a3.48,3.48,0,0,0,7,0V70.34h1.74a12.06,12.06,0,0,0,8.47-20.76A12,12,0,0,0,65.76,40.89ZM53.58,63.5h-11V53.06h11a5.22,5.22,0,0,1,0,10.44Zm0-17.4h-11V35.67h11a5.22,5.22,0,1,1,0,10.43Z"/></g></g></svg>