<svg xmlns="http://www.w3.org/2000/svg" viewBox="0 0 1067.91 109.76"><defs><style>.cls-1{fill:#044900;}</style></defs><g id="Layer_2" data-name="Layer 2"><g id="Capa_1" data-name="Capa 1"><path class="cls-1" d="M569.29,61.45a5.63,5.63,0,0,0,3.9-1.69v1.33h2.94V48.4h-2.94v1.47a5.41,5.41,0,0,0-4-1.83A5.5,5.5,0,0,0,564.94,50a6.82,6.82,0,0,0-1.71,4.75,7.06,7.06,0,0,0,1.71,4.85A5.61,5.61,0,0,0,569.29,61.45Zm-2.06-9.61a3.23,3.23,0,0,1,2.53-1.15,3.34,3.34,0,0,1,2.61,1.13,4.36,4.36,0,0,1,1,3,4.31,4.31,0,0,1-1,2.94,3.37,3.37,0,0,1-2.64,1.12,3.17,3.17,0,0,1-2.52-1.16,4.36,4.36,0,0,1-1-3A4.19,4.19,0,0,1,567.23,51.84Z"/><rect class="cls-1" x="593.18" y="39.08" width="2.93" height="22.01"/><path class="cls-1" d="M637.68,54.53a5.75,5.75,0,0,1,.57-2.92,2,2,0,0,1,1.8-.92c1.3,0,2,1.13,2,3.39v7H645V54.53a6,6,0,0,1,.55-2.93,1.91,1.91,0,0,1,1.77-.91,1.6,1.6,0,0,1,1.5.77,5.49,5.49,0,0,1,.44,2.58v7.05h2.95V53.24c0-3.46-1.43-5.2-4.29-5.2a4.41,4.41,0,0,0-3.74,1.88,3.89,3.89,0,0,0-3.4-1.88,3.45,3.45,0,0,0-1.6.33,6.1,6.1,0,0,0-1.45,1.2V48.4h-2.93V61.09h2.93Z"/><path class="cls-1" d="M674.88,61.45a7.62,7.62,0,0,0,1.84-.21,5.22,5.22,0,0,0,1.58-.65,6.59,6.59,0,0,0,1.37-1.15,9.86,9.86,0,0,0,1.21-1.67l-2.48-1.39a7.27,7.27,0,0,1-1.6,1.93,3,3,0,0,1-1.81.52,3.1,3.1,0,0,1-2.31-.91,3.8,3.8,0,0,1-1-2.49h9.09v-.69a7,7,0,0,0-1.61-4.91A5.71,5.71,0,0,0,674.73,48a5.78,5.78,0,0,0-4.46,1.84,7,7,0,0,0-1.67,4.88,6.88,6.88,0,0,0,1.72,4.87A6,6,0,0,0,674.88,61.45Zm-2.6-9.39a2.92,2.92,0,0,1,1.51-1.21,3,3,0,0,1,1-.16,2.81,2.81,0,0,1,3,2.34h-5.89A3.56,3.56,0,0,1,672.28,52.06Z"/><path class="cls-1" d="M700.24,54.51q0-3.63,2.4-3.63a2.81,2.81,0,0,1,1.63.6l1.34-2.68a4.77,4.77,0,0,0-2.42-.76,3.23,3.23,0,0,0-1.51.33,5.5,5.5,0,0,0-1.44,1.16V48.4h-2.93V61.09h2.93Z"/><path class="cls-1" d="M726.71,61.45a7.77,7.77,0,0,0,3.57-.92V56.66a7.46,7.46,0,0,1-1.84,1.72,3.77,3.77,0,0,1-1.86.45,3.56,3.56,0,0,1-2.72-1.14,4.5,4.5,0,0,1,0-5.84,3.64,3.64,0,0,1,2.75-1.16,3.52,3.52,0,0,1,1.84.47,7,7,0,0,1,1.8,1.68v-3.9a7.33,7.33,0,0,0-3.54-.9,6.81,6.81,0,0,0-4.93,2,6.42,6.42,0,0,0-2,4.79,6.35,6.35,0,0,0,2,4.76A6.84,6.84,0,0,0,726.71,61.45Z"/><path class="cls-1" d="M751.93,61.45a5.62,5.62,0,0,0,3.89-1.69v1.33h2.95V48.4h-2.95v1.47a5.39,5.39,0,0,0-4-1.83A5.52,5.52,0,0,0,747.57,50a6.82,6.82,0,0,0-1.7,4.75,7.05,7.05,0,0,0,1.7,4.85A5.62,5.62,0,0,0,751.93,61.45Zm-2.06-9.61a3.21,3.21,0,0,1,2.52-1.15A3.34,3.34,0,0,1,755,51.82a4.36,4.36,0,0,1,1,3,4.31,4.31,0,0,1-1,2.94,3.36,3.36,0,0,1-2.63,1.12,3.18,3.18,0,0,1-2.53-1.16,4.41,4.41,0,0,1-1-3A4.2,4.2,0,0,1,749.87,51.84Z"/><path class="cls-1" d="M781.25,61.45a5.48,5.48,0,0,0,3.92-1.69v1.33h2.94v-22h-2.94V49.87a5.47,5.47,0,0,0-8.25.09,6.83,6.83,0,0,0-1.71,4.74,7.06,7.06,0,0,0,1.71,4.85A5.59,5.59,0,0,0,781.25,61.45Zm-2-9.61a3.23,3.23,0,0,1,2.53-1.15,3.34,3.34,0,0,1,2.61,1.13,4.36,4.36,0,0,1,1,3,4.31,4.31,0,0,1-1,2.94,3.37,3.37,0,0,1-2.64,1.12,3.17,3.17,0,0,1-2.52-1.16,4.36,4.36,0,0,1-1-3A4.19,4.19,0,0,1,779.21,51.84Z"/><path class="cls-1" d="M811.27,61.45a6.75,6.75,0,0,0,4.86-1.91,6.78,6.78,0,0,0,0-9.55,6.92,6.92,0,0,0-9.61,0,6.29,6.29,0,0,0-2,4.68,6.56,6.56,0,0,0,1.93,4.85A6.45,6.45,0,0,0,811.27,61.45Zm-2.67-9.64a3.52,3.52,0,0,1,2.72-1.12,3.56,3.56,0,0,1,2.75,1.12,4.77,4.77,0,0,1,0,5.92,4,4,0,0,1-5.5,0,4.27,4.27,0,0,1-1-3A4.05,4.05,0,0,1,808.6,51.81Z"/><path class="cls-1" d="M861.44,61.45a5.49,5.49,0,0,0,4-1.78v1.77c0,2.63-1.08,4-3.22,4a3.15,3.15,0,0,1-2.66-1.19,3.31,3.31,0,0,1-.56-1.44h-2.95a5.61,5.61,0,0,0,2,3.89A6.32,6.32,0,0,0,862.22,68,5.92,5.92,0,0,0,867,66a5.41,5.41,0,0,0,1.23-2.46,11.21,11.21,0,0,0,.16-1.21c0-.45.06-1,.06-1.58V48.4h-2.93v1.43a5.12,5.12,0,0,0-4-1.79,5.41,5.41,0,0,0-4.41,2.06,7.36,7.36,0,0,0-1.55,4.72,7,7,0,0,0,1.67,4.76A5.42,5.42,0,0,0,861.44,61.45Zm-2.05-9.54A3.18,3.18,0,0,1,862,50.68a3.25,3.25,0,0,1,2.56,1.13,4.27,4.27,0,0,1,1,3,4.37,4.37,0,0,1-.9,2.84,3.49,3.49,0,0,1-5.29,0,4.45,4.45,0,0,1-.87-2.84A4.52,4.52,0,0,1,859.39,51.91Z"/><rect class="cls-1" x="885.44" y="39.08" width="2.93" height="22.01"/><path class="cls-1" d="M911.55,61.45a6.75,6.75,0,0,0,4.86-1.91,6.81,6.81,0,0,0,0-9.55,6.93,6.93,0,0,0-9.62,0,6.33,6.33,0,0,0-2,4.68,6.6,6.6,0,0,0,1.93,4.85A6.47,6.47,0,0,0,911.55,61.45Zm-2.68-9.64a3.91,3.91,0,0,1,5.48,0,4.77,4.77,0,0,1,0,5.92,3.61,3.61,0,0,1-2.75,1.1,3.56,3.56,0,0,1-2.75-1.12,4.27,4.27,0,0,1-1-3A4.1,4.1,0,0,1,908.87,51.81Z"/><path class="cls-1" d="M937.75,59.76a5.64,5.64,0,0,0,8.25-.21,7,7,0,0,0,1.72-4.85A6.83,6.83,0,0,0,946,50,5.46,5.46,0,0,0,941.74,48a5.4,5.4,0,0,0-4,1.83V39.08h-2.93v22h2.93Zm.84-7.94a3.37,3.37,0,0,1,2.63-1.13,3.16,3.16,0,0,1,2.51,1.17,4.4,4.4,0,0,1,1,3,4.19,4.19,0,0,1-1,2.87,3.22,3.22,0,0,1-2.53,1.13,3.28,3.28,0,0,1-2.61-1.13,4.27,4.27,0,0,1-1-3A4.21,4.21,0,0,1,938.59,51.82Z"/><path class="cls-1" d="M969.63,61.45a5.61,5.61,0,0,0,3.89-1.69v1.33h3V48.4h-3v1.47a5.39,5.39,0,0,0-4-1.83A5.52,5.52,0,0,0,965.27,50a6.86,6.86,0,0,0-1.7,4.75,7.1,7.1,0,0,0,1.7,4.85A5.62,5.62,0,0,0,969.63,61.45Zm-2.06-9.61a3.22,3.22,0,0,1,2.53-1.15,3.33,3.33,0,0,1,2.6,1.13,4.36,4.36,0,0,1,1,3,4.31,4.31,0,0,1-1,2.94,3.35,3.35,0,0,1-2.63,1.12,3.18,3.18,0,0,1-2.53-1.16,4.41,4.41,0,0,1-1-3A4.2,4.2,0,0,1,967.57,51.84Z"/><rect class="cls-1" x="993.51" y="39.08" width="2.93" height="22.01"/><path class="cls-1" d="M1067.91,89.53l-20.28-20.24-18.47,18.47H525.88V18.47H38.75L20.24,0,0,20.24H.17L20.41,40.47,38.76,22H522.35V91.29h507l18.47,18.47ZM20.4,35.47,5.07,20.15,20.24,5,35.53,20.25Zm1012.07,54,15.17-15.16,15.29,15.26-15.13,15.23Z"/><polygon class="cls-1" points="71.8 44.11 68.87 44.11 68.87 48.76 67.62 48.76 67.62 51.5 68.87 51.5 68.87 61.45 71.8 61.45 71.8 51.5 74.08 51.5 74.08 48.76 71.8 48.76 71.8 44.11"/><path class="cls-1" d="M97.33,56.05q0,3.15-2.49,3.15t-2.49-3.15V48.76H89.42v7.35a7.09,7.09,0,0,0,.37,2.63,4.47,4.47,0,0,0,1.29,1.79,6.15,6.15,0,0,0,7.54,0,4.51,4.51,0,0,0,1.27-1.79,8.22,8.22,0,0,0,.37-2.63V48.76H97.33Z"/><path class="cls-1" d="M140.3,50a6.42,6.42,0,0,0-2,4.79,6.35,6.35,0,0,0,2,4.76,6.82,6.82,0,0,0,4.93,1.9,7.77,7.77,0,0,0,3.57-.92V56.66a7.64,7.64,0,0,1-1.84,1.72,3.77,3.77,0,0,1-1.86.45,3.57,3.57,0,0,1-2.73-1.14,4.18,4.18,0,0,1-1.05-2.93,4.06,4.06,0,0,1,1.09-2.91,3.64,3.64,0,0,1,2.75-1.16,3.55,3.55,0,0,1,1.84.47,7,7,0,0,1,1.8,1.68v-3.9a7.4,7.4,0,0,0-3.55-.9A6.79,6.79,0,0,0,140.3,50Z"/><path class="cls-1" d="M171.12,48a6.62,6.62,0,0,0-4.8,1.93,6.33,6.33,0,0,0-2,4.68,6.56,6.56,0,0,0,1.93,4.85,6.46,6.46,0,0,0,4.78,2,6.75,6.75,0,0,0,4.86-1.91,6.8,6.8,0,0,0,0-9.55A6.62,6.62,0,0,0,171.12,48Zm2.74,9.69a3.95,3.95,0,0,1-5.49,0,4.27,4.27,0,0,1-1-3,4.1,4.1,0,0,1,1-2.89,3.9,3.9,0,0,1,5.47,0,4.77,4.77,0,0,1,0,5.92Z"/><path class="cls-1" d="M200.75,48a4.81,4.81,0,0,0-3.47,1.53V48.4h-2.94V61.09h2.94V55a6.61,6.61,0,0,1,.6-3.32,2.27,2.27,0,0,1,2.07-1,2.09,2.09,0,0,1,1.85.73,4.59,4.59,0,0,1,.53,2.59v7.09h2.94V53.31a5.72,5.72,0,0,0-1.07-3.87A4.36,4.36,0,0,0,200.75,48Z"/><path class="cls-1" d="M229.91,58.31a3,3,0,0,1-1.81.52,3.1,3.1,0,0,1-2.31-.91,3.9,3.9,0,0,1-1-2.49h9.09l0-.69a7,7,0,0,0-1.62-4.91A5.69,5.69,0,0,0,227.84,48a5.78,5.78,0,0,0-4.46,1.84,7,7,0,0,0-1.66,4.88,6.83,6.83,0,0,0,1.72,4.87A5.94,5.94,0,0,0,228,61.45a7.54,7.54,0,0,0,1.83-.21,5.22,5.22,0,0,0,1.58-.65,6.35,6.35,0,0,0,1.37-1.15A9.34,9.34,0,0,0,234,57.77l-2.47-1.39A7.26,7.26,0,0,1,229.91,58.31Zm-4.52-6.25a2.92,2.92,0,0,1,1.51-1.21,3,3,0,0,1,1-.16,2.8,2.8,0,0,1,3,2.34H225A3.56,3.56,0,0,1,225.39,52.06Z"/><polygon class="cls-1" points="262.09 48.4 258.49 48.4 255.61 52.1 252.78 48.4 249.29 48.4 253.85 54.22 248.21 61.09 251.79 61.09 255.61 56.34 259.34 61.09 262.83 61.09 257.4 54.22 262.09 48.4"/><path class="cls-1" d="M279.61,41.23a1.85,1.85,0,0,0-1.34.56,1.83,1.83,0,0,0-.56,1.33,1.91,1.91,0,0,0,1.92,1.93,1.82,1.82,0,0,0,1.34-.56,1.88,1.88,0,0,0,.56-1.36,1.8,1.8,0,0,0-.56-1.34A1.86,1.86,0,0,0,279.61,41.23Z"/><rect class="cls-1" x="278.15" y="48.4" width="2.93" height="12.69"/><polygon class="cls-1" points="305.95 40.71 302.37 45.45 303.97 46.44 308.71 42.14 305.95 40.71"/><path class="cls-1" d="M304.31,48a6.62,6.62,0,0,0-4.8,1.93,6.33,6.33,0,0,0-2,4.68,6.6,6.6,0,0,0,1.93,4.85,6.47,6.47,0,0,0,4.79,2,6.75,6.75,0,0,0,4.86-1.91,6.81,6.81,0,0,0,0-9.55A6.62,6.62,0,0,0,304.31,48Zm2.75,9.69a3.61,3.61,0,0,1-2.75,1.1,3.56,3.56,0,0,1-2.75-1.12,4.27,4.27,0,0,1-1-3,4.1,4.1,0,0,1,1-2.89,3.91,3.91,0,0,1,5.48,0,4.77,4.77,0,0,1,0,5.92Z"/><path class="cls-1" d="M333.94,48a4.82,4.82,0,0,0-3.47,1.53V48.4h-2.94V61.09h2.94V55a6.61,6.61,0,0,1,.6-3.32,2.27,2.27,0,0,1,2.08-1,2.1,2.1,0,0,1,1.85.73,4.69,4.69,0,0,1,.52,2.59v7.09h2.94V53.31a5.67,5.67,0,0,0-1.07-3.87A4.36,4.36,0,0,0,333.94,48Z"/><rect class="cls-1" x="377.09" y="39.08" width="2.93" height="22.01"/><path class="cls-1" d="M403.24,48A6.61,6.61,0,0,0,398.45,50a6.29,6.29,0,0,0-2,4.68,6.56,6.56,0,0,0,1.93,4.85,6.45,6.45,0,0,0,4.78,2,6.75,6.75,0,0,0,4.86-1.91,6.78,6.78,0,0,0,0-9.55A6.6,6.6,0,0,0,403.24,48ZM406,57.73a4,4,0,0,1-5.5,0,4.27,4.27,0,0,1-1-3,4.05,4.05,0,0,1,1-2.89,3.52,3.52,0,0,1,2.72-1.12A3.56,3.56,0,0,1,406,51.81a4.77,4.77,0,0,1,0,5.92Z"/><path class="cls-1" d="M427.87,50a6.42,6.42,0,0,0-2,4.79,6.35,6.35,0,0,0,2,4.76,6.85,6.85,0,0,0,4.93,1.9,7.77,7.77,0,0,0,3.57-.92V56.66a7.29,7.29,0,0,1-1.84,1.72,3.74,3.74,0,0,1-1.86.45,3.56,3.56,0,0,1-2.72-1.14,4.14,4.14,0,0,1-1.06-2.93,4.07,4.07,0,0,1,1.1-2.91,3.62,3.62,0,0,1,2.75-1.16,3.51,3.51,0,0,1,1.83.47,7,7,0,0,1,1.8,1.68v-3.9a7.33,7.33,0,0,0-3.54-.9A6.81,6.81,0,0,0,427.87,50Z"/><path class="cls-1" d="M461.88,49.87a5.39,5.39,0,0,0-4-1.83A5.52,5.52,0,0,0,453.63,50a6.86,6.86,0,0,0-1.7,4.75,7.1,7.1,0,0,0,1.7,4.85,5.64,5.64,0,0,0,8.25.21v1.33h2.95V48.4h-2.95Zm-.82,7.84a3.35,3.35,0,0,1-2.63,1.12,3.18,3.18,0,0,1-2.53-1.16,4.41,4.41,0,0,1-1-3,4.2,4.2,0,0,1,1-2.86,3.22,3.22,0,0,1,2.53-1.15,3.33,3.33,0,0,1,2.6,1.13,4.36,4.36,0,0,1,1,3A4.31,4.31,0,0,1,461.06,57.71Z"/><rect class="cls-1" x="481.87" y="39.08" width="2.93" height="22.01"/></g></g></svg>