<svg xmlns="http://www.w3.org/2000/svg" viewBox="0 0 433.43 118"><defs><style>.cls-1{fill:#a0a0a0;}</style></defs><g id="Layer_2" data-name="Layer 2"><g id="Capa_1" data-name="Capa 1"><path class="cls-1" d="M181.44,30.4a6.77,6.77,0,0,0,4.69-1.84v1.51h5.75V.31h-5.75v9.81a7.5,7.5,0,0,0-4.69-1.75c-6.13,0-9.79,4.12-9.79,11S175.31,30.4,181.44,30.4Zm-2.51-15.46a4,4,0,0,1,3.21-1.57,3.84,3.84,0,0,1,3.16,1.57,6.86,6.86,0,0,1,1.29,4.45,7,7,0,0,1-1.29,4.48h0a3.76,3.76,0,0,1-3.15,1.52,4,4,0,0,1-3.21-1.57,6.9,6.9,0,0,1-1.28-4.44A6.92,6.92,0,0,1,178.93,14.94Z"/><path class="cls-1" d="M211.42,8.37c-5.11,0-10.27,3.41-10.27,11s5.16,11,10.27,11c4.64,0,7.9-2.1,9.71-6.24l.13-.31-4.67-1.73-.14.23a5.33,5.33,0,0,1-4.74,3,4.4,4.4,0,0,1-4.54-4h14.24V18.93a11.88,11.88,0,0,0-2.28-7A9.21,9.21,0,0,0,211.42,8.37Zm-4.09,8.31a4.17,4.17,0,0,1,4.09-3.31c2.12,0,3.44,1.09,4,3.31Z"/><path class="cls-1" d="M182.1,52.09c2,0,3.51,1.08,4.56,3.23l.13.27,5.14-2.09-.12-.3c-1.65-4.06-4.92-6.12-9.71-6.12a9.77,9.77,0,0,0-7.73,3.16,11.52,11.52,0,0,0-2.72,7.86A11.54,11.54,0,0,0,174.37,66a9.8,9.8,0,0,0,7.73,3.15c4.79,0,8.06-2.06,9.71-6.12l.12-.3-5.14-2.08-.13.27c-1,2.14-2.59,3.23-4.56,3.23-2.79,0-4.45-2.25-4.45-6S179.31,52.09,182.1,52.09Z"/><path class="cls-1" d="M210.26,47.08c-5.11,0-10.27,3.41-10.27,11s5.16,11,10.27,11A9.83,9.83,0,0,0,220,62.88l.14-.32-4.69-1.73-.13.23a5.34,5.34,0,0,1-4.74,3,4.43,4.43,0,0,1-4.55-4h14.24V57.64a11.92,11.92,0,0,0-2.27-7A9.21,9.21,0,0,0,210.26,47.08Zm-4.09,8.31a4.16,4.16,0,0,1,4.09-3.3c2.11,0,3.44,1.08,4,3.3Z"/><path class="cls-1" d="M242.38,68.78h5.74V53.66c0-4.12-2.5-6.58-6.69-6.58a7.66,7.66,0,0,0-6.1,3v-2.7h-5.74V68.78h5.74V60.19c0-4.77,1.81-8.1,4.41-8.1,1.77,0,2.64,1,2.64,3.09Z"/><path class="cls-1" d="M269.68,63.66a3.8,3.8,0,0,1-1.82.45c-1.43,0-2.39-.52-2.39-3V52.41h5.47v-5h-5.47V38.77l-5.74,3.6v5h-3.21v5h3.21v8.73c0,5.14,2.81,8,7.93,8a8.15,8.15,0,0,0,3.5-.77l.26-.12L270,63.47Z"/><path class="cls-1" d="M293.48,52.82l.39.23L295,47.59l-.27-.08a8.58,8.58,0,0,0-2.61-.43,7.4,7.4,0,0,0-5.81,3V47.41h-5.74V68.78h5.74V61.1c0-5.6,1.91-8.81,5.23-8.81A3.86,3.86,0,0,1,293.48,52.82Z"/><path class="cls-1" d="M310.74,47.08c-4.29,0-7.52,2.37-8.21,6l-.06.31,4.91,1.12.09-.28a3,3,0,0,1,3.27-2.16c2.25,0,3.3.86,3.3,2.72v.58h-3.13c-5.49,0-9.17,2.86-9.17,7.11a6.2,6.2,0,0,0,6.62,6.61,8.13,8.13,0,0,0,6.18-2.58l.46,2.25h4.78V56.08C319.78,50.11,316.74,47.08,310.74,47.08ZM314,60.15A3.4,3.4,0,0,1,312.67,63a4.77,4.77,0,0,1-3.13,1.12,1.66,1.66,0,0,1-1.81-1.69c0-1.59,1-2.36,3.22-2.36H314Z"/><rect class="cls-1" x="329.54" y="39.03" width="5.74" height="29.75"/><path class="cls-1" d="M348.23,45.39a3.63,3.63,0,0,0,2.57-6.19,3.69,3.69,0,0,0-5.14,0,3.62,3.62,0,0,0,2.57,6.19Z"/><rect class="cls-1" x="345.36" y="47.41" width="5.75" height="21.37"/><polygon class="cls-1" points="376.47 63.78 367.26 63.78 375.89 49.8 375.89 47.41 360.61 47.41 360.61 52.41 368.66 52.41 359.95 66.39 359.95 68.78 376.47 68.78 376.47 63.78"/><path class="cls-1" d="M404.21,62.56l-4.69-1.73-.13.23a5.35,5.35,0,0,1-4.75,3,4.42,4.42,0,0,1-4.54-4h14.25V57.64a11.88,11.88,0,0,0-2.28-7,9.21,9.21,0,0,0-7.71-3.59c-5.11,0-10.27,3.41-10.27,11,0,5.3,3.21,11,10.27,11,4.63,0,7.89-2.1,9.71-6.23Zm-9.85-10.47c2.12,0,3.44,1.08,4,3.3h-8.12A4.16,4.16,0,0,1,394.36,52.09Z"/><path class="cls-1" d="M422.93,69.11a6.74,6.74,0,0,0,4.7-1.85v1.52h5.74V39h-5.74v9.8a7.51,7.51,0,0,0-4.7-1.75c-6.12,0-9.78,4.12-9.78,11S416.81,69.11,422.93,69.11Zm-2.5-15.46a3.94,3.94,0,0,1,3.2-1.56,3.85,3.85,0,0,1,3.17,1.56,6.86,6.86,0,0,1,1.29,4.45,6.94,6.94,0,0,1-1.3,4.49,3.81,3.81,0,0,1-3.16,1.52,4,4,0,0,1-3.2-1.57,6.91,6.91,0,0,1-1.29-4.44A6.94,6.94,0,0,1,420.43,53.65Z"/><path class="cls-1" d="M32.5,21.69a17.56,17.56,0,0,0-10-3.29C8.43,18.4,0,27.87,0,43.72S8.43,69,22.54,69a16.12,16.12,0,0,0,10-3.43V69H46.56V.31H32.5Zm2.61,6.75V2.92H44v63.5H35.11V57.11l-2.45,4.44c-1.32,2.39-5.46,4.87-10.12,4.87-12.66,0-19.93-8.28-19.93-22.7S9.88,21,22.54,21c4.34,0,8.51,2.32,10.24,4.5Z"/><path class="cls-1" d="M24.11,28.19a10.87,10.87,0,0,0-8.76,4.27C13.13,35.17,12,39,12,43.72S13.13,52.26,15.34,55a10.91,10.91,0,0,0,8.77,4.27,10.47,10.47,0,0,0,8.67-4.18c2.22-2.72,3.35-6.54,3.35-11.34S35,35.22,32.81,32.48A10.55,10.55,0,0,0,24.11,28.19Zm9.41,15.53c0,4.19-.94,7.46-2.78,9.72a7.9,7.9,0,0,1-6.63,3.19,8.26,8.26,0,0,1-6.74-3.31c-1.83-2.23-2.75-5.47-2.75-9.6s.92-7.38,2.75-9.61a8.26,8.26,0,0,1,6.74-3.31,8.08,8.08,0,0,1,6.65,3.31C32.62,36.38,33.52,39.52,33.52,43.72Z"/><path class="cls-1" d="M108.06.33h-14L52.57,68.52l-.3.48h14L107.77.82ZM64.88,66.5H56.73L95.46,2.83h8.14Z"/><path class="cls-1" d="M135.57,55.67a8,8,0,0,1-3.81.95c-3,0-4.79-1-4.79-6.26V31.53h12.28V19.14H127V0L112.91,8.85V19.14h-7.2V31.53h7.2v19c0,11.74,6.7,18.48,18.39,18.48a18.88,18.88,0,0,0,8.11-1.78l1-.47L137,54.91ZM131.3,66.41c-10.32,0-15.78-5.49-15.78-15.87V28.92h-7.2V21.75h7.2V10.29l8.84-5.56v17h12.28v7.17H124.36V50.36c0,6,2.42,8.87,7.4,8.87a10.54,10.54,0,0,0,3.59-.61l1.94,6.69A16.4,16.4,0,0,1,131.3,66.41Z"/><path class="cls-1" d="M237.21,110a2,2,0,0,1-.94.24c-.74,0-1.2-.26-1.2-1.56v-4.66h3.05V101h-3.05V96.05l-3.47,2.19V101h-1.78v3.07h1.78v4.71c0,2.91,1.66,4.57,4.55,4.57a4.64,4.64,0,0,0,2-.44l.25-.11-.85-2.94Z"/><path class="cls-1" d="M248.16,100.79c-4,0-5.85,3.25-5.85,6.27s1.83,6.27,5.85,6.27a5.6,5.6,0,0,0,5.54-3.55l.14-.31L251,108.41l-.13.23a2.82,2.82,0,0,1-2.52,1.63,2.31,2.31,0,0,1-2.36-2h7.9v-1.49a6.77,6.77,0,0,0-1.29-4A5.27,5.27,0,0,0,248.16,100.79Zm-2.08,4.63a2.14,2.14,0,0,1,2.08-1.56,2,2,0,0,1,2.06,1.56Z"/><path class="cls-1" d="M263.93,103.86a2.64,2.64,0,0,1,2.41,1.72l.13.27,3.12-1.26-.12-.3a5.46,5.46,0,0,0-5.54-3.5,5.55,5.55,0,0,0-4.4,1.81,7.21,7.21,0,0,0,0,8.93,5.53,5.53,0,0,0,4.4,1.8,5.45,5.45,0,0,0,5.54-3.49l.12-.3-3.12-1.26-.13.27a2.64,2.64,0,0,1-2.41,1.72c-2.11,0-2.33-2.24-2.33-3.21S261.82,103.86,263.93,103.86Z"/><path class="cls-1" d="M281.2,100.79a4.33,4.33,0,0,0-3.33,1.41V96.31h-3.48v16.84h3.48V108c0-2.45.95-4.1,2.37-4.1.65,0,1.4.2,1.4,1.74v7.55h3.48v-8.56C285.12,102.21,283.65,100.79,281.2,100.79Z"/><path class="cls-1" d="M297.63,100.79a4.35,4.35,0,0,0-3.25,1.45V101H290.9v12.17h3.48v-4.92c0-2.53,1-4.37,2.31-4.37.62,0,1.33.18,1.33,1.58v7.71h3.48v-8.56A3.56,3.56,0,0,0,297.63,100.79Z"/><path class="cls-1" d="M312.62,100.79a6,6,0,0,0-4.52,1.8,6.87,6.87,0,0,0,0,9,6.63,6.63,0,0,0,9,0,6.86,6.86,0,0,0,0-9A5.92,5.92,0,0,0,312.62,100.79Zm1.85,8.59a2.38,2.38,0,0,1-3.7,0,3.76,3.76,0,0,1-.71-2.33,3.6,3.6,0,0,1,.71-2.29,2.34,2.34,0,0,1,3.7,0,3.58,3.58,0,0,1,.71,2.29A3.71,3.71,0,0,1,314.47,109.38Z"/><rect class="cls-1" x="323.88" y="96.31" width="3.48" height="16.84"/><path class="cls-1" d="M338.57,100.79a5.94,5.94,0,0,0-4.52,1.8,6.89,6.89,0,0,0,0,9,6.64,6.64,0,0,0,9,0,6.86,6.86,0,0,0,0-9A5.92,5.92,0,0,0,338.57,100.79Zm1.85,8.59a2.38,2.38,0,0,1-3.7,0,3.69,3.69,0,0,1-.71-2.33,3.59,3.59,0,0,1,.71-2.3,2.2,2.2,0,0,1,1.85-.9,2.17,2.17,0,0,1,1.85.91,3.6,3.6,0,0,1,.71,2.29A3.71,3.71,0,0,1,340.42,109.38Z"/><path class="cls-1" d="M358.87,100.05l-2.3,1.21a4.87,4.87,0,0,0-2.12-.47,4.73,4.73,0,0,0-3.24,1.16,3.94,3.94,0,0,0-1.32,3,4,4,0,0,0,.67,2.3,3,3,0,0,0-1.28,2.51,3.12,3.12,0,0,0,.49,1.75,3.33,3.33,0,0,0-.84,2.32,3.53,3.53,0,0,0,1.58,3.08,6.88,6.88,0,0,0,4,1,5.8,5.8,0,0,0,4.69-1.83,3.69,3.69,0,0,0,.87-2.47c0-2.29-1.68-3.71-4.37-3.71H353.3c-.75,0-.75-.33-.75-.52a.62.62,0,0,1,.28-.53,5.93,5.93,0,0,0,1.62.23,4.8,4.8,0,0,0,3.23-1.11A3.91,3.91,0,0,0,359,105a4,4,0,0,0-.35-1.68l1.67-.84Zm-5.41,13H355c1.53,0,1.53.63,1.53.87s0,1.1-2.08,1.1c-.68,0-2.26-.13-2.26-1.33a1.84,1.84,0,0,1,.11-.7A7.3,7.3,0,0,0,353.46,113Zm1-6.77a1.2,1.2,0,0,1-1.26-1.24,1.26,1.26,0,1,1,2.52,0A1.2,1.2,0,0,1,354.45,106.24Z"/><path class="cls-1" d="M366.07,95.82h0a2.16,2.16,0,0,0-1.53.63,2.19,2.19,0,0,0,0,3.06,2.12,2.12,0,0,0,1.53.63h0a2.11,2.11,0,0,0,1.53-.63,2.19,2.19,0,0,0,0-3.06A2.15,2.15,0,0,0,366.07,95.82Z"/><rect class="cls-1" x="364.33" y="100.98" width="3.48" height="12.18"/><path class="cls-1" d="M378.52,100.79c-4,0-5.86,3.25-5.86,6.27s1.83,6.27,5.86,6.27a5.58,5.58,0,0,0,5.53-3.55l.14-.31-2.86-1.06-.14.23a2.79,2.79,0,0,1-2.51,1.63,2.33,2.33,0,0,1-2.37-2h7.91v-1.49a6.73,6.73,0,0,0-1.3-4A5.25,5.25,0,0,0,378.52,100.79Zm-2.08,4.63a2.14,2.14,0,0,1,2.08-1.56,2,2,0,0,1,2.05,1.56Z"/><path class="cls-1" d="M395.79,106.42l-.07,0a5.84,5.84,0,0,0-.81-.42l-1.79-.63c-.89-.34-.89-.71-.89-.83a.65.65,0,0,1,.73-.64,2.07,2.07,0,0,1,1.67.89l.21.27,2.15-2-.15-.22a4.64,4.64,0,0,0-3.88-2,4,4,0,0,0-2.88,1.08,3.47,3.47,0,0,0-1.13,2.61,3.52,3.52,0,0,0,2.53,3.41l.72.27a9.14,9.14,0,0,1,.93.36,2.66,2.66,0,0,1,.6.25c.39.19.44.41.44.58,0,.43-.12.92-1.1.92s-1.59-.56-2-1.69l-.13-.35-2.85,1.53.12.27a5.69,5.69,0,0,0,1.81,2.3,4.89,4.89,0,0,0,3.06,1,4.32,4.32,0,0,0,3.18-1.21,4.06,4.06,0,0,0,1.24-3,3.23,3.23,0,0,0-.78-2.07A2.72,2.72,0,0,0,395.79,106.42Z"/><path class="cls-1" d="M403.21,109.44h0a2.27,2.27,0,0,0,3.2,3.21,2.27,2.27,0,0,0-3.2-3.21Z"/><path class="cls-1" d="M413,96.45A2.16,2.16,0,0,0,416,99.51,2.16,2.16,0,1,0,413,96.45Z"/><rect class="cls-1" x="412.75" y="100.98" width="3.48" height="12.18"/><path class="cls-1" d="M431.77,102.59h0a6.56,6.56,0,0,0-9,0,6.89,6.89,0,0,0,0,9,6.64,6.64,0,0,0,9,0,6.89,6.89,0,0,0,0-9Zm-2.66,6.79a2.38,2.38,0,0,1-3.7,0,3.7,3.7,0,0,1-.72-2.33,3.57,3.57,0,0,1,.72-2.3,2.34,2.34,0,0,1,3.7,0,3.57,3.57,0,0,1,.7,2.29A3.7,3.7,0,0,1,429.11,109.38Z"/></g></g></svg>