<svg xmlns="http://www.w3.org/2000/svg" width="65.015" height="50" viewBox="0 0 65.015 50">
  <path id="Path_206" data-name="Path 206" d="M65.362,22.151v-.228c-.009-.294-.016-.579-.04-.873s-.038-.56-.068-.837q-.014-.148-.035-.3c-.012-.106-.021-.209-.038-.313l-.014-.094c-.031-.238-.068-.475-.111-.717-.009-.068-.024-.136-.035-.207-.047-.268-.1-.534-.16-.8l-.026-.113c-.066-.3-.143-.6-.221-.894-.026-.094-.054-.19-.085-.285-.052-.186-.108-.376-.169-.562-.047-.155-.1-.31-.155-.466-.042-.115-.082-.238-.125-.353-.066-.181-.134-.362-.207-.546-.021-.052-.04-.1-.056-.151s-.04-.087-.056-.129c-.068-.167-.139-.336-.212-.5-.026-.056-.047-.111-.073-.167l-.04-.078A22.1,22.1,0,0,0,54.546,3.7c-.1-.063-.207-.125-.315-.186L54.2,3.5c-.049-.031-.1-.052-.148-.078-.5-.28-1.014-.539-1.54-.781-.108-.047-.216-.1-.325-.148a.185.185,0,0,1-.052-.021c-.028-.012-.059-.021-.085-.033-.226-.1-.454-.19-.682-.278l-.045-.016-.021-.009A21.675,21.675,0,0,0,47.8,1.119L47.735,1.1c-.3-.056-.6-.108-.908-.155q-.148-.025-.3-.042c-.23-.035-.463-.061-.691-.082-.148-.016-.289-.035-.433-.042S45.1.759,44.941.752c-.2-.014-.4-.031-.59-.035C43.974.7,43.6.707,43.236.717c-.228,0-.454.016-.682.026-.172.009-.348.014-.522.031l-.207.012c-.1.009-.2.014-.289.028-.176.012-.353.033-.532.059q-.123.014-.24.035c-.365.047-.722.1-1.075.167-.071.014-.139.026-.2.04l-.336.066-.021,0c-.2.045-.407.092-.609.139-.031.009-.056.014-.082.021-.042.009-.085.021-.129.031-.136.035-.27.068-.4.108q-.3.078-.593.169c-.1.028-.207.059-.306.094-.186.061-.372.12-.553.186h-.009c-.259.089-.513.193-.767.294-.118.047-.23.089-.346.136-.254.1-.506.216-.755.329l-.329.155c-.167.082-.336.155-.5.242l.012,0c-.3.155-.6.317-.894.487-.3-.169-.6-.332-.9-.487l.014,0c-.169-.087-.336-.16-.506-.242l-.327-.155c-.252-.113-.5-.226-.755-.329-.118-.047-.23-.089-.346-.136-.256-.1-.51-.2-.769-.294h-.009c-.181-.066-.367-.125-.553-.186-.1-.035-.2-.066-.306-.094-.193-.061-.393-.118-.59-.169-.134-.04-.268-.073-.407-.108l-.129-.031c-.026-.007-.052-.012-.082-.021-.2-.047-.4-.094-.609-.139l-.021,0-.336-.066c-.063-.014-.134-.026-.2-.04-.355-.063-.713-.12-1.075-.167-.078-.014-.16-.026-.242-.035-.176-.026-.353-.047-.532-.059C24.085.8,23.991.794,23.89.785L23.683.773c-.172-.016-.348-.021-.522-.031-.228-.009-.452-.021-.677-.026-.372-.009-.743-.012-1.117,0-.2,0-.393.021-.593.035-.155.007-.31.016-.466.031s-.285.026-.43.042c-.23.021-.463.047-.691.082-.1.012-.2.026-.3.042-.3.047-.6.1-.905.155l-.066.014a21.675,21.675,0,0,0-3.509,1.014l-.021.009-.042.016c-.23.087-.459.176-.682.278-.026.012-.056.021-.087.033a.161.161,0,0,1-.052.021c-.108.049-.216.1-.325.148-.134.061-.263.12-.393.19-.393.181-.771.379-1.148.59-.047.026-.1.047-.146.078l-.026.016A22.144,22.144,0,0,0,2.279,13.546l-.038.078-.075.167c-.073.165-.141.334-.212.5-.016.042-.038.087-.054.129s-.035.1-.056.151c-.073.183-.143.365-.207.546-.045.115-.082.238-.127.353-.052.155-.106.31-.155.466-.059.186-.115.376-.167.562-.031.094-.061.19-.087.285-.078.294-.155.593-.221.894l-.026.113c-.054.263-.111.529-.158.8-.014.071-.026.139-.035.207-.042.242-.082.48-.113.717L.537,19.6c-.019.1-.026.207-.04.313s-.026.2-.035.3c-.028.278-.052.557-.068.837s-.031.579-.038.873v.228c0,.061,0,.118,0,.174v.106c0,.1,0,.2,0,.308l.012.548.026.454c.009.2.026.4.042.6.009.12.024.24.035.362.009.085.016.172.021.263l.014.12c.012.092.031.181.042.273.021.151.042.306.071.456.028.2.059.4.1.6.031.174.068.35.1.524s.073.341.111.513c.056.242.122.48.186.72.031.1.052.2.082.3.108.379.23.76.36,1.131.047.129.089.254.136.383.026.087.061.169.092.252a1.112,1.112,0,0,1,.047.111q.078.187.155.381c.052.125.1.254.155.383.021.047.047.094.071.143.052.115.1.233.158.348.082.179.169.36.256.536.056.113.115.223.172.336.1.176.186.35.285.522.061.113.122.226.186.332.1.174.2.341.308.51.063.108.132.216.2.325.1.162.212.327.322.487l.221.325c.113.155.223.306.336.456.082.108.165.221.247.334l.31.374c.289.36.59.708.9,1.049v0l-.014.014,1.221,1.221h0L7.4,38.5l4.522-4.522.336-.336,5.715-5.71-.115-.118-.67-.668q-.032-.032-.063-.071c-.122-.125-.233-.259-.341-.393l0,0a6.921,6.921,0,0,1-.83-1.331c-.063-.136-.125-.275-.181-.419s-.1-.275-.146-.419v0a6.841,6.841,0,0,1-.268-1.221.23.23,0,0,1-.007-.061,2.763,2.763,0,0,1-.026-.31,2.7,2.7,0,0,1-.014-.275c0-.092-.009-.176-.009-.268a.678.678,0,0,1,0-.1c0-.1,0-.2.014-.3a.1.1,0,0,1,0-.038,4.067,4.067,0,0,1,.042-.412l0-.026c.016-.134.042-.27.068-.4a3.861,3.861,0,0,1,.1-.433,5.644,5.644,0,0,1,.3-.854l.007-.024a4.456,4.456,0,0,1,.221-.452c.031-.066.066-.129.1-.2.087-.155.181-.306.285-.454v0c.078-.113.155-.226.242-.334a.7.7,0,0,1,.042-.056,3.875,3.875,0,0,1,.252-.3,3.645,3.645,0,0,1,.259-.28l.061-.061c.085-.087.176-.172.266-.249.019-.019.035-.035.052-.049.078-.068.16-.136.242-.2.035-.031.073-.056.113-.087a3.716,3.716,0,0,1,.31-.223,3.423,3.423,0,0,1,.367-.233q.169-.1.346-.19a3.074,3.074,0,0,1,.294-.141l.042-.024c.108-.047.212-.089.32-.129l.047-.021a2.238,2.238,0,0,1,.341-.115c.12-.04.247-.075.372-.108.094-.021.186-.047.28-.066a2.535,2.535,0,0,1,.285-.056c.186-.033.367-.056.553-.073.113-.009.221-.012.332-.016.139,0,.278-.014.416-.009.2.009.4.021.6.047a.333.333,0,0,1,.068,0c-.094.28-.167.567-.245.851h0v.012c-.082.285-.155.574-.226.858a.119.119,0,0,1-.007.04l-.078.341c-.019.082-.031.165-.047.247-.024.111-.052.214-.071.327a21.444,21.444,0,0,0-.379,3.549c0,.167,0,.341,0,.513v17.3a.22.22,0,0,0,.009.078.807.807,0,0,0,.245.532l10.106,10.1a.841.841,0,0,0,.607.256h0a.85.85,0,0,0,.609-.256l10.1-10.1a.81.81,0,0,0,.247-.532.22.22,0,0,0,.009-.078v-17.3c0-.129,0-.259,0-.383a21.227,21.227,0,0,0-.381-3.678c-.016-.113-.047-.216-.068-.327-.016-.082-.031-.165-.047-.247l-.078-.341a.124.124,0,0,1-.009-.04c-.068-.285-.143-.574-.223-.858v-.012h0c-.078-.285-.151-.571-.247-.851a.344.344,0,0,1,.071,0c.2-.026.393-.038.6-.047.139,0,.275,0,.414.009.113,0,.221.007.332.016.186.016.367.04.553.073a2.342,2.342,0,0,1,.285.056c.1.019.186.045.282.066.125.033.249.068.369.108a2.154,2.154,0,0,1,.341.115l.049.021c.108.04.212.082.317.129l.045.024c.1.042.2.089.294.141.115.061.233.125.343.19a3.2,3.2,0,0,1,.367.233c.108.068.212.146.313.223.038.031.078.056.111.087.082.066.165.134.242.2a.5.5,0,0,1,.052.049c.092.078.181.162.268.249l.061.061c.089.089.176.181.259.28s.172.2.249.3a.7.7,0,0,1,.042.056c.087.108.165.221.242.334v0a4.863,4.863,0,0,1,.285.454,5.359,5.359,0,0,1,.325.647l.009.024a5.435,5.435,0,0,1,.193.517c.04.113.075.223.1.336a2.878,2.878,0,0,1,.1.4.086.086,0,0,1,.007.035c.026.129.052.266.071.4l0,.026c.021.139.033.273.042.412l0,.038.012.3c0,.033,0,.063,0,.1,0,.092,0,.176-.009.268a2.693,2.693,0,0,1-.012.275c0,.1-.014.207-.026.31a.223.223,0,0,1-.009.061,6.642,6.642,0,0,1-.268,1.221v0a4.19,4.19,0,0,1-.146.419c-.056.143-.115.282-.181.419a6.91,6.91,0,0,1-.828,1.331l0,0c-.108.134-.221.268-.341.393-.021.026-.045.049-.066.071l-.668.668-.118.118L53.9,34.081,58.318,38.5l.068-.063,1.221-1.221-.012-.014v0c.31-.341.614-.689.9-1.049l.31-.374c.082-.113.162-.226.245-.334.113-.151.226-.3.336-.456l.221-.325c.113-.16.221-.325.325-.487.068-.108.136-.216.2-.325.1-.169.207-.336.306-.51.066-.106.125-.219.186-.332.1-.172.19-.346.285-.522.056-.113.118-.223.174-.336.085-.176.172-.357.254-.536.056-.115.108-.233.16-.348.021-.049.047-.1.068-.143.052-.129.1-.259.155-.383s.1-.256.155-.381a1.139,1.139,0,0,1,.049-.111c.028-.082.063-.165.089-.252l.139-.383c.129-.372.249-.753.357-1.131.031-.1.052-.2.082-.3.066-.24.129-.477.186-.72.031-.125.052-.247.082-.372.009-.047.021-.094.031-.141.033-.174.073-.35.1-.524.038-.2.068-.4.1-.6.026-.151.047-.306.068-.456.014-.092.031-.181.045-.273.012-.129.021-.259.033-.383s.026-.242.035-.362c.016-.2.035-.4.042-.6l.026-.454.014-.548c0-.1,0-.207,0-.308v-.106C65.366,22.268,65.366,22.212,65.362,22.151ZM34.539,4.623l-.009,0c.056-.031.118-.059.174-.085.233-.118.47-.226.708-.339v0a20.316,20.316,0,0,1,2.041-.79l.12-.038c.294-.1.593-.176.889-.259.082-.019.165-.045.242-.066.268-.063.536-.125.8-.181.115-.026.233-.052.353-.073.238-.047.48-.082.72-.12.148-.024.3-.049.449-.066.216-.031.437-.052.656-.073.174-.019.346-.035.522-.047.2-.014.412-.024.619-.031.186-.009.372-.014.56-.019.313,0,.628,0,.943.009.5.016,1,.056,1.493.113l.327.033c.155.024.31.045.466.071s.32.047.48.078c.125.021.249.047.376.073.188.035.379.073.564.118.1.026.2.052.3.073.214.056.426.108.637.167.073.024.151.045.228.071.242.068.48.141.717.223.047.019.094.031.143.047.275.1.553.2.823.308l.021.007c.294.118.583.242.873.372.362.16.717.336,1.065.522.127.066.252.134.376.2.169.089.332.183.5.285.139.078.273.16.409.24.035.026.075.049.113.075l.186.12c.052.035.108.068.16.108.2.129.388.259.579.393.063.052.134.1.2.151.263.19.522.388.774.593l.056.042c.28.228.555.466.823.708.04.038.078.073.118.113.228.212.452.423.668.642l.134.134A21.658,21.658,0,0,1,59.4,10.192a.051.051,0,0,0,.021.028,21.662,21.662,0,0,1,1.3,1.879c.052.082.1.165.151.249s.108.181.16.273c.045.073.082.146.127.219.28.5.539,1.021.771,1.547h0l.193.456c.045.113.092.228.139.341a17.712,17.712,0,0,1,.656,1.978,1.077,1.077,0,0,1,.035.115l.026.087c.056.216.113.43.16.647l.026.122c.052.214.094.435.134.651.007.033.012.073.021.108a19.919,19.919,0,0,1,.275,2.234c.026.4.04.8.04,1.192,0,.115,0,.228,0,.341v.228c0,.254-.016.513-.035.769l-.012.188c-.014.226-.031.447-.056.666-.009.1-.021.2-.035.3-.026.212-.052.421-.082.63,0,.047-.016.089-.021.136-.063.412-.146.821-.233,1.225-.031.127-.056.252-.087.372s-.063.263-.1.393c-.052.19-.1.376-.155.567-.031.089-.056.181-.087.275-.068.221-.141.44-.219.661a1.483,1.483,0,0,1-.061.16c-.038.113-.082.223-.125.341s-.1.263-.151.4c-.071.167-.143.332-.216.5s-.143.327-.216.487l-.089.19c-.082.167-.169.332-.256.5a19.861,19.861,0,0,1-1.312,2.187c-.038.049-.073.1-.111.153-.2.285-.416.569-.63.844-.056.071-.113.143-.169.212-.259.31-.517.623-.795.92l-.007.009-2.634-2.634-1.082-1.082c.033-.045.073-.082.1-.127a14.478,14.478,0,0,0,2.864-4.983c.056-.165.108-.325.151-.489s.1-.332.139-.5a1.586,1.586,0,0,0,.045-.16c.115-.466.207-.941.28-1.418.026-.2.052-.412.073-.619v-.052a14.188,14.188,0,0,0,.078-1.484v-.108c0-.073,0-.146,0-.223,0-.045,0-.082,0-.122,0-.212-.016-.419-.028-.63l0-.021c-.021-.31-.056-.616-.1-.924a14.636,14.636,0,0,0-.433-2.037c-.078-.285-.169-.564-.268-.842l0,0v0c-.047-.132-.094-.266-.151-.4v0c-.052-.134-.1-.268-.16-.4h0a1.439,1.439,0,0,0-.078-.176,13.031,13.031,0,0,0-.684-1.369v0c-.071-.125-.143-.245-.221-.367s-.151-.245-.228-.367l0,0A14.883,14.883,0,0,0,47.768,8.28c-.141-.04-.285-.082-.426-.118-.092-.026-.183-.047-.273-.068-.242-.061-.484-.113-.724-.16-.04,0-.075-.014-.113-.019-.233-.042-.466-.078-.7-.106-.052-.009-.1-.014-.155-.024-.252-.028-.5-.052-.757-.068a.138.138,0,0,0-.047,0h-.021l-.28-.012a14.686,14.686,0,0,0-4.6.529c-.3.087-.6.181-.891.287l-.007-.009-.009,0c-.193-.238-.4-.463-.6-.687h.009c-.04-.04-.073-.078-.113-.118-.061-.063-.115-.134-.176-.2-.143-.151-.289-.3-.44-.454-.087-.082-.174-.167-.259-.249-.049-.047-.1-.092-.143-.139A20.3,20.3,0,0,0,35.32,5.2l-.012,0c-.259-.2-.522-.388-.79-.574ZM23.62,39.382V22.445c0-.087,0-.169,0-.254q0-.194.007-.388v-.045c0-.113.009-.223.019-.341,0-.031,0-.056,0-.089V21.3l.026-.386.026-.332c.009-.061.014-.125.024-.19.012-.1.021-.212.033-.315l0-.047c.014-.094.021-.186.035-.275s.021-.155.035-.233c.016-.127.038-.252.059-.376.009-.073.021-.146.035-.221s.031-.167.047-.254c.026-.134.052-.27.082-.4.012-.056.026-.113.035-.169.021-.087.038-.176.059-.263.035-.151.078-.3.118-.454a1.2,1.2,0,0,1,.031-.125c.021-.082.042-.165.063-.249l0-.019,0,0a1.541,1.541,0,0,1,.045-.148c.063-.219.134-.44.2-.656a.067.067,0,0,1,.009-.031l.007,0v0c.082.035.165.071.242.108l.035.019a1.73,1.73,0,0,1,.266.129c.092.042.183.094.273.146l.078.042c.1.056.186.118.278.174.038.026.08.052.12.082.134.089.263.188.393.289.094.078.19.155.28.238s.179.162.263.245.169.176.252.263a5.938,5.938,0,0,1,.379.459c.052.068.1.136.151.207.1.141.2.289.287.435s.176.315.254.48l.012.031a6.778,6.778,0,0,1,.68,2.632V37.466a.848.848,0,0,0,.254.609l.146.151,1.592,1.592.165.165,0,0,.5.5.113.113,0,0-3.4,3.4-4.179-4.174ZM28.756,9.056c.146-.165.3-.325.461-.487s.3-.308.459-.454c.108-.108.214-.216.327-.32.151-.143.308-.28.463-.414.085-.082.176-.155.266-.233.174-.148.346-.289.522-.428.071-.056.139-.108.209-.16.2-.151.4-.306.6-.449.256-.181.515-.362.778-.529l0,0,.012-.007.009.007,0,0c.263.167.522.348.776.529.2.143.407.3.6.449l.207.155c.176.143.35.285.522.433.092.078.181.151.268.233.155.134.31.27.461.414.113.1.221.212.329.32.155.146.306.3.456.454s.315.322.463.487c.047.047.089.1.136.151v0l-.151.078c-.167.092-.336.176-.5.268-.089.052-.181.1-.268.16-.136.078-.275.16-.409.245-.056.031-.1.071-.16.1-.038.028-.078.054-.12.08a2.815,2.815,0,0,0-.247.165c-.052.035-.1.073-.151.108-.073.047-.143.1-.212.151a.84.84,0,0,0-.089.071.308.308,0,0,0-.066.047c-.047.035-.094.073-.143.108-.151.115-.3.238-.447.362-.174.141-.341.294-.506.444-.056.047-.108.1-.16.151l-.016.014c-.087.082-.179.162-.261.249-.042.042-.085.087-.125.129-.073.073-.139.151-.207.226-.073-.075-.139-.153-.212-.226-.038-.042-.082-.087-.125-.129-.082-.087-.172-.167-.259-.249l-.016-.014c-.052-.052-.1-.1-.16-.151-.165-.151-.334-.3-.506-.444-.148-.125-.3-.247-.449-.362-.047-.035-.094-.073-.143-.108a.368.368,0,0,0-.063-.047q-.046-.039-.092-.071c-.068-.052-.136-.1-.212-.151-.047-.035-.1-.073-.151-.108a2.78,2.78,0,0,0-.245-.165c-.045-.026-.082-.052-.122-.08-.056-.031-.1-.071-.16-.1-.134-.085-.27-.167-.409-.245-.087-.056-.176-.108-.268-.16-.165-.092-.332-.176-.5-.268l-.151-.078v0C28.66,9.155,28.709,9.1,28.756,9.056Zm11.721,5.477,0,0c-.113.047-.226.089-.334.141s-.188.087-.285.134c-.031.014-.061.031-.094.047-.1.049-.186.1-.278.148-.176.1-.353.207-.522.315l-.007.007-.019.009c-.078.052-.151.108-.228.165q-.155.109-.31.233a8.413,8.413,0,0,0-1.559,1.555l.009.021a8.027,8.027,0,0,0-.609.915l-.007-.021a.1.1,0,0,0-.009-.035c-.056-.186-.118-.367-.181-.548a.137.137,0,0,0-.021-.068c-.052-.155-.108-.313-.174-.463s-.113-.294-.176-.435c-.066-.16-.139-.32-.216-.475-.047-.108-.1-.212-.151-.32-.094-.19-.2-.374-.294-.56-.223-.4-.461-.783-.717-1.152-.1-.155-.209-.308-.317-.454v0a1.156,1.156,0,0,1,.089-.094c.1-.108.2-.212.306-.315.075-.078.153-.153.23-.226a12.593,12.593,0,0,1,1.312-1.105l.031-.026c.235-.167.473-.332.72-.487l0,0c.249-.155.506-.306.764-.444v0c.1-.052.193-.1.294-.151.158-.087.322-.165.487-.242l0,0a1.858,1.858,0,0,1,.155.221c.089.125.181.249.263.374.031.045.056.087.085.129a18.558,18.558,0,0,1,1.395,2.436c.1.193.19.388.278.586Q40.438,14.435,40.477,14.533ZM30.6,22.666v-.009c0-.073,0-.143,0-.212v-.12a1.146,1.146,0,0,0,0-.127.615.615,0,0,1,0-.094v-.082a.193.193,0,0,0,0-.052.1.1,0,0,0,0-.038V21.9c0-.035,0-.068,0-.1.014-.228.026-.461.052-.682.014-.118.021-.233.04-.35.026-.228.063-.452.108-.682.021-.111.042-.228.068-.341l.078-.374,0,.012c.016-.063.031-.134.052-.2a13.108,13.108,0,0,1,.828-2.288c.087-.181.176-.362.273-.539.063-.122.125-.242.193-.36.049-.089.1-.181.155-.268.127-.209.261-.414.4-.616l0-.009v.009c.139.2.273.407.4.616.056.087.108.179.155.268.068.118.129.238.2.36.094.176.186.357.27.539a13.312,13.312,0,0,1,.83,2.288c.021.063.033.134.052.2l0-.012.08.374c.026.113.047.23.068.341.042.23.082.454.108.682.016.118.026.233.038.35.026.221.04.454.052.682,0,.035,0,.068,0,.1v.035a.1.1,0,0,0,0,.038.193.193,0,0,0,0,.052V22.1a.615.615,0,0,1,0,.094l0,.049a.43.43,0,0,0,0,.078,1,1,0,0,0,0,.12c0,.068,0,.139,0,.212v.009a1.2,1.2,0,0,0,0,.146V37.106L32.86,39.364,30.6,37.106V22.812A1.2,1.2,0,0,0,30.6,22.666Zm-5.277-8.323c.085-.2.181-.393.275-.586a18.829,18.829,0,0,1,1.395-2.436c.031-.042.056-.085.087-.129.082-.125.172-.249.263-.374A1.858,1.858,0,0,1,27.5,10.6l0,0c.162.078.327.155.487.242.1.047.2.1.294.151v0c.259.139.513.289.764.444l0,0c.247.155.484.32.722.487l.031.026a13.1,13.1,0,0,1,1.312,1.105c.078.073.155.148.228.226.108.1.207.207.306.315a1.168,1.168,0,0,1,.092.094v0c-.108.146-.216.3-.32.454-.254.369-.492.755-.717,1.152-.1.186-.2.369-.292.56-.052.108-.1.212-.153.32-.078.155-.151.315-.214.475-.066.141-.127.289-.179.435s-.12.308-.172.463a.117.117,0,0,0-.021.068c-.066.181-.127.362-.181.548a.1.1,0,0,0-.009.035l-.009.021a8.333,8.333,0,0,0-.607-.915l.007-.021a8.473,8.473,0,0,0-1.557-1.555c-.1-.082-.207-.16-.313-.233-.078-.056-.151-.113-.228-.165l-.016-.009-.009-.007c-.167-.108-.346-.216-.522-.315-.089-.052-.181-.1-.275-.148l-.1-.047c-.094-.047-.188-.089-.285-.134s-.219-.094-.332-.141l0,0C25.264,14.468,25.294,14.4,25.325,14.343Zm4.13,30.87,3.4-3.4h0l3.4,3.4v0l-3.4,3.4-3.405-3.4Zm8.029-1.221-3.4-3.4v0l.111-.113.5-.492.165-.165,1.592-1.592.148-.151a.858.858,0,0,0,.254-.609V22.125a6.735,6.735,0,0,1,.677-2.632l.014-.031q.116-.247.254-.48c.089-.146.186-.294.285-.435.047-.071.1-.139.151-.207.122-.16.247-.313.381-.459.082-.087.162-.176.249-.263s.174-.167.263-.245.186-.16.28-.238c.132-.1.261-.2.393-.289.04-.031.082-.056.122-.082.089-.056.181-.118.275-.174l.078-.042c.092-.052.181-.1.273-.146a1.754,1.754,0,0,1,.268-.129l.033-.019c.078-.038.16-.073.242-.108v0l.009,0a.067.067,0,0,1,.009.031c.068.216.136.437.2.656a1.533,1.533,0,0,1,.042.148l0,0,0,.019c.021.085.045.167.066.249.012.042.021.082.031.125.038.153.08.3.115.454.021.087.04.176.061.263.007.056.021.113.033.169.031.134.056.27.082.4.019.087.031.169.049.254s.026.148.033.221c.021.125.045.249.061.376.012.078.021.155.035.233s.021.181.033.275l0,.047c.014.1.021.212.035.315.007.066.012.129.021.19l.026.332.026.386v.031c0,.033,0,.059,0,.089.009.118.012.228.016.341V21.8c0,.129.009.259.009.388,0,.085,0,.167,0,.254V39.382l-.437.435ZM2.12,21.128A19.922,19.922,0,0,1,2.4,18.894c.007-.035.012-.075.021-.108.038-.216.082-.437.134-.651l.026-.122c.047-.216.1-.43.16-.647l.026-.087a18.951,18.951,0,0,1,.689-2.093c.047-.113.1-.228.139-.341.066-.151.129-.306.2-.456h0c.235-.527.494-1.047.774-1.547.042-.073.082-.146.125-.219.052-.092.1-.181.16-.273s.1-.167.151-.249A21.688,21.688,0,0,1,6.3,10.22a.089.089,0,0,0,.021-.028A21.626,21.626,0,0,1,7.773,8.529L7.907,8.4c.216-.219.442-.43.67-.642.038-.04.078-.075.115-.113.268-.242.546-.48.825-.708l.056-.042c.249-.2.508-.4.771-.593.071-.052.139-.1.2-.151.24-.169.487-.336.736-.5l.186-.12c.04-.026.078-.049.113-.075.139-.08.273-.162.409-.24.165-.1.329-.2.5-.285.071-.04.143-.078.212-.118l.165-.087c.35-.186.7-.362,1.065-.522.289-.129.579-.254.873-.372l.021-.007c.273-.108.548-.212.825-.308.047-.016.094-.028.141-.047.238-.082.475-.155.717-.223.078-.026.155-.047.228-.071.212-.059.423-.111.64-.167.1-.021.2-.047.3-.073.186-.045.376-.082.567-.118.125-.026.249-.052.376-.073.158-.031.317-.052.477-.078s.31-.047.466-.071l.329-.033c.492-.056.988-.1,1.493-.113.315-.012.63-.012.941-.009.19,0,.376.009.562.019.207.007.414.016.616.031.176.012.35.028.522.047.221.021.44.042.656.073.151.016.3.042.449.066.242.038.484.073.72.12.122.021.238.047.355.073.268.056.536.118.8.181.078.021.16.047.242.066.3.082.6.162.889.259l.122.038a20.764,20.764,0,0,1,2.041.79v0c.238.113.475.221.708.339.056.026.115.054.172.085l-.009,0,.024.009c-.268.186-.532.374-.79.574l-.014,0a21.076,21.076,0,0,0-1.71,1.468l-.141.139c-.087.082-.174.167-.259.249-.151.151-.3.3-.44.454-.061.063-.118.134-.179.2l-.111.118h.007c-.207.223-.409.449-.6.687l-.007,0-.009.009c-.294-.106-.588-.2-.889-.287a14.686,14.686,0,0,0-4.6-.529l-.282.012h-.021a.145.145,0,0,0-.047,0c-.254.016-.506.04-.755.068-.052.009-.1.014-.155.024-.238.028-.47.063-.7.106-.04,0-.075.014-.113.019-.242.047-.484.1-.724.16-.092.021-.183.042-.273.068-.143.035-.285.078-.428.118a14.726,14.726,0,0,0-4.781,2.42,14.893,14.893,0,0,0-3.457,3.716l0,0c-.078.122-.155.242-.228.367s-.153.242-.221.367v0a13.048,13.048,0,0,0-.687,1.369,1.439,1.439,0,0,0-.078.176h0c-.056.129-.108.263-.16.4v0c-.056.134-.1.268-.151.4v0l0,0a14.658,14.658,0,0,0-.7,2.879c-.042.308-.078.614-.1.924l0,.021c-.014.212-.026.419-.031.63,0,.04,0,.078,0,.122,0,.078,0,.151,0,.223v.108a14.188,14.188,0,0,0,.078,1.484v.052c.024.207.049.414.075.619.073.477.162.952.28,1.418a1.587,1.587,0,0,0,.042.16c.04.169.087.339.139.5s.094.325.151.489a14.484,14.484,0,0,0,2.867,4.983,1.227,1.227,0,0,0,.1.127L7.348,35.972l-.009-.009c-.275-.3-.534-.609-.795-.92l-.167-.212c-.216-.275-.428-.56-.63-.844-.04-.052-.073-.1-.113-.153a20.234,20.234,0,0,1-1.312-2.187c-.087-.165-.172-.329-.254-.5q-.046-.092-.092-.19c-.073-.16-.146-.325-.214-.487s-.148-.334-.216-.5c-.052-.134-.1-.268-.151-.4-.066-.169-.129-.332-.186-.5-.078-.221-.153-.44-.221-.661-.031-.094-.056-.186-.087-.275-.052-.19-.1-.376-.155-.567-.021-.078-.042-.16-.059-.24-.014-.049-.026-.1-.04-.153-.031-.12-.056-.245-.087-.372-.085-.4-.167-.814-.233-1.225,0-.047-.016-.089-.021-.136-.031-.209-.056-.419-.082-.63-.012-.1-.026-.2-.033-.3-.026-.219-.045-.44-.056-.666l-.014-.188c-.016-.256-.031-.515-.035-.769v-.228c0-.113,0-.226,0-.341C2.082,21.927,2.094,21.53,2.12,21.128Zm13.062-3.669a8.417,8.417,0,0,0-1.606,4.868v.019a.678.678,0,0,0,0,.1c0,.087.009.172.009.259s0,.151.009.228v0l0,.019c.019.263.045.522.082.781l.014.085a6.887,6.887,0,0,0,.172.811v.014h0a.471.471,0,0,0,.026.087c.031.111.066.223.1.336a.954.954,0,0,1,.047.129c.026.082.056.16.087.242l.014.047c.028.078.068.155.1.233.052.12.1.247.155.367.078.16.16.31.245.466.026.047.049.1.075.143a8.437,8.437,0,0,0,.677,1l.1.127v0l-3.2,3.2a13.114,13.114,0,0,1-2.418-4.045.516.516,0,0,0-.031-.082c-.054-.155-.108-.315-.16-.47s-.1-.32-.141-.48c-.014-.033-.021-.073-.035-.108s-.021-.08-.031-.125c-.038-.146-.073-.294-.108-.44-.016-.092-.038-.176-.054-.268v0c0-.031-.014-.063-.019-.094-.042-.228-.082-.459-.115-.687l-.014-.1c-.033-.278-.063-.553-.082-.828v0c-.012-.143-.016-.285-.021-.428v-.016c0-.127,0-.247,0-.372v-.125c0-.23.014-.459.026-.687,0-.1.009-.2.019-.289.007-.151.031-.3.047-.449s.035-.294.056-.435c.016-.113.033-.221.056-.334.033-.193.073-.388.115-.581.014-.056.026-.118.042-.174.061-.249.127-.5.2-.746l0-.019a13.161,13.161,0,0,1,3.935-6.021,13.019,13.019,0,0,1,5.555-2.862c.1-.021.19-.042.289-.059.186-.04.376-.078.567-.108.134-.024.268-.045.4-.061.16-.021.325-.035.484-.052.139-.014.273-.026.409-.035.052,0,.1,0,.148-.007.2-.009.4-.019.6-.019h.259c.268,0,.536.019.8.035l.063.009c.285.021.569.054.854.094l.045.009c.294.042.59.1.884.162.263.061.522.127.781.2a1.117,1.117,0,0,1,.134.033c-.113.16-.223.32-.332.484-.066.089-.118.186-.176.28h0l-.021.04c-.143.223-.287.444-.419.668-.186.306-.36.619-.524.934l-.059.111c-.082.169-.169.336-.252.506s-.167.355-.249.532-.155.357-.233.539h0l-.009.014a7.287,7.287,0,0,0-.889-.1l.009-.014c-.2-.016-.388-.021-.588-.021a8.46,8.46,0,0,0-6.021,2.491A8.373,8.373,0,0,0,15.181,17.459ZM50.225,27.828l.1-.127a8.73,8.73,0,0,0,.677-1c.026-.045.047-.1.073-.143.087-.155.169-.306.247-.466.056-.12.1-.247.155-.367.033-.078.073-.155.1-.233l.012-.047c.031-.082.061-.16.087-.242.014-.042.031-.087.047-.129.035-.113.071-.226.1-.336a.341.341,0,0,0,.026-.087h0v-.014a7.4,7.4,0,0,0,.174-.811l.012-.085c.04-.259.066-.517.082-.781l0-.019v0c0-.078,0-.151.009-.228s.007-.172.007-.259V22.28a8.661,8.661,0,0,0-.388-2.4,6.787,6.787,0,0,0-.35-.91c-.08-.19-.176-.381-.275-.567a8.533,8.533,0,0,0-7.5-4.475c-.2,0-.393,0-.586.021l.007.014a7.342,7.342,0,0,0-.889.1l-.007-.014h0c-.078-.181-.155-.362-.233-.539s-.165-.355-.252-.532-.167-.336-.249-.506l-.061-.111c-.165-.315-.336-.628-.522-.934-.134-.223-.278-.444-.419-.668l-.021-.04h0c-.061-.094-.113-.19-.176-.28-.108-.165-.221-.325-.334-.484a1.239,1.239,0,0,1,.134-.033c.259-.078.517-.143.781-.2.294-.063.593-.12.887-.162l.042-.009c.285-.04.569-.073.854-.094l.066-.009c.263-.016.532-.031.8-.035H43.7c.2,0,.4.009.6.019.047,0,.094,0,.146.007.139.009.273.021.409.035.16.016.325.031.484.052.134.016.268.038.4.061.188.031.379.068.564.108.1.016.2.038.289.059a13.2,13.2,0,0,1,9.492,8.883l0,.019a1.06,1.06,0,0,1,.033.115c.066.207.118.419.169.63.016.056.031.118.042.174.045.193.082.388.118.581.021.113.038.221.056.334.021.141.038.289.056.435s.038.3.047.449c.007.094.012.193.016.289.014.228.026.456.026.687v.125c0,.125,0,.245,0,.372v.016c0,.143-.007.285-.021.428v0c-.016.275-.047.55-.082.828l-.012.1c-.035.228-.073.459-.118.687,0,.031-.012.063-.016.094v0c-.019.092-.04.176-.056.268-.035.146-.068.294-.108.44-.009.045-.021.082-.031.125s-.021.075-.033.108c-.045.16-.092.32-.143.48s-.1.315-.16.47c-.012.031-.021.056-.031.082a13.068,13.068,0,0,1-2.418,4.045l-3.2-3.2Z" transform="translate(-0.351 -0.709)" fill="#044900"/>
</svg>
