<svg id="Layer_1" data-name="Layer 1" xmlns="http://www.w3.org/2000/svg" viewBox="0 0 90 69.23"><title>ibex-icon-white</title><path id="Path_206" data-name="Path 206" d="M90,29.69v-.32c0-.4,0-.8-.06-1.21s0-.77-.09-1.15c0-.14,0-.28,0-.42s0-.29,0-.43l0-.13c0-.33-.1-.66-.16-1,0-.09,0-.18,0-.28-.06-.37-.13-.74-.22-1.11l0-.16c-.09-.41-.2-.83-.31-1.23a3,3,0,0,0-.12-.4c-.07-.26-.15-.52-.23-.78s-.14-.43-.22-.64-.11-.33-.17-.49-.18-.5-.28-.76a1.8,1.8,0,0,1-.08-.21,1.38,1.38,0,0,0-.08-.17c-.09-.24-.19-.47-.29-.7a1.6,1.6,0,0,1-.1-.23l-.06-.11A30.64,30.64,0,0,0,75,4.14l-.43-.25,0,0a1.28,1.28,0,0,0-.2-.11c-.69-.39-1.41-.75-2.13-1.08l-.45-.21a.13.13,0,0,1-.08,0l-.11,0L70.62,2l-.06,0h0A29,29,0,0,0,65.68.57l-.09,0L64.34.33,63.92.27c-.32-.05-.64-.08-1-.11s-.4,0-.6-.06l-.63,0-.82,0c-.52,0-1,0-1.55,0-.31,0-.62,0-.94,0l-.72,0-.29,0-.4,0c-.24,0-.49,0-.74.08l-.33.05c-.5.06-1,.14-1.49.23l-.27.06-.47.09h0l-.84.19-.11,0-.18,0L52,1.07l-.82.23-.42.13L50,1.69h0l-1.06.41-.48.19c-.35.14-.7.3-1,.45L46.93,3c-.23.11-.47.21-.69.33h0c-.41.22-.83.44-1.23.68-.42-.24-.83-.46-1.25-.68h0c-.23-.12-.47-.22-.7-.33l-.45-.22-1-.45-.48-.19-1.06-.41h0l-.77-.26-.42-.13L38,1.07,37.47.92l-.18,0-.12,0L36.33.66h0L35.84.57,35.56.51c-.49-.09-1-.17-1.49-.23L33.74.23c-.25,0-.49-.06-.74-.08l-.42,0-.29,0-.72,0-.94,0H29.09c-.28,0-.55,0-.82,0l-.65,0L27,.16q-.48,0-1,.12l-.41,0L24.4.55l-.09,0A30.33,30.33,0,0,0,19.45,2h0l-.05,0c-.32.12-.64.24-.95.38l-.12,0-.07,0-.45.2-.55.26c-.54.25-1.06.53-1.58.82l-.21.11,0,0A30.66,30.66,0,0,0,2.66,17.78l-.05.1-.1.23c-.11.23-.2.47-.3.7L2.14,19l-.08.2c-.1.26-.2.51-.29.76s-.11.33-.17.49l-.22.64c-.08.26-.16.52-.23.78l-.12.4c-.11.4-.21.82-.3,1.23l0,.16c-.08.36-.15.73-.22,1.11,0,.1,0,.19,0,.28-.06.34-.11.67-.15,1l0,.12a3,3,0,0,0,0,.43c0,.15,0,.28-.05.42,0,.38-.08.77-.1,1.15S0,29,0,29.37V30.5l0,.76,0,.63.06.83c0,.17,0,.33.05.5l0,.37,0,.16c0,.13,0,.25.06.38s0,.42.09.63.09.55.14.83.1.49.14.73L.79,37c.08.33.17.66.26,1,.05.14.07.28.12.42.15.52.31,1.05.49,1.57.07.17.13.35.19.53s.09.23.13.34A1,1,0,0,1,2,41c.08.17.15.35.22.53l.21.53.1.19c.07.16.14.33.22.49s.23.49.36.74l.23.46c.14.25.26.49.4.73l.26.46c.13.24.27.47.42.7s.18.3.28.45.29.45.44.68l.31.45.47.63.34.46.43.52c.4.5.81,1,1.24,1.45H8l0,0,1.69,1.69h0l.11.1L16,46.06l.47-.46,7.91-7.91-.16-.16-.93-.93-.08-.09c-.17-.18-.33-.36-.48-.55h0a10.31,10.31,0,0,1-1.15-1.84c-.08-.19-.17-.38-.25-.58l-.2-.58h0a9.8,9.8,0,0,1-.37-1.69.28.28,0,0,1,0-.09,3,3,0,0,1,0-.43,2.36,2.36,0,0,1,0-.38c0-.12,0-.24,0-.37v-.14a2.88,2.88,0,0,1,0-.41V29.4a5.23,5.23,0,0,1,.06-.57v0c0-.19.06-.37.09-.55s.09-.41.14-.6a8.41,8.41,0,0,1,.42-1.19v0c.09-.21.19-.42.3-.62s.1-.18.14-.28a5.16,5.16,0,0,1,.4-.63h0c.11-.16.21-.31.33-.46l.06-.08.35-.42a4.27,4.27,0,0,1,.36-.38l.08-.09c.12-.12.25-.24.37-.34l.07-.07.34-.28.15-.12.43-.31.51-.32.48-.26.41-.2.06,0,.44-.18.06,0a3.86,3.86,0,0,1,.48-.16l.51-.15.39-.09.39-.08.77-.1.46,0c.19,0,.38,0,.57,0s.56,0,.83.06h.1c-.13.39-.23.79-.34,1.18h0v0c-.11.39-.21.79-.31,1.19,0,0,0,0,0,.05l-.11.47c0,.12,0,.23-.07.35s-.07.29-.09.45a28.92,28.92,0,0,0-.53,4.91V54.05a.37.37,0,0,0,0,.11,1.16,1.16,0,0,0,.34.74l14,14a1.13,1.13,0,0,0,.84.35h0a1.13,1.13,0,0,0,.85-.35l14-14a1.16,1.16,0,0,0,.34-.74.2.2,0,0,0,0-.11V29.57a29,29,0,0,0-.52-5.09c0-.16-.07-.3-.1-.45l-.06-.34-.11-.48a.07.07,0,0,1,0-.05c-.1-.4-.2-.8-.31-1.19v0h0c-.11-.39-.21-.79-.34-1.17a.17.17,0,0,1,.1,0,7.33,7.33,0,0,1,.83-.07h.57l.46,0c.26,0,.51.06.76.11a2.57,2.57,0,0,1,.4.07l.39.09.51.15a3.71,3.71,0,0,1,.47.16l.07,0,.44.18.06,0,.41.2.47.26a4.45,4.45,0,0,1,.51.33c.15.09.29.2.43.3l.16.12.33.28.08.07.37.34.08.09.36.39c.11.13.24.27.34.41l.06.08c.12.15.23.3.34.46h0a6.65,6.65,0,0,1,.39.63,7.56,7.56,0,0,1,.45.9v0a6.09,6.09,0,0,1,.27.71,2.79,2.79,0,0,1,.14.47,3.7,3.7,0,0,1,.14.55.43.43,0,0,0,0,.05c0,.18.07.37.1.56v0a5.48,5.48,0,0,1,0,.57v.05l0,.42V30c0,.13,0,.24,0,.37s0,.25,0,.38,0,.29,0,.43a.19.19,0,0,1,0,.08A8.78,8.78,0,0,1,68.85,33h0a4,4,0,0,1-.2.58c-.08.2-.16.39-.25.58A9.54,9.54,0,0,1,67.25,36h0c-.15.18-.3.37-.47.54l-.09.1-.93.92-.16.17,8.53,8.51,6.11,6.12.1-.08L82,50.54h0c.43-.48.85-1,1.25-1.46l.43-.51c.11-.16.22-.32.34-.47s.31-.41.46-.63L84.8,47l.45-.67.28-.45c.13-.24.28-.47.42-.71l.26-.46L86.6,44l.24-.47c.12-.24.24-.49.35-.74s.15-.32.22-.48.07-.14.1-.2l.21-.53c.08-.17.14-.35.22-.53A1,1,0,0,1,88,40.9c0-.11.08-.23.12-.35l.19-.53c.18-.51.35-1,.5-1.56,0-.14.07-.28.11-.42.09-.33.18-.66.26-1,0-.17.07-.34.11-.51s0-.13,0-.2c0-.24.1-.48.14-.72s.1-.56.14-.83.07-.43.09-.63.05-.25.07-.38,0-.36,0-.53,0-.34.05-.5,0-.56.06-.83l0-.63,0-.76V30A1.23,1.23,0,0,0,90,29.69ZM47.32,5.42h0l.24-.12,1-.47h0a28.49,28.49,0,0,1,2.83-1.09l.16-.05c.41-.14.83-.24,1.24-.36l.33-.09L54.2,3l.49-.1c.33-.07.66-.12,1-.17s.42-.07.63-.09l.9-.1.73-.07.85,0,.78,0c.43,0,.87,0,1.3,0q1.05,0,2.07.15l.45,0,.65.1c.21,0,.44.06.66.11a4.35,4.35,0,0,1,.52.1c.26,0,.53.1.78.16l.42.1.88.23.32.1c.33.09.66.2,1,.31l.2.06L70,4.31h0l1.21.51c.5.23,1,.47,1.47.73l.52.27.69.4.57.33.15.11.26.16.22.15.81.54a2.78,2.78,0,0,0,.27.21c.37.27.73.54,1.07.82l.08.06c.39.32.77.65,1.14,1,.06.06.11.1.16.16.32.29.63.59.93.89l.18.18a29.42,29.42,0,0,1,2,2.31l0,0a28.67,28.67,0,0,1,1.8,2.6l.21.35.22.37.18.31c.39.69.74,1.41,1.07,2.14h0l.26.63c.06.16.13.32.2.47a26.58,26.58,0,0,1,.9,2.74,1,1,0,0,1,0,.16l0,.12c.08.3.15.6.22.9l0,.17c.07.29.13.6.18.9,0,0,0,.1,0,.15a29,29,0,0,1,.38,3.09c0,.55.06,1.11.06,1.65v.79c0,.35,0,.71,0,1.06l0,.26c0,.32,0,.62-.08.92,0,.14,0,.28,0,.42s-.07.58-.11.87a1.08,1.08,0,0,1,0,.19c-.09.57-.2,1.14-.32,1.7l-.12.51c0,.17-.09.37-.14.55l-.21.78c0,.12-.08.25-.12.38-.1.31-.2.61-.31.92a2,2,0,0,1-.08.22c0,.15-.12.31-.18.47s-.13.36-.2.55l-.3.7-.3.67-.13.26-.35.7a28.13,28.13,0,0,1-1.82,3l-.15.21c-.28.4-.58.79-.87,1.17l-.24.3c-.35.43-.71.86-1.1,1.27h0l-3.64-3.64-1.5-1.5.14-.18a19.82,19.82,0,0,0,4-6.9c.08-.22.15-.45.21-.67s.14-.46.19-.7a1.42,1.42,0,0,0,.07-.22c.16-.64.28-1.3.38-2,0-.28.08-.57.11-.86v-.07a20.1,20.1,0,0,0,.1-2v-.63c0-.29,0-.58,0-.87v0c0-.43-.07-.85-.13-1.28a22.44,22.44,0,0,0-.6-2.82c-.11-.4-.24-.78-.37-1.17h0c-.07-.18-.13-.37-.21-.55h0c-.08-.19-.14-.37-.23-.55h0a1.86,1.86,0,0,0-.1-.25,18.54,18.54,0,0,0-1-1.89h0c-.1-.18-.2-.34-.31-.51L77.09,19h0a20.61,20.61,0,0,0-11.45-8.53l-.59-.16-.38-.09c-.33-.09-.67-.16-1-.22a.9.9,0,0,1-.16,0c-.32-.06-.64-.11-1-.15l-.21,0c-.35,0-.69-.07-1-.09a.06.06,0,0,0-.06,0h0l-.39,0a20.14,20.14,0,0,0-6.37.73c-.41.12-.83.25-1.23.4h0c-.26-.33-.55-.64-.83-1h0c-.06,0-.1-.1-.16-.16L52,9.41l-.61-.62L51,8.44l-.2-.19a28.66,28.66,0,0,0-2.38-2h0c-.36-.28-.72-.54-1.09-.79ZM32.21,53.54V29.74c0-.18,0-.35,0-.53v-.07c0-.15,0-.3,0-.47v-.16l0-.53,0-.46a2.48,2.48,0,0,1,0-.27c0-.14,0-.29,0-.43v-.07c0-.13,0-.26,0-.38s0-.21.05-.32,0-.35.08-.52,0-.2,0-.31,0-.23.07-.35.07-.37.11-.55a2,2,0,0,0,.05-.24c0-.12,0-.24.08-.36s.11-.42.16-.63a.84.84,0,0,1,0-.17c0-.12,0-.23.08-.35v0h0a1.72,1.72,0,0,1,.07-.21c.08-.3.18-.61.27-.91a.08.08,0,0,1,0,0h0l.33.15,0,0a1.76,1.76,0,0,1,.37.17,3.47,3.47,0,0,1,.37.21l.11.05.39.25.16.11c.19.12.37.26.55.4l.39.33.36.34c.12.11.23.24.35.36a8.06,8.06,0,0,1,.52.64c.08.09.14.19.21.28s.28.4.4.61.24.43.35.66l0,0a9.62,9.62,0,0,1,.94,3.65V50.89a1.15,1.15,0,0,0,.35.84l.2.21,2.21,2.21.23.23h0l.69.69.15.15h0l-4.7,4.71L32.8,54.15Zm7.11-42c.2-.23.41-.45.64-.68s.41-.42.63-.62L41,9.81l.65-.57c.11-.11.24-.21.36-.32s.48-.4.73-.59l.29-.23.83-.62c.35-.25.71-.5,1.07-.73h0c.37.23.73.48,1.08.73l.83.62.28.22c.25.2.49.39.73.6l.37.32c.21.19.43.37.64.57l.45.45c.22.2.43.41.63.62s.44.45.64.68a1.9,1.9,0,0,1,.19.21h0l-.21.11-.69.37-.37.22-.57.34a2.11,2.11,0,0,1-.22.14l-.16.11a2.64,2.64,0,0,0-.35.23l-.21.15-.29.2-.12.1a.22.22,0,0,0-.09.07l-.2.15-.62.5c-.24.19-.47.41-.7.61l-.22.21,0,0-.37.35s-.11.12-.17.17l-.29.32-.29-.32c0-.05-.11-.12-.17-.17l-.36-.35,0,0-.22-.21-.7-.61-.63-.5-.19-.15-.09-.07-.13-.1-.29-.2-.21-.15a2.54,2.54,0,0,0-.34-.23L41.16,13c-.08,0-.14-.1-.22-.14l-.57-.34L40,12.25l-.69-.37-.21-.11h0C39.19,11.7,39.25,11.62,39.32,11.56Zm16.23,7.58h0c-.16.07-.32.12-.47.2l-.39.18-.13.07-.39.2-.72.44h0l-.31.23-.43.32A11.88,11.88,0,0,0,50.51,23v0a11.62,11.62,0,0,0-.84,1.27v0a.09.09,0,0,0,0,0c-.08-.25-.16-.51-.25-.76a.16.16,0,0,0,0-.09c-.07-.21-.15-.43-.24-.64s-.16-.41-.25-.6-.19-.45-.29-.66L48.39,21c-.13-.27-.28-.52-.41-.78q-.46-.82-1-1.59c-.14-.22-.29-.43-.44-.63h0l.12-.13.42-.44.32-.31a17.75,17.75,0,0,1,1.82-1.53l0,0c.33-.23.66-.46,1-.67h0c.34-.22.7-.43,1.06-.62h0l.4-.21c.22-.12.45-.22.68-.33h0a2.11,2.11,0,0,1,.21.31l.37.51.11.18A26.26,26.26,0,0,1,55,18.07c.13.27.26.54.38.82A2,2,0,0,1,55.55,19.14ZM41.87,30.4h0V29.2c0-.31,0-.64.07-.94s0-.32.06-.49.09-.62.15-.94l.09-.47.11-.52v0a2.86,2.86,0,0,1,.07-.28,18.76,18.76,0,0,1,1.15-3.17c.12-.25.24-.5.38-.74s.17-.34.26-.5.14-.25.22-.37c.17-.29.36-.58.55-.86h0c.19.28.38.57.56.86.07.12.15.24.21.37l.28.5c.13.24.25.49.37.74a18.76,18.76,0,0,1,1.15,3.17,2.29,2.29,0,0,1,.07.28v0l.11.52c0,.15.07.32.1.47.05.32.11.63.15.94s0,.33.05.49,0,.63.07.94V50.39L45,53.52l-3.13-3.13V30.6A.67.67,0,0,0,41.87,30.4Zm-7.3-11.52c.11-.28.25-.55.38-.81a25.17,25.17,0,0,1,1.93-3.38s.07-.11.12-.17.24-.35.36-.52a2.32,2.32,0,0,1,.22-.3h0c.22.1.45.21.67.33l.41.21h0c.36.19.71.4,1.06.62h0c.34.21.67.44,1,.67l0,0a17.75,17.75,0,0,1,1.82,1.53l.31.31.43.43.12.13h0L43,18.6c-.35.51-.68,1-1,1.6-.14.26-.28.51-.41.77s-.13.3-.21.45a5.37,5.37,0,0,0-.29.65,4.6,4.6,0,0,0-.25.61c-.07.2-.17.42-.24.64a.14.14,0,0,0,0,.09c-.09.25-.18.5-.25.76a.09.09,0,0,0,0,0v0A12.21,12.21,0,0,0,39.46,23v0a11.52,11.52,0,0,0-2.15-2.15l-.43-.32-.32-.23h0c-.24-.15-.48-.3-.73-.44l-.38-.21-.14-.06-.39-.19-.46-.19h0c0-.09.09-.18.13-.26Zm5.71,42.74L45,56.91h0l4.71,4.71h0L45,66.32l-4.71-4.7ZM51.4,59.93l-4.71-4.71h0l.16-.16.69-.68.23-.23L50,52l.2-.21a1.17,1.17,0,0,0,.36-.84V29.65A9.42,9.42,0,0,1,51.46,26l0,0c.11-.23.23-.45.35-.67s.26-.41.4-.6.14-.19.21-.29a8,8,0,0,1,.53-.63c.11-.12.22-.25.34-.37l.36-.34.39-.33.55-.4.17-.11.38-.24.1-.06.38-.2a2.53,2.53,0,0,1,.37-.18l.05,0,.33-.15h0s0,0,0,.05c.09.3.19.6.28.91a1.17,1.17,0,0,1,0,.2h0v0l.1.34a.85.85,0,0,0,0,.17c0,.22.11.42.16.63s.05.25.08.37a1.89,1.89,0,0,0,0,.23c0,.19.07.38.11.56s0,.23.07.35,0,.2,0,.3.07.35.09.52,0,.22,0,.33a3.71,3.71,0,0,1,0,.38v.06c0,.14,0,.3.05.44l0,.26,0,.46,0,.54v.16c0,.16,0,.32,0,.47v.07c0,.18,0,.36,0,.54v23.8l-.61.61Zm-49-31.66a26.62,26.62,0,0,1,.39-3.09l0-.15c.05-.3.11-.61.18-.9l0-.17c.07-.3.14-.6.22-.9l0-.12a26.39,26.39,0,0,1,1-2.89,4.78,4.78,0,0,0,.19-.48c.1-.21.18-.42.28-.63h0c.33-.73.68-1.45,1.07-2.14L6,16.5a3.72,3.72,0,0,1,.22-.38l.21-.35C7,14.88,7.59,14,8.23,13.17l0,0a29.28,29.28,0,0,1,2-2.3l.18-.18c.3-.3.62-.59.93-.89l.16-.15c.37-.34.76-.67,1.14-1l.08-.06c.35-.28.7-.56,1.07-.82l.27-.21,1-.69.26-.17.16-.1.56-.34c.23-.14.46-.27.7-.39a2.69,2.69,0,0,1,.29-.16l.23-.13c.48-.25,1-.5,1.47-.72s.8-.35,1.21-.51h0c.38-.15.76-.3,1.14-.43l.2-.06c.33-.12.66-.22,1-.31l.32-.1.88-.23.42-.1c.25-.07.52-.12.78-.17l.52-.1.66-.11.65-.09L27,2.57c.68-.08,1.37-.14,2.07-.16h1.3c.27,0,.52,0,.78,0l.85,0,.73.07c.3,0,.61,0,.91.1l.62.09,1,.16.49.11c.38.07.75.16,1.11.25l.34.09c.41.11.83.22,1.23.36l.17,0a28.31,28.31,0,0,1,2.82,1.09h0l1,.47.24.12h0c-.37.26-.73.52-1.09.8h0a27,27,0,0,0-2.37,2L39,8.46l-.36.35c-.21.2-.42.41-.61.62s-.16.19-.25.28l-.15.16h0c-.29.31-.57.63-.83,1h0c-.4-.15-.81-.28-1.23-.4a20.14,20.14,0,0,0-6.37-.73h-.48l-1,.1-.21,0c-.33,0-.65.09-1,.15l-.16,0c-.33.06-.67.13-1,.22l-.38.09-.59.16A20.5,20.5,0,0,0,13,19h0c-.11.17-.22.33-.32.51s-.21.33-.3.51h0a16.76,16.76,0,0,0-1,1.89,2.44,2.44,0,0,0-.1.24h0c-.08.18-.15.37-.23.56h0c-.07.18-.13.37-.2.55h0a19.53,19.53,0,0,0-1,4c-.06.42-.11.85-.14,1.28v0c0,.29,0,.58,0,.87v.63a20.1,20.1,0,0,0,.1,2.05v.07c0,.29.07.57.11.86.1.66.22,1.32.38,2l.06.22c.06.24.12.47.2.7s.13.45.2.67a20.09,20.09,0,0,0,4,6.9l.14.18L9.68,48.82h0c-.38-.42-.74-.84-1.1-1.27l-.23-.3c-.3-.38-.6-.77-.88-1.17l-.15-.21a28.13,28.13,0,0,1-1.82-3c-.12-.23-.24-.46-.35-.7L5,41.88c-.1-.22-.2-.45-.29-.67s-.21-.47-.3-.7-.14-.37-.21-.55S4,39.5,4,39.27s-.21-.61-.31-.92c0-.13-.07-.26-.12-.38l-.21-.78a3.38,3.38,0,0,1-.08-.34l-.06-.21-.12-.51c-.12-.56-.23-1.13-.32-1.7a1.48,1.48,0,0,0,0-.19c0-.29-.08-.58-.11-.87s0-.28,0-.41c0-.31-.06-.61-.08-.93l0-.26c0-.35,0-.71,0-1.06v-.79C2.39,29.38,2.41,28.83,2.44,28.27Zm18.09-5.08a11.61,11.61,0,0,0-2.23,6.74v.17c0,.12,0,.23,0,.36a1.56,1.56,0,0,0,0,.31h0v0c0,.36.06.72.11,1.08l0,.12a11.19,11.19,0,0,0,.24,1.12v0h0l0,.12c.05.15.1.31.14.46a1.34,1.34,0,0,1,.07.18c0,.12.08.22.12.34l0,.06c0,.11.09.22.14.33s.13.34.21.5l.34.65a1.86,1.86,0,0,1,.1.2,12.9,12.9,0,0,0,.94,1.38l.14.18h0L16.52,42a18.14,18.14,0,0,1-3.35-5.6.56.56,0,0,0,0-.12c-.08-.21-.15-.43-.22-.65s-.14-.44-.2-.66c0,0,0-.1-.05-.15a.85.85,0,0,1,0-.17L12.47,34c0-.13-.05-.25-.07-.37h0a.5.5,0,0,0,0-.13c-.06-.32-.11-.64-.16-1l0-.13c0-.39-.09-.77-.11-1.15h0c0-.2,0-.4,0-.59V30c0-.32,0-.64,0-.95,0-.14,0-.28,0-.4s0-.42.07-.63,0-.4.07-.6.05-.3.08-.46.1-.54.16-.81l.06-.24c.08-.34.17-.69.28-1v0a18.18,18.18,0,0,1,5.44-8.33,18,18,0,0,1,7.69-4l.4-.08c.26-.06.52-.11.79-.15a5.25,5.25,0,0,1,.55-.09l.67-.07.57-.05h.2l.83,0h.36c.37,0,.75,0,1.11,0l.09,0a11.82,11.82,0,0,1,1.18.13h.06c.41.06.82.14,1.23.22l1.08.28.18.05c-.15.22-.31.44-.46.67s-.16.25-.24.38h0l0,.06c-.2.31-.4.61-.58.92s-.5.86-.72,1.3l-.09.15c-.11.23-.23.46-.35.7s-.23.49-.34.74-.21.49-.32.74h0l0,0a9.84,9.84,0,0,0-1.23-.14l0,0c-.28,0-.54,0-.82,0a11.7,11.7,0,0,0-8.33,3.44,12,12,0,0,0-1.23,1.44ZM69,37.55l.14-.18A12.9,12.9,0,0,0,70.12,36a1.86,1.86,0,0,1,.1-.2c.12-.21.23-.42.34-.65s.14-.34.21-.5.1-.22.14-.33l0-.06.12-.34.06-.17c0-.16.1-.32.14-.47a.56.56,0,0,0,0-.12h0v0A10.62,10.62,0,0,0,71.53,32l0-.12c0-.36.09-.72.11-1.08v0h0c0-.11,0-.21,0-.31s0-.24,0-.36v-.24a11.77,11.77,0,0,0-.54-3.33,9.6,9.6,0,0,0-.48-1.26c-.11-.26-.24-.52-.38-.78A11.84,11.84,0,0,0,59.9,18.3a7.13,7.13,0,0,0-.81,0v0a10.29,10.29,0,0,0-1.23.14v0h0c-.1-.25-.21-.5-.32-.74s-.23-.5-.35-.74l-.34-.7-.09-.16q-.33-.64-.72-1.29c-.18-.31-.38-.61-.58-.92l0-.06h0c-.08-.13-.15-.26-.24-.39l-.46-.67.18,0c.36-.11.72-.2,1.08-.28s.82-.16,1.23-.22l.06,0c.39-.05.79-.1,1.18-.13h.09l1.11,0H60l.83,0H61l.57.05.67.07.55.08.78.15.4.09A18.25,18.25,0,0,1,77.15,24.82v0a1,1,0,0,1,0,.16c.09.29.16.58.23.87l.06.24c.06.27.11.54.16.81s.06.3.08.46,0,.4.08.6,0,.42.06.62l0,.4c0,.32,0,.63,0,.95v.71q0,.3,0,.6h0c0,.38-.06.76-.11,1.14l0,.14c0,.32-.1.64-.16,1,0,0,0,.09,0,.13h0c0,.13-.06.25-.08.37l-.15.61c0,.07,0,.12,0,.18s0,.1,0,.15c-.06.22-.13.44-.2.66s-.14.44-.22.65a.76.76,0,0,0,0,.11A17.91,17.91,0,0,1,73.46,42L69,37.53Z" style="fill:#fff"/></svg>