<svg id="Layer_1" data-name="Layer 1" xmlns="http://www.w3.org/2000/svg" viewBox="0 0 218.59 70.18"><title>ibex-logo-white</title><path id="Path_206" data-name="Path 206" d="M91.23,30.09v-.32c0-.41,0-.81-.06-1.22s0-.79-.1-1.18c0-.13,0-.27,0-.42s0-.29-.06-.44l0-.13c0-.33-.09-.66-.15-1,0-.1,0-.2,0-.29-.07-.38-.14-.75-.23-1.13l0-.16c-.1-.42-.2-.84-.31-1.25l-.12-.4c-.08-.26-.15-.53-.24-.79s-.14-.43-.22-.65-.11-.34-.17-.5-.19-.51-.29-.76c0-.08-.06-.15-.08-.22s-.06-.12-.08-.18l-.3-.7a1.6,1.6,0,0,0-.1-.23L88.52,18A31,31,0,0,0,76.05,4.2l-.44-.26,0,0-.21-.11c-.7-.39-1.42-.76-2.16-1.1l-.45-.2-.08,0-.12,0c-.31-.14-.63-.27-1-.39l-.07,0h0A30.1,30.1,0,0,0,66.58.58l-.09,0L65.22.33l-.43,0c-.32-.05-.65-.09-1-.12s-.4,0-.6-.06l-.65,0-.83,0c-.53,0-1.05,0-1.56,0-.32,0-.64,0-1,0l-.73,0-.29,0-.41,0L57,.23l-.33.05c-.52.07-1,.14-1.51.24l-.28,0-.47.1h0l-.86.19-.11,0-.18,0-.57.16-.83.23-.43.13c-.26.09-.52.17-.77.27h0c-.36.12-.72.27-1.07.41l-.49.19c-.35.14-.71.3-1.06.46L47.57,3l-.7.34h0c-.42.22-.85.44-1.26.68-.42-.24-.84-.46-1.26-.68h0L43.68,3l-.46-.22c-.35-.16-.7-.32-1.06-.46l-.49-.19c-.36-.14-.71-.28-1.08-.41h0c-.25-.1-.51-.18-.77-.27l-.43-.13-.83-.23L38,.93l-.18,0-.12,0L36.83.67h0l-.47-.1-.28,0c-.5-.09-1-.17-1.51-.24L34.2.23,33.45.15,33,.11l-.29,0L32,.05l-.95,0H29.49c-.28,0-.56,0-.84,0s-.43,0-.65.05l-.6.05c-.33,0-.65.07-1,.12L26,.34c-.43.06-.85.14-1.27.22l-.1,0A30.07,30.07,0,0,0,19.72,2h0l-.06,0c-.32.13-.64.25-1,.39l-.12.05-.07,0L18,2.71,17.47,3c-.55.26-1.08.54-1.61.83l-.21.11,0,0A31.06,31.06,0,0,0,2.7,18l-.05.11-.11.23-.3.7-.07.18c0,.06,0,.14-.08.22-.1.25-.2.51-.29.76s-.12.34-.18.5-.15.43-.22.65-.16.53-.23.79a3,3,0,0,0-.12.4c-.11.41-.22.83-.31,1.26L.7,24c-.08.37-.16.75-.22,1.13a2.93,2.93,0,0,0,0,.29c-.06.34-.12.67-.16,1l0,.12c0,.14,0,.29,0,.44s0,.28-.05.42c0,.39-.07.79-.1,1.18s0,.81,0,1.22v1.15l0,.77,0,.64.06.84c0,.17,0,.33.05.51l0,.36,0,.17.06.39c0,.21.06.43.1.64s.08.56.14.84.09.49.14.73.1.48.16.72.17.68.26,1c0,.14.07.28.11.42q.23.81.51,1.59c.06.18.12.36.19.54a2.09,2.09,0,0,0,.13.35l.06.16c.08.17.15.35.22.53s.14.36.22.54l.1.2c.07.16.14.33.22.49s.24.51.36.75l.24.47.4.74.26.46c.14.25.28.48.43.72L4.8,47c.14.23.3.46.46.69l.31.45c.15.22.31.43.47.64l.34.47.44.53c.4.5.83,1,1.26,1.47h0l0,0,1.72,1.71h0l.11.11,6.34-6.35.47-.47,8-8L24.56,38l-.94-.94-.09-.1c-.17-.17-.32-.36-.48-.55h0a9.92,9.92,0,0,1-1.16-1.87,6,6,0,0,1-.25-.58c-.08-.21-.14-.39-.21-.59h0a10.05,10.05,0,0,1-.38-1.71s0-.06,0-.09a3.15,3.15,0,0,1,0-.44c0-.12,0-.25,0-.38s0-.25,0-.38a.33.33,0,0,1,0-.14,3,3,0,0,1,0-.42,0,0,0,0,1,0-.05c0-.2,0-.39.05-.58v0c0-.18.06-.38.1-.56s.08-.41.14-.61a8,8,0,0,1,.42-1.19v0a6.14,6.14,0,0,1,.31-.63c0-.09.09-.18.14-.28s.26-.43.4-.64h0c.11-.16.22-.32.34-.47l.06-.08.35-.42a4.59,4.59,0,0,1,.37-.39l.08-.09.38-.35.07-.07.34-.28.16-.12.43-.31a5.69,5.69,0,0,1,.52-.33l.48-.26a3.23,3.23,0,0,1,.42-.2l.05,0,.45-.18.07,0a3.38,3.38,0,0,1,.48-.16l.52-.15c.13,0,.26-.07.39-.09a2.83,2.83,0,0,1,.4-.08,6.93,6.93,0,0,1,.78-.1l.46,0c.2,0,.4,0,.59,0a7.93,7.93,0,0,1,.84.07h.1c-.14.39-.24.79-.35,1.19h0v0c-.11.4-.22.8-.31,1.2,0,0,0,0,0,.06l-.11.48c0,.11-.05.23-.07.34s-.07.3-.1.46a29.85,29.85,0,0,0-.53,5v25a.37.37,0,0,0,0,.11,1.18,1.18,0,0,0,.34.75L44.76,69.82a1.18,1.18,0,0,0,.85.36h0a1.18,1.18,0,0,0,.85-.36L60.64,55.65A1.14,1.14,0,0,0,61,54.9a.36.36,0,0,0,0-.11V30a29.93,29.93,0,0,0-.54-5.17c0-.15-.06-.3-.09-.45s0-.24-.07-.35l-.11-.48a.13.13,0,0,1,0-.06c-.1-.4-.2-.8-.31-1.2v0h0c-.11-.4-.22-.8-.35-1.19h.1c.28,0,.55,0,.84-.07A5.52,5.52,0,0,1,61,21l.47,0a6.76,6.76,0,0,1,.77.1,2.57,2.57,0,0,1,.4.08l.4.09.52.15a4.5,4.5,0,0,1,.48.16l.06,0,.45.19.06,0a4,4,0,0,1,.42.2l.48.26a4.45,4.45,0,0,1,.51.33l.44.31.16.13.34.28a.46.46,0,0,1,.07.07c.13.1.25.22.38.34l.08.09a3.33,3.33,0,0,1,.36.39c.12.14.25.28.35.42l.06.08c.12.15.23.31.34.47h0a6.18,6.18,0,0,1,.4.64,7,7,0,0,1,.46.91v0c.1.24.19.48.27.73a2.54,2.54,0,0,1,.14.47,3.53,3.53,0,0,1,.14.56.07.07,0,0,1,0,.05,5,5,0,0,1,.1.56v0a5.51,5.51,0,0,1,.06.57v.06l0,.42v.14c0,.13,0,.25,0,.37s0,.26,0,.39a3.42,3.42,0,0,1,0,.44.25.25,0,0,1,0,.08,9,9,0,0,1-.38,1.71h0a4.1,4.1,0,0,1-.2.59,6.21,6.21,0,0,1-.26.59,9.26,9.26,0,0,1-1.16,1.87h0c-.15.19-.31.37-.48.55l-.09.1-.94.94-.16.16,8.64,8.64,6.2,6.2.1-.09,1.71-1.71,0,0h0c.44-.48.86-1,1.27-1.48l.43-.52c.12-.16.23-.32.35-.47l.47-.64.31-.46c.16-.22.31-.45.45-.68s.19-.3.28-.46l.43-.71a4.31,4.31,0,0,0,.26-.47c.14-.24.27-.48.4-.73l.25-.47c.12-.25.24-.5.35-.75s.16-.33.23-.49.07-.14.09-.2.14-.37.22-.54.14-.36.22-.53a.77.77,0,0,1,.07-.16c0-.12.09-.23.12-.35l.2-.54c.18-.52.35-1.06.5-1.59,0-.14.07-.28.11-.42.1-.34.19-.67.27-1,0-.18.07-.35.11-.52s0-.13,0-.2c0-.24.11-.49.14-.74s.1-.56.14-.84.07-.43.1-.64l.06-.38c0-.18,0-.36,0-.54s0-.34,0-.51.05-.56.06-.84l0-.64,0-.76v-.59A1.14,1.14,0,0,0,91.23,30.09ZM48,5.5h0a1.34,1.34,0,0,1,.24-.12c.33-.17.66-.32,1-.48h0a29.15,29.15,0,0,1,2.86-1.11l.17,0c.41-.14.83-.25,1.25-.36l.34-.1L54.94,3l.49-.1c.34-.07.68-.12,1-.17l.63-.09c.31,0,.62-.08.92-.11s.49-.05.74-.06l.87,0,.78,0h1.33c.7,0,1.4.08,2.09.16l.46,0,.65.1.68.11.52.11c.27,0,.54.1.8.16l.42.1.89.24.32.1c.34.09.67.2,1,.31l.2.07,1.15.43h0c.42.16.82.34,1.23.52s1,.47,1.49.73l.53.28.7.4.58.34s.1.07.15.11l.27.16.22.16c.28.18.54.36.81.55l.28.21c.37.27.74.54,1.09.83l.08.06c.39.32.78.65,1.15,1l.17.16.94.9.18.19c.73.75,1.41,1.53,2.06,2.34,0,0,0,0,0,0A31.71,31.71,0,0,1,84.71,16c.08.11.14.23.22.35s.15.25.22.38.11.2.18.31c.39.7.75,1.43,1.08,2.17h0l.27.64c.06.16.13.32.2.48a26.43,26.43,0,0,1,.92,2.77c0,.06,0,.11,0,.16l0,.13c.08.3.16.6.23.9l0,.18c.08.3.14.61.19.91l0,.15a27.48,27.48,0,0,1,.39,3.14c0,.56,0,1.12,0,1.67v.8c0,.35,0,.72,0,1.08v.26c0,.32,0,.63-.08.93,0,.14,0,.29,0,.43s-.07.59-.12.88a1.25,1.25,0,0,1,0,.19c-.08.58-.2,1.15-.32,1.72,0,.18-.08.35-.12.52s-.09.37-.14.55-.15.53-.22.8c0,.12-.08.25-.12.38-.1.31-.2.62-.31.93a2.18,2.18,0,0,1-.09.23c0,.16-.11.31-.17.48s-.14.36-.21.56-.21.46-.31.7l-.3.68-.13.27c-.11.23-.23.46-.36.7a26.52,26.52,0,0,1-1.84,3.07l-.15.21c-.28.4-.59.8-.89,1.19l-.23.3c-.37.43-.73.87-1.12,1.29h0l-3.7-3.7-1.51-1.52c0-.06.1-.11.14-.17a20.4,20.4,0,0,0,4-7c.07-.23.15-.45.21-.68s.14-.47.19-.7a2,2,0,0,0,.07-.23c.16-.65.29-1.32.39-2,0-.28.07-.58.1-.87v-.07a20.7,20.7,0,0,0,.11-2.08v-.64c0-.3,0-.59,0-.88v0c0-.44-.08-.87-.14-1.3a19.94,19.94,0,0,0-.61-2.86c-.11-.4-.23-.79-.37-1.18h0c-.07-.18-.13-.37-.21-.56h0c-.08-.19-.14-.38-.23-.56h0a1.89,1.89,0,0,0-.11-.25,17.19,17.19,0,0,0-1-1.92h0c-.1-.18-.2-.34-.31-.52l-.32-.51h0a20.85,20.85,0,0,0-11.6-8.64l-.6-.17-.39-.09c-.33-.09-.67-.16-1-.23l-.16,0c-.33-.06-.65-.11-1-.15l-.22,0c-.35,0-.7-.07-1.06-.09H62l-.39,0a21,21,0,0,0-6.46.74c-.42.13-.84.26-1.25.41v0h0c-.27-.33-.56-.65-.84-1h0l-.16-.17a3.48,3.48,0,0,1-.24-.28l-.62-.63-.36-.35-.21-.2a27.74,27.74,0,0,0-2.41-2h0q-.54-.42-1.11-.81ZM32.65,54.28V30.15c0-.18,0-.36,0-.54v-.07c0-.16,0-.31,0-.48V28.9l0-.54,0-.47,0-.26c0-.14,0-.3.05-.45v-.06c0-.13,0-.26,0-.39s0-.22,0-.33.05-.35.08-.52a2.87,2.87,0,0,1,0-.31c0-.11,0-.24.06-.36l.12-.56c0-.08,0-.16,0-.24s.05-.25.08-.37.11-.42.17-.63a1.16,1.16,0,0,1,0-.18l.09-.35v0h0l.06-.2c.09-.31.19-.62.28-.92,0,0,0,0,0-.05h0l.34.15,0,0a2.64,2.64,0,0,1,.38.18,3.59,3.59,0,0,1,.38.21l.11.06c.14.07.26.16.39.24l.17.11c.19.13.37.27.55.41l.39.33.37.35a4.12,4.12,0,0,1,.35.37,8.3,8.3,0,0,1,.54.64l.21.29c.14.2.28.41.4.61s.25.44.36.68v0a9.48,9.48,0,0,1,1,3.69V51.59a1.21,1.21,0,0,0,.35.85l.21.21,2.23,2.24.24.23h0l.7.7.16.16h0l-4.78,4.77-5.86-5.86Zm7.21-42.56c.2-.23.42-.46.64-.69s.42-.43.65-.63.3-.31.46-.45.43-.4.64-.58.25-.22.38-.33.48-.41.73-.6l.29-.23.85-.63c.36-.25.72-.5,1.09-.74h0c.37.24.73.49,1.09.74s.57.43.84.63l.29.22.73.61c.13.11.26.21.38.33s.43.38.64.58.31.29.47.45l.64.63.65.69.19.21h0l-.22.11-.7.37c-.12.08-.25.14-.37.23l-.58.34c-.08,0-.14.1-.22.14l-.17.12a2.64,2.64,0,0,0-.35.23l-.21.15c-.1.06-.2.14-.3.21l-.12.1a.31.31,0,0,0-.09.07l-.2.15a7.79,7.79,0,0,0-.63.51c-.25.19-.48.41-.71.62s-.15.14-.23.21l0,0c-.12.12-.25.23-.36.35l-.18.18c-.1.1-.2.21-.29.32l-.3-.32-.17-.18-.37-.35,0,0-.22-.21-.71-.62c-.21-.18-.43-.35-.63-.51L43,14l-.09-.07-.13-.1-.3-.21-.21-.15a2.64,2.64,0,0,0-.35-.23l-.17-.12c-.08,0-.14-.1-.22-.14l-.58-.34-.37-.23-.7-.37-.22-.11h0C39.72,11.86,39.79,11.78,39.86,11.72ZM56.3,19.4h0l-.46.2-.4.19-.14.07c-.14.06-.26.14-.39.2l-.73.44h0l0,0-.32.23c-.14.1-.29.21-.43.33a11.59,11.59,0,0,0-2.19,2.18v0a10.93,10.93,0,0,0-.85,1.28v0a.43.43,0,0,1,0-.05c-.08-.26-.17-.51-.26-.77a.16.16,0,0,0,0-.09c-.07-.22-.15-.44-.24-.65s-.16-.41-.25-.61-.19-.45-.3-.67l-.21-.45c-.13-.26-.28-.52-.42-.78a19,19,0,0,0-1-1.62c-.14-.22-.29-.43-.45-.64h0a1.59,1.59,0,0,1,.13-.13c.14-.15.28-.3.43-.44l.32-.32a18.17,18.17,0,0,1,1.84-1.55l.05,0c.33-.23.66-.46,1-.68h0c.35-.22.71-.43,1.07-.62h0l.41-.21a6.16,6.16,0,0,1,.68-.34h0a1.73,1.73,0,0,1,.22.31c.13.17.26.35.37.52l.12.18a26.3,26.3,0,0,1,2,3.42c.14.27.26.55.39.82A1.23,1.23,0,0,1,56.3,19.4ZM42.44,30.82v-.48a.54.54,0,0,0,0-.18v-.25a.09.09,0,0,0,0-.07,0,0,0,0,0,0-.05V29.6c0-.32,0-.65.08-1s0-.32,0-.49.09-.63.15-.95c0-.16.06-.32.1-.48l.11-.53v0a2.86,2.86,0,0,1,.07-.28,18.9,18.9,0,0,1,1.16-3.21c.13-.26.25-.51.39-.76s.17-.34.27-.5l.21-.38c.18-.29.37-.58.57-.86v0c.19.28.38.57.56.86.08.12.15.25.22.38l.28.5c.13.25.26.5.37.76a18.4,18.4,0,0,1,1.17,3.21,2.86,2.86,0,0,1,.07.28v0l.11.53c0,.16.07.32.1.48.06.32.12.63.15.95l.06.49c0,.31.05.64.07,1v.19a0,0,0,0,0,0,.05.11.11,0,0,0,0,.08v.3a.2.2,0,0,0,0,.11.49.49,0,0,0,0,.17v.3h0a.74.74,0,0,0,0,.21V51.08l-3.15,3.17-3.17-3.17V31A.67.67,0,0,0,42.44,30.82ZM35,19.14c.12-.28.25-.55.38-.83a26.18,26.18,0,0,1,2-3.41l.12-.19.37-.52a3.46,3.46,0,0,1,.22-.31h0l.69.34c.14.07.28.14.41.22h0c.36.19.72.4,1.07.62h0c.35.22.68.45,1,.68l0,0a18,18,0,0,1,1.84,1.55c.11.1.22.21.32.32s.29.29.43.44l.13.13h0c-.15.21-.31.42-.45.64-.36.52-.69,1.06-1,1.61-.14.26-.28.52-.41.79l-.21.45c-.11.22-.21.44-.3.67a4.11,4.11,0,0,0-.25.61c-.08.2-.17.43-.25.65a.13.13,0,0,0,0,.09c-.1.26-.18.51-.26.77a.09.09,0,0,0,0,.05v0A11.12,11.12,0,0,0,40,23.29v0a11.9,11.9,0,0,0-2.18-2.19l-.44-.32-.32-.24h0c-.23-.15-.48-.3-.73-.44l-.38-.21-.14-.06-.4-.19-.47-.2h0l.13-.26Zm5.79,43.32,4.77-4.77h0l4.78,4.77h0L45.6,67.23l-4.77-4.77ZM52.1,60.74,47.33,56h0l.16-.16.7-.69.23-.23,2.23-2.23.21-.21a1.22,1.22,0,0,0,.36-.86V30.06a9.34,9.34,0,0,1,1-3.7l0,0a7.06,7.06,0,0,1,.35-.67c.13-.21.26-.42.4-.61l.21-.29c.18-.23.35-.44.54-.65l.35-.37.37-.34.39-.34c.19-.14.37-.28.55-.4l.17-.12.39-.24.11-.06.38-.2a2.69,2.69,0,0,1,.38-.19l0,0,.34-.15h0s0,0,0,0c.09.3.19.61.28.92l.06.21h0v0l.09.34c0,.06,0,.12.05.18s.11.42.16.64.05.24.08.37,0,.15.05.23.08.38.11.56,0,.24.07.36a2,2,0,0,1,0,.31c0,.18.06.35.08.53s0,.22,0,.33,0,.25,0,.38v.07c0,.14,0,.3.05.44l0,.27,0,.46,0,.54v.17c0,.17,0,.32,0,.48v.07c0,.18,0,.36,0,.55V54.28l-.62.61ZM2.48,28.66a27.76,27.76,0,0,1,.39-3.14l0-.15c.05-.3.11-.61.19-.91l0-.17c.07-.31.14-.61.23-.91l0-.12a27.33,27.33,0,0,1,1-2.94c.07-.16.14-.32.2-.48s.18-.43.28-.64h0c.33-.74.69-1.47,1.08-2.17l.18-.31.22-.38c.09-.13.14-.23.21-.35a31.71,31.71,0,0,1,1.82-2.64l0,0a30.09,30.09,0,0,1,2-2.33l.19-.18c.3-.31.62-.61.94-.9l.16-.16c.37-.34.76-.68,1.16-1l.07-.06c.35-.28.72-.56,1.09-.83l.28-.21c.33-.24.68-.47,1-.7l.26-.17.16-.11.57-.33c.24-.14.47-.28.71-.4l.29-.17.23-.12c.5-.26,1-.51,1.5-.73s.81-.36,1.22-.52h0c.39-.16.77-.3,1.16-.44l.2-.06c.33-.12.67-.22,1-.32L23,3.47c.29-.09.59-.16.89-.24l.42-.1L25.1,3l.53-.1.67-.11.65-.1.46,0a20.74,20.74,0,0,1,2.1-.16c.44,0,.88,0,1.32,0,.27,0,.53,0,.79,0l.86,0,.73.07.93.1c.21,0,.42.06.63.1l1,.16.49.11c.38.07.76.16,1.13.25a3.37,3.37,0,0,0,.34.09c.42.12.84.23,1.24.37l.17,0A29.33,29.33,0,0,1,42,4.91h0l1,.47.24.12h0l0,0c-.38.26-.75.52-1.11.8h0a27.72,27.72,0,0,0-2.4,2.06l-.2.2-.36.35c-.22.21-.43.42-.62.63s-.17.19-.25.28l-.16.17h0q-.44.47-.84,1h0v0c-.42-.15-.83-.28-1.25-.41a21,21,0,0,0-6.46-.74l-.39,0h-.1c-.35,0-.71.05-1.06.09l-.21,0c-.34,0-.66.09-1,.15l-.16,0c-.34.07-.67.14-1,.23l-.38.09-.61.17A20.67,20.67,0,0,0,18,14a21,21,0,0,0-4.86,5.22h0l-.32.51c-.1.18-.21.34-.31.52h0a19.1,19.1,0,0,0-1,1.92,1.89,1.89,0,0,0-.11.25h0c-.08.18-.15.37-.22.56h0c-.08.19-.14.37-.22.56h0a20.71,20.71,0,0,0-1,4c-.06.43-.11.86-.14,1.3v0c0,.29,0,.58,0,.88v.64a18.12,18.12,0,0,0,.11,2.08v.07c0,.29.07.58.1.87a18.94,18.94,0,0,0,.4,2,1.42,1.42,0,0,0,.05.22c.06.24.13.48.2.71s.13.45.21.68a20.4,20.4,0,0,0,4,7c.05.06.09.12.14.17L9.81,49.49h0c-.39-.42-.75-.86-1.12-1.29l-.23-.3c-.3-.39-.6-.79-.88-1.19l-.16-.21a26.52,26.52,0,0,1-1.84-3.07c-.13-.23-.25-.46-.36-.7l-.13-.27-.3-.68c-.1-.23-.21-.47-.3-.7s-.14-.38-.22-.56S4.08,40,4,39.8s-.21-.61-.31-.92c0-.14-.07-.26-.12-.39s-.14-.53-.22-.8c0-.1-.05-.22-.08-.33a1.42,1.42,0,0,1,0-.22c-.05-.17-.08-.34-.13-.52-.12-.56-.23-1.14-.32-1.72,0-.06,0-.12,0-.19-.05-.29-.08-.59-.12-.88a3,3,0,0,1,0-.42c0-.31-.07-.62-.08-.94l0-.26c0-.36,0-.73,0-1.08v-.8C2.42,29.78,2.44,29.22,2.48,28.66Zm18.33-5.15a11.81,11.81,0,0,0-2.26,6.83v.17c0,.12,0,.24,0,.36a1.67,1.67,0,0,0,0,.32h0v0c0,.37.06.73.11,1.09l0,.12A10.46,10.46,0,0,0,19,33.57v0h0a.56.56,0,0,0,0,.12c0,.16.09.32.14.47a1.07,1.07,0,0,1,.07.19c0,.11.08.22.12.34l0,.06c0,.11.09.22.14.33s.14.34.22.51.22.44.34.66c0,.06.07.14.11.2a11.11,11.11,0,0,0,1,1.4l.14.18h0l-4.5,4.49a18.4,18.4,0,0,1-3.39-5.68.49.49,0,0,0,0-.11l-.23-.66c-.07-.22-.14-.45-.19-.67,0-.05,0-.11-.05-.16s0-.11-.05-.17l-.15-.62c0-.13-.05-.25-.07-.38h0a.79.79,0,0,0,0-.13c-.06-.32-.12-.64-.16-1l0-.14c0-.39-.09-.78-.12-1.16h0l0-.6v-.72c0-.33,0-.65,0-1a2.5,2.5,0,0,1,0-.4c0-.22,0-.42.06-.63s.05-.42.08-.61.05-.31.08-.47.1-.55.16-.82l.06-.24c.09-.35.18-.7.28-1v0a18.49,18.49,0,0,1,5.52-8.45,18.24,18.24,0,0,1,7.8-4l.4-.08.8-.16.56-.08.68-.07.57-.05h.21l.84,0h.37c.37,0,.75,0,1.12,0H32c.4,0,.8.08,1.2.13l.06,0c.41.05.83.14,1.24.22l1.1.28.18.05-.46.68c-.09.12-.17.26-.25.39h0l0,.06c-.2.31-.4.62-.59.94s-.5.86-.73,1.31l-.08.15-.36.71-.35.75c-.11.25-.21.5-.32.76h0c-.41-.07-.83-.11-1.24-.14h0a7.68,7.68,0,0,0-.83,0A11.86,11.86,0,0,0,22,22.05a12.41,12.41,0,0,0-1.24,1.46ZM70,38.06l.14-.18a11.11,11.11,0,0,0,.95-1.4c0-.06.07-.14.11-.2.12-.22.23-.43.34-.66s.14-.34.22-.51.1-.22.14-.33l0-.06.12-.34a1,1,0,0,1,.07-.18c0-.16.1-.32.14-.48a.42.42,0,0,0,0-.12h0v0a8.56,8.56,0,0,0,.25-1.14v-.11a10.27,10.27,0,0,0,.12-1.1v0h0c0-.11,0-.21,0-.32s0-.24,0-.36v-.25a12,12,0,0,0-.54-3.36,10.92,10.92,0,0,0-.49-1.28c-.12-.27-.25-.53-.39-.8a12,12,0,0,0-10.53-6.28,7.4,7.4,0,0,0-.82,0v0a10.62,10.62,0,0,0-1.25.14v0h0c-.1-.25-.21-.5-.32-.75s-.23-.5-.36-.75l-.35-.71-.08-.15c-.23-.45-.47-.89-.73-1.32s-.39-.62-.59-.93l0-.06h0c-.09-.13-.16-.27-.25-.39s-.31-.46-.47-.68l.19-.05c.36-.11.73-.2,1.1-.28s.83-.17,1.24-.23h.06c.4-.05.8-.1,1.2-.13h.09c.37,0,.75,0,1.12,0h.37l.84,0h.2l.58.05.68.08.56.08.79.15.41.09A18.54,18.54,0,0,1,78.21,25.16v0l0,.16c.09.29.17.59.24.88l.06.25c.06.27.11.54.16.81s.06.31.08.47.06.41.08.61,0,.42.07.63,0,.27,0,.41c0,.32,0,.64,0,1v.72q0,.3,0,.6h0q0,.58-.12,1.17l0,.14c0,.32-.1.64-.16,1,0,0,0,.09,0,.13h0c0,.13-.06.25-.08.38l-.15.62,0,.17a1.55,1.55,0,0,1,0,.15l-.2.68c-.08.22-.14.44-.23.66a.49.49,0,0,0,0,.11,18.35,18.35,0,0,1-3.4,5.68L70,38.05Z" style="fill:#fff"/><path d="M111.06,9.73v37h-9.6V9.73Z" style="fill:#fff"/><path d="M119.61,9.73h14.31q5.1,0,7.74,2.45c1.76,1.63,2.65,4,2.65,7.06a9.59,9.59,0,0,1-1,4.63A8.5,8.5,0,0,1,140.24,27a11.5,11.5,0,0,1,3.5,1.2,7.69,7.69,0,0,1,2.36,2,7.52,7.52,0,0,1,1.29,2.65,12.2,12.2,0,0,1,.4,3.13,11.15,11.15,0,0,1-.91,4.61,9.31,9.31,0,0,1-2.55,3.38,10.79,10.79,0,0,1-4,2.06,18.78,18.78,0,0,1-5.29.69H119.61Zm9.6,14.5H131c3,0,4.51-1.19,4.51-3.57S134,17.08,131,17.08h-1.77Zm0,15h2.11a10.76,10.76,0,0,0,5.2-.93,3.22,3.22,0,0,0,1.56-3,3.22,3.22,0,0,0-1.56-3,10.76,10.76,0,0,0-5.2-.93h-2.11Z" style="fill:#fff"/><path d="M175.35,17.86H163.93V24h10.78v8.13H163.93v6.37h11.42v8.14h-21V9.73h21Z" style="fill:#fff"/><path d="M193.65,27,182.13,9.73H194l5,9.56,6.17-9.56H217L204.82,27l13.77,19.7H206.88l-7.4-12.06L190.8,46.68H179.19Z" style="fill:#fff"/><path d="M102,60.57l1.43-7.3,2.33,5.28,2.41-5.28,1.29,7.3h-1l-.66-4.1-2,4.41-2-4.41-.73,4.1Z" style="fill:#fff"/><path d="M126.4,54.75h-2.72v1.63h2.64v1h-2.64V59.6h2.72v1h-3.74V53.78h3.74Z" style="fill:#fff"/><path d="M141.78,57.68l2.1,2.89h-1.25l-1.94-2.78h-.18v2.78h-1V53.78h1.2a3,3,0,0,1,1.94.51,1.85,1.85,0,0,1,.66,1.48,1.89,1.89,0,0,1-.41,1.24A1.86,1.86,0,0,1,141.78,57.68Zm-1.27-.78h.32c1,0,1.46-.37,1.46-1.11s-.48-1-1.42-1h-.36Z" style="fill:#fff"/><path d="M161.5,54.15v1.21a2.89,2.89,0,0,0-1.84-.74,2.32,2.32,0,0,0-1.76.75,2.54,2.54,0,0,0-.72,1.83,2.47,2.47,0,0,0,.72,1.8,2.37,2.37,0,0,0,1.76.73,2.29,2.29,0,0,0,.92-.17,2.76,2.76,0,0,0,.44-.24,6,6,0,0,0,.48-.36v1.23a3.62,3.62,0,0,1-1.85.5,3.38,3.38,0,0,1-2.48-1,3.32,3.32,0,0,1-1-2.46,3.51,3.51,0,0,1,.86-2.32,3.43,3.43,0,0,1,2.73-1.24A3.49,3.49,0,0,1,161.5,54.15Z" style="fill:#fff"/><path d="M178.67,58.92h-2.9L175,60.57h-1.1l3.36-7.21,3.24,7.21h-1.13Zm-.41-1-1-2.31L176.19,58Z" style="fill:#fff"/><path d="M193.09,60.57V53.78h1.42a5.39,5.39,0,0,1,1.62.2,3.2,3.2,0,0,1,1.16.68,3.4,3.4,0,0,1-1.2,5.72,5.48,5.48,0,0,1-1.6.19Zm1-1h.46a3.76,3.76,0,0,0,1.15-.14,2.2,2.2,0,0,0,.83-.49,2.33,2.33,0,0,0,.75-1.8,2.4,2.4,0,0,0-.74-1.81,2.86,2.86,0,0,0-2-.61h-.46Z" style="fill:#fff"/><path d="M211,57.14a3.34,3.34,0,0,1,1-2.46,3.49,3.49,0,0,1,2.52-1,3.51,3.51,0,0,1,2.48,6,3.6,3.6,0,0,1-4.9.11A3.33,3.33,0,0,1,211,57.14Zm1,0a2.53,2.53,0,0,0,2.5,2.57,2.41,2.41,0,0,0,1.8-.74,2.63,2.63,0,0,0,0-3.63,2.38,2.38,0,0,0-1.79-.74,2.41,2.41,0,0,0-1.79.74A2.45,2.45,0,0,0,212.05,57.16Z" style="fill:#fff"/></svg>