<svg xmlns="http://www.w3.org/2000/svg" viewBox="0 0 180.74 78.93"><defs><style>.cls-1{fill:#fff;}</style></defs><g id="Layer_2" data-name="Layer 2"><g id="Capa_1" data-name="Capa 1"><path class="cls-1" d="M14.81,0V57.09H0V0Z"/><path class="cls-1" d="M28,0H50.09Q58,0,62,3.78C64.75,6.3,66.12,10,66.12,14.67a14.87,14.87,0,0,1-1.54,7.15,13.07,13.07,0,0,1-4.74,4.83,17.82,17.82,0,0,1,5.4,1.85,11.76,11.76,0,0,1,3.64,3.09,11.45,11.45,0,0,1,2,4.09,18.29,18.29,0,0,1,.62,4.83,17.19,17.19,0,0,1-1.4,7.11,14.44,14.44,0,0,1-3.94,5.22A16.56,16.56,0,0,1,60,56a28.9,28.9,0,0,1-8.16,1.07H28ZM42.82,22.37h2.76c4.63,0,7-1.83,7-5.5s-2.33-5.53-7-5.53H42.85Zm0,23.15h3.26a16.62,16.62,0,0,0,8-1.43,5,5,0,0,0,2.41-4.63,5,5,0,0,0-2.41-4.63,16.63,16.63,0,0,0-8-1.44H42.82Z"/><path class="cls-1" d="M114,12.55H96.4V22H113V34.57H96.4v9.82H114V57H81.61V0H114Z"/><path class="cls-1" d="M142.26,26.65,124.48,0H142.8l7.71,14.75L160,0h18.26l-18.8,26.65,21.25,30.4H162.67L151.25,38.44,137.86,57H119.94Z"/><path class="cls-1" d="M.83,78.45,3,67.19l3.6,8.14,3.71-8.14,2,11.26H10.8l-1-6.33L6.7,78.93,3.61,72.12,2.48,78.45Z"/><path class="cls-1" d="M38.48,69.47H34.29V72h4.07v1.54H34.29V77h4.19V78.5H32.71V68h5.77Z"/><path class="cls-1" d="M62.22,74l3.24,4.46H63.53l-3-4.29h-.28v4.29H58.71V68h1.86a4.62,4.62,0,0,1,3,.79,2.86,2.86,0,0,1,1,2.28A3,3,0,0,1,64,73,2.88,2.88,0,0,1,62.22,74Zm-2-1.2h.49c1.54,0,2.25-.57,2.25-1.72s-.74-1.54-2.19-1.54h-.55Z"/><path class="cls-1" d="M92.65,68.54v1.87a4.48,4.48,0,0,0-2.84-1.14,3.6,3.6,0,0,0-2.72,1.16A3.94,3.94,0,0,0,86,73.25,3.85,3.85,0,0,0,87.09,76a3.62,3.62,0,0,0,2.72,1.12,3.32,3.32,0,0,0,1.42-.26,4.11,4.11,0,0,0,.68-.37c.25-.17.5-.36.74-.55v1.89a5.64,5.64,0,0,1-2.86.78A5.21,5.21,0,0,1,86,77.09a5.14,5.14,0,0,1-1.55-3.79,5.45,5.45,0,0,1,1.33-3.58A5.31,5.31,0,0,1,90,67.8,5.52,5.52,0,0,1,92.65,68.54Z"/><path class="cls-1" d="M119.14,75.9h-4.47l-1.19,2.55h-1.7L117,67.32l5,11.13h-1.75Zm-.63-1.54L117,70.8l-1.65,3.68Z"/><path class="cls-1" d="M141.39,78.45V68h2.19a8.41,8.41,0,0,1,2.5.31,4.9,4.9,0,0,1,1.79,1,5.24,5.24,0,0,1,.32,7.41A5.33,5.33,0,0,1,146,78.16a8.2,8.2,0,0,1-2.47.29Zm1.55-1.54h.71a5.89,5.89,0,0,0,1.77-.22,3.31,3.31,0,0,0,1.28-.75,3.62,3.62,0,0,0,1.16-2.78,3.73,3.73,0,0,0-1.14-2.8,4.48,4.48,0,0,0-3.09-.94h-.71Z"/><path class="cls-1" d="M169,73.16a5.19,5.19,0,0,1,1.54-3.8,5.5,5.5,0,0,1,9.32,3.87,5.46,5.46,0,0,1-1.6,3.85,5.56,5.56,0,0,1-7.56.17A5.13,5.13,0,0,1,169,73.16Zm1.54,0a3.91,3.91,0,0,0,3.84,4h0A3.69,3.69,0,0,0,177.21,76a4.07,4.07,0,0,0,0-5.6,3.68,3.68,0,0,0-2.76-1.14,3.74,3.74,0,0,0-2.77,1.14,3.78,3.78,0,0,0-1,2.81Z"/></g></g></svg>