<svg xmlns="http://www.w3.org/2000/svg" viewBox="0 0 149.92 112.63"><defs><style>.cls-1{fill:#66e9ff;}</style></defs><g id="Layer_2" data-name="Layer 2"><g id="Capa_1" data-name="Capa 1"><path class="cls-1" d="M13.23,0V61.73H0V0Z"/><path class="cls-1" d="M57.32,13.23v48.5H44.1V13.23H19.84V0H81.58V13.23Z"/><path class="cls-1" d="M108.3,48.5h41.62V61.73H88.19V48.11l41.58-34.88H88.19V0h61.73V13.58Z"/><path class="cls-1" d="M28.05,75.6a26.51,26.51,0,0,0-4.67-.38H14q-14,0-14,10.91v15.59q0,10.91,14,10.91h9.35q14,0,14-10.91V69H28.05Zm0,26.12c0,1-1.55,1.56-4.67,1.56H14q-4.68,0-4.68-1.56V86.13q0-1.56,4.68-1.56h9.35c3.12,0,4.67.52,4.67,1.56Z"/><path class="cls-1" d="M135.59,75.22H115.33v0h-7.79v0h-14V69H84.16v6.26H66.7c-.41,0-.81,0-1.24,0H45.2v9.35H65.46q4.67,0,4.67,1.56v1.56h-14q-14,0-14,10.91v3.12q0,10.91,14,10.91h9.35q14,0,14-10.91V86.13c0-.54,0-1.06-.08-1.56h4.76v17.15q0,10.91,14,10.91h9.35v-9.35H98.19q-4.68,0-4.68-1.56V84.57h42.08q4.68,0,4.68,1.56v1.56h-14q-14,0-14,10.91v3.12q0,10.91,14,10.91h9.35q14,0,14-10.91V86.13Q149.62,75.22,135.59,75.22Zm-65.46,26.5q0,1.56-4.67,1.56H56.11q-4.68,0-4.68-1.56V98.6q0-1.56,4.68-1.56h14Zm70.14,0q0,1.56-4.68,1.56h-9.35q-4.68,0-4.68-1.56V98.6q0-1.56,4.68-1.56h14Z"/></g></g></svg>