<svg id="_404_Coin" data-name="404 Coin" xmlns="http://www.w3.org/2000/svg" viewBox="0 0 224.09 153.84"><defs><style>.cls-1,.cls-4{fill:#2f2e2f;}.cls-2{fill:#dadada;}.cls-3,.cls-5,.cls-6{fill:none;}.cls-3,.cls-4,.cls-5,.cls-7{stroke:#1d1d1b;stroke-miterlimit:10;}.cls-3,.cls-4,.cls-7{stroke-width:0.25px;}.cls-5{stroke-width:0.09px;}.cls-7{fill:#3c3c3b;}.cls-8{fill:#ededed;}</style></defs><title>not-found</title><path class="cls-1" d="M87.94,66.56c-.85.28-2.35.78-4.18,1.5C68.26,74.23,49.91,88.41,47,106.74c-.11.75-.18,1.34-.21,1.61a12.26,12.26,0,0,1-10.18-1.93c4-1.35,5.52-5.76,4-8.68-1.37-2.57-5.1-3.84-8.36-2.25a5.81,5.81,0,0,0-3.54,3.75,5.54,5.54,0,0,0,1.72,5.57v.5l-5.87,0a1.42,1.42,0,0,0,0,2.77L34.1,108a13.23,13.23,0,0,0,11.41,3.44A38.86,38.86,0,0,0,46,122.14C50,143.7,71.48,154,73.56,154.93A51.72,51.72,0,0,0,97,159.51a12.49,12.49,0,0,0,.81,4.5,7.36,7.36,0,0,0,2.65,3.94,6.05,6.05,0,0,0,3,1H110a6.1,6.1,0,0,0,2.89-.77,6.26,6.26,0,0,0,2.9-4c0-.22.11-1,.23-2.44a15,15,0,0,0,.09-1.74,11,11,0,0,0-.24-2c1.5,0,2.75-.08,3.69-.16a9.4,9.4,0,0,0,3.35-.61,6.49,6.49,0,0,0,2-1.4v-1.6l-7.4-11,3.38-8-4.42-8.68-6-2.81-7.23-10.2a21.38,21.38,0,0,0,2-13.1l-2.33.8-7.47,2.41Q93.93,96.84,92.36,90l-7.87-2.41A75.67,75.67,0,0,0,87.7,71.2C87.83,69.6,87.91,68.06,87.94,66.56Z" transform="translate(-23.44 -41.42)"/><path class="cls-2" d="M32.86,103.46a3.11,3.11,0,0,0,2.69.56,3.17,3.17,0,0,0,1.77-1.24,3.4,3.4,0,0,0-.32-4.1,2.72,2.72,0,0,0-1.45-.8A3.28,3.28,0,0,0,32.09,100,3.16,3.16,0,0,0,32.86,103.46Z" transform="translate(-23.44 -41.42)"/><path class="cls-1" d="M44.87,96.11" transform="translate(-23.44 -41.42)"/><path class="cls-3" d="M129.25,171.16" transform="translate(-23.44 -41.42)"/><path class="cls-1" d="M90.94,168.91a63.71,63.71,0,0,0-30.8,0A20.39,20.39,0,0,0,62.5,170a23.7,23.7,0,0,0,9,1.18c11,0,13.23.4,17.3-1.24A21.41,21.41,0,0,0,90.94,168.91Z" transform="translate(-23.44 -41.42)"/><path class="cls-4" d="M74.23,172.9" transform="translate(-23.44 -41.42)"/><path class="cls-1" d="M56.44,170.55v4.5a12.13,12.13,0,0,0,8.15,3.32H86.12a12.26,12.26,0,0,0,5.41-1.13,12.08,12.08,0,0,0,3.59-2.57v-4.12A25.2,25.2,0,0,1,92,172a26.41,26.41,0,0,1-8.57,1.77c-9.29.64-16.33.36-19.28-.21a26,26,0,0,1-4.4-1.29A22.46,22.46,0,0,1,56.44,170.55Z" transform="translate(-23.44 -41.42)"/><path class="cls-5" d="M79.32,187.1" transform="translate(-23.44 -41.42)"/><path class="cls-1" d="M196.48,69.72l-9.64,10.77V84.3l-8.36,8L183.94,98l-2.57,4.93-5.52,2.73-9.64,11.09v.91l7.39,3.91-12.16,10.34,1.24,7L145.8,153.19a14,14,0,0,0,8,4.28,7.48,7.48,0,0,0-1,3.43,8,8,0,0,0,2.25,5.63,5.73,5.73,0,0,0,1.66,1.55c.87.52,1.77.81,4.5.81h4.29a7.27,7.27,0,0,0,6.27-7.18,108.09,108.09,0,0,0,50.62-9.11c2.57.21,4.76.3,6.48.32a18.21,18.21,0,0,0,5.25-.43,14.8,14.8,0,0,0,2.68-1,46.58,46.58,0,0,0,6.64-8.25c2.46-3.89,4.56-7.32,3.89-11.45a10.46,10.46,0,0,0-.78-2.59L233.55,118a25.2,25.2,0,0,1-.86-3.85,24.18,24.18,0,0,1-.1-5.9,52.13,52.13,0,0,0,7.39-6.32,51.39,51.39,0,0,0,4-4.61,2.62,2.62,0,0,0,0-3.21,56.92,56.92,0,0,0-30.32-13.39,46.47,46.47,0,0,0-17.14-11Z" transform="translate(-23.44 -41.42)"/><path class="cls-6" d="M232.59,177.78" transform="translate(-23.44 -41.42)"/><path class="cls-3" d="M153.41,175.31" transform="translate(-23.44 -41.42)"/><path class="cls-3" d="M161.28,171.83" transform="translate(-23.44 -41.42)"/><path class="cls-3" d="M157.59,172" transform="translate(-23.44 -41.42)"/><path class="cls-3" d="M225.84,177.67" transform="translate(-23.44 -41.42)"/><path class="cls-3" d="M245.6,172.21" transform="translate(-23.44 -41.42)"/><path class="cls-7" d="M137.76,116.6" transform="translate(-23.44 -41.42)"/><path class="cls-1" d="M129.09,166.42" transform="translate(-23.44 -41.42)"/><path class="cls-1" d="M129.62,185.81a64.21,64.21,0,0,0-19.77-1.74,62.6,62.6,0,0,0-11,1.74,20.67,20.67,0,0,0,2.36,1,23.5,23.5,0,0,0,9,1.18c11,0,13.23.41,17.3-1.23C128.4,186.43,129.14,186.06,129.62,185.81Z" transform="translate(-23.44 -41.42)"/><path class="cls-4" d="M112.91,189.8" transform="translate(-23.44 -41.42)"/><path class="cls-1" d="M95.12,187.44v4.5a11.91,11.91,0,0,0,2.68,1.93,12.16,12.16,0,0,0,5.46,1.39H124.8a12,12,0,0,0,9-3.69v-4.13a25.88,25.88,0,0,1-3.11,1.45,27,27,0,0,1-8.57,1.77c-9.29.64-16.33.36-19.28-.22a26.55,26.55,0,0,1-4.4-1.28A22.36,22.36,0,0,1,95.12,187.44Z" transform="translate(-23.44 -41.42)"/><path class="cls-4" d="M191.89,183.52" transform="translate(-23.44 -41.42)"/><path class="cls-1" d="M180.3,184.28a63.68,63.68,0,0,0-30.8,0,20.89,20.89,0,0,0,2.35,1.05,23.53,23.53,0,0,0,9,1.17c11.05,0,13.24.41,17.31-1.23C179.08,184.9,179.82,184.53,180.3,184.28Z" transform="translate(-23.44 -41.42)"/><path class="cls-4" d="M163.59,188.27" transform="translate(-23.44 -41.42)"/><path class="cls-1" d="M147.73,185.92v4.5a12,12,0,0,0,2.68,1.92,12.31,12.31,0,0,0,5.46,1.4h21.54a12.06,12.06,0,0,0,9-3.7v-4.12a25.9,25.9,0,0,1-3.11,1.44,26.41,26.41,0,0,1-8.57,1.77c-9.29.64-16.33.36-19.29-.21a26.05,26.05,0,0,1-4.39-1.29A22.93,22.93,0,0,1,147.73,185.92Z" transform="translate(-23.44 -41.42)"/><path class="cls-1" d="M210.28,187.19a63.61,63.61,0,0,0-28.91-10.62,19.33,19.33,0,0,0,1.85,1.79,23.35,23.35,0,0,0,8,4.21c10.38,3.79,12.29,5,16.67,4.82A23.31,23.31,0,0,0,210.28,187.19Z" transform="translate(-23.44 -41.42)"/><path class="cls-4" d="M193.22,185.18" transform="translate(-23.44 -41.42)"/><path class="cls-1" d="M177.33,176.83l-1.55,4.22a12.09,12.09,0,0,0,1.85,2.74,12.31,12.31,0,0,0,4.65,3.19l20.21,7.43a12.15,12.15,0,0,0,5.47.81,12,12,0,0,0,4.26-1.18l1.42-3.87a26.14,26.14,0,0,1-12.07-1c-8.94-2.6-15.45-5.29-18-6.85a25.49,25.49,0,0,1-3.68-2.73A21.91,21.91,0,0,1,177.33,176.83Z" transform="translate(-23.44 -41.42)"/><ellipse class="cls-1" cx="114.33" cy="25.76" rx="26.78" ry="25.76"/><circle class="cls-8" cx="114.33" cy="25.76" r="22.59"/><circle class="cls-1" cx="114.33" cy="25.76" r="21.32"/><path class="cls-2" d="M130,71.65V69.34h-4.3V68.1l4.13-5.66h1.48v5.73h1.17l-.14,1.17h-1v2.31ZM130,66c0-.77,0-1.61,0-2.21-.38.73-2.06,3-3,4.4h3Z" transform="translate(-23.44 -41.42)"/><path class="cls-2" d="M140.21,67c0,2.33-.68,4.84-3.29,4.84s-3.28-2.36-3.28-4.77.8-4.78,3.32-4.78S140.21,64.57,140.21,67Zm-5.12.06c0,1.74.28,3.63,1.84,3.63s1.83-1.79,1.83-3.68-.29-3.57-1.79-3.57S135.09,65,135.09,67Z" transform="translate(-23.44 -41.42)"/><path class="cls-2" d="M145.94,71.65V69.34h-4.3V68.1l4.13-5.66h1.48v5.73h1.17l-.14,1.17h-1v2.31Zm0-5.67c0-.77,0-1.61,0-2.21-.38.73-2.06,3-3,4.4h3Z" transform="translate(-23.44 -41.42)"/></svg>