<svg xmlns="http://www.w3.org/2000/svg" viewBox="0 0 46 46"><defs><style>.cls-1{fill:#044900;}.cls-2{fill:none;stroke:#044900;stroke-miterlimit:10;stroke-width:5px;}</style></defs><g id="Layer_2" data-name="Layer 2"><g id="Capa_1" data-name="Capa 1"><path class="cls-1" d="M21.7,24.42a3.86,3.86,0,0,1,.42-1.89A8,8,0,0,1,23.29,21a6.8,6.8,0,0,0,.81-1,1.69,1.69,0,0,0,.27-.94c0-.79-.51-1.18-1.54-1.18a5.89,5.89,0,0,0-2,.41,11.15,11.15,0,0,0-2.18,1.1l-1.35-3.12a7.24,7.24,0,0,1,2.61-1.31,11.67,11.67,0,0,1,3.3-.49,7.25,7.25,0,0,1,2.83.53A4.44,4.44,0,0,1,28,16.44a3.52,3.52,0,0,1,.7,2.17,3.63,3.63,0,0,1-.36,1.62,4.87,4.87,0,0,1-.88,1.27c-.34.36-.79.77-1.33,1.24a12.46,12.46,0,0,0-1.24,1.17,2.33,2.33,0,0,0-.54,1l-.16.94H21.7Zm-.91,7.15V27.2h4.44v4.37Z"/><circle class="cls-2" cx="23" cy="23" r="20.5"/></g></g></svg>