<svg xmlns="http://www.w3.org/2000/svg" viewBox="0 0 99.05 99.05"><defs><style>.cls-1{fill:#26a17b;}.cls-2{fill:#fff;}</style></defs><g id="Layer_2" data-name="Layer 2"><g id="Capa_1" data-name="Capa 1"><circle class="cls-1" cx="49.52" cy="49.52" r="49.52"/><path class="cls-2" d="M32.22,43.86c-5.71,1.15-8.37,2.76-8.37,5.06s2.66,3.9,8.37,5a88.16,88.16,0,0,0,15.63,1.44V76a1.68,1.68,0,0,0,3.35,0V55.41A88.16,88.16,0,0,0,66.83,54c5.71-1.15,8.37-2.75,8.37-5S72.54,45,66.83,43.86A89.2,89.2,0,0,0,51.2,42.43V30.3h19a1.67,1.67,0,0,0,0-3.34H28.88a1.67,1.67,0,0,0,0,3.34h19V42.43A89.2,89.2,0,0,0,32.22,43.86Zm1.75,7c-4-.7-5.82-1.52-6.52-2,.7-.47,2.56-1.29,6.52-2a90.47,90.47,0,0,1,13.88-1.16v6.29A89.23,89.23,0,0,1,34,50.9Zm31.11-4c4,.7,5.82,1.52,6.52,2-.7.46-2.56,1.28-6.52,2A89.23,89.23,0,0,1,51.2,52.06V45.77A90.47,90.47,0,0,1,65.08,46.93Z"/></g></g></svg>