<svg xmlns="http://www.w3.org/2000/svg" viewBox="0 0 49.57 50.57"><defs><style>.cls-1{fill:#fff;}</style></defs><g id="Layer_2" data-name="Layer 2"><g id="Capa_1" data-name="Capa 1"><path class="cls-1" d="M24.78,0A24.81,24.81,0,0,0,0,24.78a27.84,27.84,0,0,0,3.1,12,1.72,1.72,0,1,0,3.07-1.57,24.22,24.22,0,0,1-2.73-10.4A21.35,21.35,0,1,1,24.78,46.12a22.16,22.16,0,0,1-9.61-2.27,1.73,1.73,0,0,0-1.3-.11L3,47.21a1.72,1.72,0,0,0,.52,3.36,1.63,1.63,0,0,0,.53-.08l10.19-3.26a25.33,25.33,0,0,0,10.52,2.34A24.79,24.79,0,1,0,24.78,0Z"/><path class="cls-1" d="M19.9,20.56A1.72,1.72,0,1,0,22,23.29a3.76,3.76,0,0,0,1.72-3.41,9.27,9.27,0,0,0-2.16-3.83,8.55,8.55,0,0,0-3.36-2.87,3.71,3.71,0,0,0-2.54.12,6.1,6.1,0,0,0-3.58,3.35,5.86,5.86,0,0,0,.3,4.72,31,31,0,0,0,7.14,9.74l0,0a30.88,30.88,0,0,0,10.48,6,6.83,6.83,0,0,0,2.21.39A5.41,5.41,0,0,0,34.76,37,6.08,6.08,0,0,0,37.7,33a3.74,3.74,0,0,0-.15-2.54,8.61,8.61,0,0,0-3.23-3c-1.21-.79-2.9-1.73-4.05-1.73h0a3.76,3.76,0,0,0-3.19,2.09A1.73,1.73,0,1,0,30,29.62a2.77,2.77,0,0,1,.27-.41,13.22,13.22,0,0,1,4.11,2.7.38.38,0,0,1,0,.2,2.83,2.83,0,0,1-1.22,1.8,2.57,2.57,0,0,1-2,0,27.64,27.64,0,0,1-9.31-5.34h0a27.48,27.48,0,0,1-6.36-8.67,2.59,2.59,0,0,1-.2-2,2.78,2.78,0,0,1,1.64-1.41.37.37,0,0,1,.2,0,13.24,13.24,0,0,1,3.14,3.78A2.53,2.53,0,0,1,19.9,20.56Z"/></g></g></svg>