<?xml version="1.0" encoding="utf-8"?>
<!-- Generator: Adobe Illustrator 24.0.3, SVG Export Plug-In . SVG Version: 6.00 Build 0)  -->
<svg version="1.1" xmlns="http://www.w3.org/2000/svg" xmlns:xlink="http://www.w3.org/1999/xlink" x="0px" y="0px"
	 viewBox="0 0 90 69.2" style="enable-background:new 0 0 90 69.2;" xml:space="preserve">
<style type="text/css">
	.st0{fill:#FFFFFF;}
	.st1{fill:#044900;}
	.st2{fill:#231F20;}
	.st3{display:none;}
</style>
<g id="Layer_1">
	<path id="Path_206" class="st0" d="M87.4-174.5v-0.3c0-0.4,0-0.8-0.1-1.2s-0.1-0.8-0.1-1.2c0-0.1,0-0.3,0-0.4c0-0.1,0-0.3-0.1-0.4
		l0-0.1c0-0.3-0.1-0.7-0.2-1c0-0.1,0-0.2,0-0.3c-0.1-0.4-0.1-0.7-0.2-1.1l0-0.2c-0.1-0.4-0.2-0.8-0.3-1.3c0-0.1-0.1-0.3-0.1-0.4
		c-0.1-0.3-0.2-0.5-0.2-0.8c-0.1-0.2-0.1-0.4-0.2-0.7c-0.1-0.2-0.1-0.3-0.2-0.5c-0.1-0.3-0.2-0.5-0.3-0.8c0-0.1-0.1-0.1-0.1-0.2
		c0-0.1-0.1-0.1-0.1-0.2c-0.1-0.2-0.2-0.5-0.3-0.7c0-0.1-0.1-0.2-0.1-0.2l-0.1-0.1c-2.6-5.8-7-10.6-12.5-13.8
		c-0.1-0.1-0.3-0.2-0.4-0.3l0,0c-0.1,0-0.1-0.1-0.2-0.1c-0.7-0.4-1.4-0.8-2.2-1.1c-0.2-0.1-0.3-0.1-0.5-0.2c0,0-0.1,0-0.1,0
		c0,0-0.1,0-0.1,0c-0.3-0.1-0.6-0.3-1-0.4l-0.1,0l0,0c-1.6-0.6-3.2-1.1-4.9-1.4l-0.1,0c-0.4-0.1-0.8-0.2-1.3-0.2
		c-0.1,0-0.3,0-0.4-0.1c-0.3,0-0.6-0.1-1-0.1c-0.2,0-0.4,0-0.6-0.1c-0.2,0-0.4,0-0.6,0c-0.3,0-0.6,0-0.8,0c-0.5,0-1.1,0-1.6,0
		c-0.3,0-0.6,0-1,0c-0.2,0-0.5,0-0.7,0l-0.3,0c-0.1,0-0.3,0-0.4,0c-0.2,0-0.5,0-0.7,0.1c-0.1,0-0.2,0-0.3,0c-0.5,0.1-1,0.1-1.5,0.2
		c-0.1,0-0.2,0-0.3,0.1l-0.5,0.1h0c-0.3,0.1-0.6,0.1-0.9,0.2c0,0-0.1,0-0.1,0c-0.1,0-0.1,0-0.2,0c-0.2,0-0.4,0.1-0.6,0.2
		c-0.3,0.1-0.6,0.2-0.8,0.2c-0.1,0-0.3,0.1-0.4,0.1c-0.3,0.1-0.5,0.2-0.8,0.3h0c-0.4,0.1-0.7,0.3-1.1,0.4c-0.2,0.1-0.3,0.1-0.5,0.2
		c-0.4,0.1-0.7,0.3-1.1,0.5l-0.5,0.2c-0.2,0.1-0.5,0.2-0.7,0.3h0c-0.4,0.2-0.8,0.4-1.3,0.7c-0.4-0.2-0.8-0.5-1.3-0.7h0
		c-0.2-0.1-0.5-0.2-0.7-0.3l-0.5-0.2c-0.4-0.2-0.7-0.3-1.1-0.5c-0.2-0.1-0.3-0.1-0.5-0.2c-0.4-0.1-0.7-0.3-1.1-0.4h0
		c-0.3-0.1-0.5-0.2-0.8-0.3c-0.1,0-0.3-0.1-0.4-0.1c-0.3-0.1-0.6-0.2-0.8-0.2c-0.2-0.1-0.4-0.1-0.6-0.2l-0.2,0c0,0-0.1,0-0.1,0
		c-0.3-0.1-0.6-0.1-0.9-0.2h0l-0.5-0.1c-0.1,0-0.2,0-0.3-0.1c-0.5-0.1-1-0.2-1.5-0.2c-0.1,0-0.2,0-0.3,0c-0.2,0-0.5-0.1-0.7-0.1
		c-0.2,0-0.3,0-0.4,0l-0.3,0c-0.2,0-0.5,0-0.7,0c-0.3,0-0.6,0-1,0c-0.5,0-1,0-1.6,0c-0.3,0-0.6,0-0.8,0c-0.2,0-0.4,0-0.7,0
		c-0.2,0-0.4,0-0.6,0.1c-0.3,0-0.6,0.1-1,0.1c-0.1,0-0.3,0-0.4,0.1c-0.4,0.1-0.8,0.1-1.3,0.2l-0.1,0c-1.7,0.3-3.3,0.8-4.9,1.4l0,0
		l-0.1,0c-0.3,0.1-0.6,0.2-1,0.4c0,0-0.1,0-0.1,0c0,0,0,0-0.1,0c-0.2,0.1-0.3,0.1-0.5,0.2c-0.2,0.1-0.4,0.2-0.6,0.3
		c-0.6,0.3-1.1,0.5-1.6,0.8c-0.1,0-0.1,0.1-0.2,0.1l0,0c-5.7,3.2-10.2,8.1-12.9,14.1l-0.1,0.1l-0.1,0.2c-0.1,0.2-0.2,0.5-0.3,0.7
		c0,0.1-0.1,0.1-0.1,0.2s0,0.1-0.1,0.2c-0.1,0.3-0.2,0.5-0.3,0.8c-0.1,0.2-0.1,0.3-0.2,0.5c-0.1,0.2-0.1,0.4-0.2,0.7
		c-0.1,0.3-0.2,0.5-0.2,0.8c0,0.1-0.1,0.3-0.1,0.4c-0.1,0.4-0.2,0.8-0.3,1.3l0,0.2c-0.1,0.4-0.2,0.7-0.2,1.1c0,0.1,0,0.2,0,0.3
		c-0.1,0.3-0.1,0.7-0.2,1l0,0.1c0,0.1,0,0.3-0.1,0.4s0,0.3,0,0.4c0,0.4-0.1,0.8-0.1,1.2s0,0.8-0.1,1.2v0.3c0,0.1,0,0.2,0,0.2v0.1
		c0,0.1,0,0.3,0,0.4l0,0.8l0,0.6c0,0.3,0,0.6,0.1,0.8c0,0.2,0,0.3,0,0.5c0,0.1,0,0.2,0,0.4l0,0.2c0,0.1,0,0.3,0.1,0.4
		c0,0.2,0.1,0.4,0.1,0.6c0,0.3,0.1,0.6,0.1,0.8c0,0.2,0.1,0.5,0.1,0.7c0,0.2,0.1,0.5,0.2,0.7c0.1,0.3,0.2,0.7,0.3,1
		c0,0.1,0.1,0.3,0.1,0.4c0.2,0.5,0.3,1.1,0.5,1.6c0.1,0.2,0.1,0.4,0.2,0.5c0,0.1,0.1,0.2,0.1,0.4c0,0.1,0,0.1,0.1,0.2
		c0.1,0.2,0.1,0.4,0.2,0.5c0.1,0.2,0.1,0.4,0.2,0.5c0,0.1,0.1,0.1,0.1,0.2c0.1,0.2,0.1,0.3,0.2,0.5c0.1,0.3,0.2,0.5,0.4,0.8
		c0.1,0.2,0.2,0.3,0.2,0.5c0.1,0.2,0.3,0.5,0.4,0.7c0.1,0.2,0.2,0.3,0.3,0.5c0.1,0.2,0.3,0.5,0.4,0.7c0.1,0.2,0.2,0.3,0.3,0.5
		c0.1,0.2,0.3,0.5,0.5,0.7l0.3,0.5c0.2,0.2,0.3,0.4,0.5,0.6c0.1,0.2,0.2,0.3,0.3,0.5l0.4,0.5c0.4,0.5,0.8,1,1.3,1.5l0,0l0,0l1.7,1.7
		l0,0l0.1,0.1l6.3-6.3l0.5-0.5l8-8l-0.2-0.2l-0.9-0.9c0,0-0.1-0.1-0.1-0.1c-0.2-0.2-0.3-0.4-0.5-0.6l0,0c-0.5-0.6-0.8-1.2-1.2-1.9
		c-0.1-0.2-0.2-0.4-0.3-0.6c-0.1-0.2-0.1-0.4-0.2-0.6l0,0c-0.2-0.6-0.3-1.1-0.4-1.7c0,0,0-0.1,0-0.1c0-0.1,0-0.3,0-0.4
		c0-0.1,0-0.3,0-0.4c0-0.1,0-0.2,0-0.4c0,0,0-0.1,0-0.1c0-0.1,0-0.3,0-0.4c0,0,0,0,0-0.1c0-0.2,0-0.4,0.1-0.6v0
		c0-0.2,0.1-0.4,0.1-0.6c0-0.2,0.1-0.4,0.1-0.6c0.1-0.4,0.2-0.8,0.4-1.2l0,0c0.1-0.2,0.2-0.4,0.3-0.6c0-0.1,0.1-0.2,0.1-0.3
		c0.1-0.2,0.3-0.4,0.4-0.6l0,0c0.1-0.2,0.2-0.3,0.3-0.5c0,0,0-0.1,0.1-0.1c0.1-0.1,0.2-0.3,0.4-0.4c0.1-0.1,0.2-0.3,0.4-0.4l0.1-0.1
		c0.1-0.1,0.2-0.2,0.4-0.3c0,0,0,0,0.1-0.1c0.1-0.1,0.2-0.2,0.3-0.3c0,0,0.1-0.1,0.2-0.1c0.1-0.1,0.3-0.2,0.4-0.3
		c0.2-0.1,0.3-0.2,0.5-0.3c0.2-0.1,0.3-0.2,0.5-0.3c0.1-0.1,0.3-0.1,0.4-0.2l0.1,0c0.2-0.1,0.3-0.1,0.4-0.2l0.1,0
		c0.2-0.1,0.3-0.1,0.5-0.2c0.2-0.1,0.3-0.1,0.5-0.2c0.1,0,0.3-0.1,0.4-0.1c0.1,0,0.3-0.1,0.4-0.1c0.3,0,0.5-0.1,0.8-0.1
		c0.2,0,0.3,0,0.5,0c0.2,0,0.4,0,0.6,0c0.3,0,0.6,0,0.8,0.1c0,0,0.1,0,0.1,0c-0.1,0.4-0.2,0.8-0.3,1.2l0,0v0
		c-0.1,0.4-0.2,0.8-0.3,1.2c0,0,0,0,0,0.1l-0.1,0.5c0,0.1,0,0.2-0.1,0.3c0,0.2-0.1,0.3-0.1,0.5c-0.3,1.6-0.5,3.3-0.5,5
		c0,0.2,0,0.5,0,0.7v24.3c0,0,0,0.1,0,0.1c0,0.3,0.1,0.5,0.3,0.7l14.2,14.2c0.2,0.2,0.5,0.4,0.9,0.4l0,0c0.3,0,0.6-0.1,0.9-0.4
		L56.8-149c0.2-0.2,0.3-0.5,0.3-0.7c0,0,0-0.1,0-0.1v-24.3c0-0.2,0-0.4,0-0.5c0-1.7-0.2-3.5-0.5-5.2c0-0.2-0.1-0.3-0.1-0.5
		c0-0.1,0-0.2-0.1-0.3l-0.1-0.5c0,0,0,0,0-0.1c-0.1-0.4-0.2-0.8-0.3-1.2v0l0,0c-0.1-0.4-0.2-0.8-0.3-1.2c0,0,0.1,0,0.1,0
		c0.3,0,0.6-0.1,0.8-0.1c0.2,0,0.4,0,0.6,0c0.2,0,0.3,0,0.5,0c0.3,0,0.5,0.1,0.8,0.1c0.1,0,0.3,0,0.4,0.1c0.1,0,0.3,0.1,0.4,0.1
		c0.2,0,0.3,0.1,0.5,0.2c0.2,0,0.3,0.1,0.5,0.2l0.1,0c0.2,0.1,0.3,0.1,0.4,0.2l0.1,0c0.1,0.1,0.3,0.1,0.4,0.2
		c0.2,0.1,0.3,0.2,0.5,0.3c0.2,0.1,0.4,0.2,0.5,0.3c0.2,0.1,0.3,0.2,0.4,0.3c0.1,0,0.1,0.1,0.2,0.1c0.1,0.1,0.2,0.2,0.3,0.3
		c0,0,0.1,0,0.1,0.1c0.1,0.1,0.3,0.2,0.4,0.3l0.1,0.1c0.1,0.1,0.2,0.3,0.4,0.4c0.1,0.1,0.2,0.3,0.3,0.4c0,0,0,0.1,0.1,0.1
		c0.1,0.2,0.2,0.3,0.3,0.5l0,0c0.1,0.2,0.3,0.4,0.4,0.6c0.2,0.3,0.3,0.6,0.5,0.9l0,0c0.1,0.2,0.2,0.5,0.3,0.7
		c0.1,0.2,0.1,0.3,0.1,0.5c0.1,0.2,0.1,0.4,0.1,0.6c0,0,0,0,0,0c0,0.2,0.1,0.4,0.1,0.6v0c0,0.2,0,0.4,0.1,0.6v0.1l0,0.4
		c0,0,0,0.1,0,0.1c0,0.1,0,0.2,0,0.4c0,0.1,0,0.3,0,0.4c0,0.1,0,0.3,0,0.4c0,0,0,0.1,0,0.1c-0.1,0.6-0.2,1.2-0.4,1.7l0,0
		c-0.1,0.2-0.1,0.4-0.2,0.6c-0.1,0.2-0.2,0.4-0.3,0.6c-0.3,0.7-0.7,1.3-1.2,1.9l0,0c-0.2,0.2-0.3,0.4-0.5,0.6c0,0-0.1,0.1-0.1,0.1
		l-0.9,0.9l-0.2,0.2l8.6,8.6l6.2,6.2l0.1-0.1l1.7-1.7l0,0l0,0c0.4-0.5,0.9-1,1.3-1.5l0.4-0.5c0.1-0.2,0.2-0.3,0.3-0.5
		c0.2-0.2,0.3-0.4,0.5-0.6l0.3-0.5c0.2-0.2,0.3-0.5,0.5-0.7c0.1-0.2,0.2-0.3,0.3-0.5c0.1-0.2,0.3-0.5,0.4-0.7
		c0.1-0.1,0.2-0.3,0.3-0.5c0.1-0.2,0.3-0.5,0.4-0.7c0.1-0.2,0.2-0.3,0.2-0.5c0.1-0.2,0.2-0.5,0.4-0.8c0.1-0.2,0.2-0.3,0.2-0.5
		c0-0.1,0.1-0.1,0.1-0.2c0.1-0.2,0.1-0.4,0.2-0.5s0.1-0.4,0.2-0.5c0-0.1,0-0.1,0.1-0.2c0-0.1,0.1-0.2,0.1-0.4l0.2-0.5
		c0.2-0.5,0.3-1.1,0.5-1.6c0-0.1,0.1-0.3,0.1-0.4c0.1-0.3,0.2-0.7,0.3-1c0-0.2,0.1-0.3,0.1-0.5c0-0.1,0-0.1,0-0.2
		c0-0.2,0.1-0.5,0.1-0.7c0.1-0.3,0.1-0.6,0.1-0.8c0-0.2,0.1-0.4,0.1-0.6c0-0.1,0-0.3,0.1-0.4c0-0.2,0-0.4,0-0.5s0-0.3,0-0.5
		c0-0.3,0-0.6,0.1-0.8l0-0.6l0-0.8c0-0.1,0-0.3,0-0.4v-0.1C87.4-174.4,87.4-174.4,87.4-174.5z M44.1-199.1L44.1-199.1
		c0.1,0,0.2-0.1,0.2-0.1c0.3-0.2,0.7-0.3,1-0.5l0,0c0.9-0.4,1.9-0.8,2.9-1.1l0.2-0.1c0.4-0.1,0.8-0.2,1.2-0.4c0.1,0,0.2-0.1,0.3-0.1
		c0.4-0.1,0.8-0.2,1.1-0.3c0.2,0,0.3-0.1,0.5-0.1c0.3-0.1,0.7-0.1,1-0.2c0.2,0,0.4-0.1,0.6-0.1c0.3,0,0.6-0.1,0.9-0.1
		c0.2,0,0.5,0,0.7-0.1c0.3,0,0.6,0,0.9,0c0.3,0,0.5,0,0.8,0c0.4,0,0.9,0,1.3,0c0.7,0,1.4,0.1,2.1,0.2l0.5,0c0.2,0,0.4,0.1,0.7,0.1
		c0.2,0,0.4,0.1,0.7,0.1c0.2,0,0.3,0.1,0.5,0.1c0.3,0,0.5,0.1,0.8,0.2c0.1,0,0.3,0.1,0.4,0.1c0.3,0.1,0.6,0.2,0.9,0.2
		c0.1,0,0.2,0.1,0.3,0.1c0.3,0.1,0.7,0.2,1,0.3c0.1,0,0.1,0,0.2,0.1c0.4,0.1,0.8,0.3,1.2,0.4l0,0c0.4,0.2,0.8,0.3,1.2,0.5
		c0.5,0.2,1,0.5,1.5,0.7c0.2,0.1,0.4,0.2,0.5,0.3c0.2,0.1,0.5,0.3,0.7,0.4c0.2,0.1,0.4,0.2,0.6,0.3c0,0,0.1,0.1,0.2,0.1l0.3,0.2
		c0.1,0,0.2,0.1,0.2,0.2c0.3,0.2,0.5,0.4,0.8,0.6c0.1,0.1,0.2,0.1,0.3,0.2c0.4,0.3,0.7,0.5,1.1,0.8l0.1,0.1c0.4,0.3,0.8,0.7,1.2,1
		c0.1,0.1,0.1,0.1,0.2,0.2c0.3,0.3,0.6,0.6,0.9,0.9l0.2,0.2c0.7,0.7,1.4,1.5,2.1,2.3c0,0,0,0,0,0c0.7,0.8,1.3,1.7,1.8,2.6
		c0.1,0.1,0.1,0.2,0.2,0.3c0.1,0.1,0.2,0.3,0.2,0.4c0.1,0.1,0.1,0.2,0.2,0.3c0.4,0.7,0.8,1.4,1.1,2.2l0,0l0.3,0.6
		c0.1,0.2,0.1,0.3,0.2,0.5c0.4,0.9,0.7,1.8,0.9,2.8c0,0.1,0,0.1,0,0.2l0,0.1c0.1,0.3,0.2,0.6,0.2,0.9l0,0.2c0.1,0.3,0.1,0.6,0.2,0.9
		c0,0,0,0.1,0,0.2c0.2,1,0.3,2.1,0.4,3.1c0,0.6,0.1,1.1,0.1,1.7c0,0.2,0,0.3,0,0.5v0.3c0,0.4,0,0.7,0,1.1l0,0.3c0,0.3,0,0.6-0.1,0.9
		c0,0.1,0,0.3,0,0.4c0,0.3-0.1,0.6-0.1,0.9c0,0.1,0,0.1,0,0.2c-0.1,0.6-0.2,1.2-0.3,1.7c0,0.2-0.1,0.4-0.1,0.5
		c0,0.2-0.1,0.4-0.1,0.6c-0.1,0.3-0.1,0.5-0.2,0.8c0,0.1-0.1,0.3-0.1,0.4c-0.1,0.3-0.2,0.6-0.3,0.9c0,0.1-0.1,0.2-0.1,0.2
		c-0.1,0.2-0.1,0.3-0.2,0.5c-0.1,0.2-0.1,0.4-0.2,0.6c-0.1,0.2-0.2,0.5-0.3,0.7c-0.1,0.2-0.2,0.5-0.3,0.7l-0.1,0.3
		c-0.1,0.2-0.2,0.5-0.4,0.7c-0.5,1.1-1.2,2.1-1.8,3.1c-0.1,0.1-0.1,0.1-0.2,0.2c-0.3,0.4-0.6,0.8-0.9,1.2c-0.1,0.1-0.2,0.2-0.2,0.3
		c-0.4,0.4-0.7,0.9-1.1,1.3l0,0l-3.7-3.7l-1.5-1.5c0-0.1,0.1-0.1,0.1-0.2c1.8-2,3.2-4.4,4-7c0.1-0.2,0.2-0.5,0.2-0.7
		c0.1-0.2,0.1-0.5,0.2-0.7c0-0.1,0-0.1,0.1-0.2c0.2-0.7,0.3-1.3,0.4-2c0-0.3,0.1-0.6,0.1-0.9v-0.1c0.1-0.7,0.1-1.4,0.1-2.1v-0.2
		c0-0.1,0-0.2,0-0.3c0-0.1,0-0.1,0-0.2c0-0.3,0-0.6,0-0.9v0c0-0.4-0.1-0.9-0.1-1.3c-0.1-1-0.3-1.9-0.6-2.9c-0.1-0.4-0.2-0.8-0.4-1.2
		l0,0l0,0c-0.1-0.2-0.1-0.4-0.2-0.6l0,0c-0.1-0.2-0.1-0.4-0.2-0.6l0,0c0-0.1-0.1-0.2-0.1-0.2c-0.3-0.7-0.6-1.3-1-1.9l0,0
		c-0.1-0.2-0.2-0.3-0.3-0.5c-0.1-0.2-0.2-0.3-0.3-0.5l0,0c-2.7-4.2-6.8-7.2-11.6-8.6c-0.2-0.1-0.4-0.1-0.6-0.2
		c-0.1,0-0.3-0.1-0.4-0.1c-0.3-0.1-0.7-0.2-1-0.2c-0.1,0-0.1,0-0.2,0c-0.3-0.1-0.7-0.1-1-0.1c-0.1,0-0.1,0-0.2,0
		c-0.4,0-0.7-0.1-1.1-0.1c0,0,0,0-0.1,0h0l-0.4,0c-2.2-0.1-4.4,0.2-6.5,0.7c-0.4,0.1-0.8,0.3-1.3,0.4l0,0h0c-0.3-0.3-0.6-0.6-0.8-1
		h0c-0.1-0.1-0.1-0.1-0.2-0.2c-0.1-0.1-0.2-0.2-0.2-0.3c-0.2-0.2-0.4-0.4-0.6-0.6c-0.1-0.1-0.2-0.2-0.4-0.3
		c-0.1-0.1-0.1-0.1-0.2-0.2c-0.8-0.7-1.6-1.4-2.4-2.1h0C44.8-198.6,44.4-198.9,44.1-199.1L44.1-199.1z M28.8-150.4v-23.8
		c0-0.1,0-0.2,0-0.4c0-0.2,0-0.4,0-0.5v-0.1c0-0.2,0-0.3,0-0.5c0,0,0-0.1,0-0.1v0l0-0.5l0-0.5c0-0.1,0-0.2,0-0.3c0-0.1,0-0.3,0-0.4
		v-0.1c0-0.1,0-0.3,0-0.4c0-0.1,0-0.2,0-0.3c0-0.2,0.1-0.4,0.1-0.5c0-0.1,0-0.2,0-0.3c0-0.1,0-0.2,0.1-0.4c0-0.2,0.1-0.4,0.1-0.6
		c0-0.1,0-0.2,0-0.2c0-0.1,0.1-0.2,0.1-0.4c0-0.2,0.1-0.4,0.2-0.6c0-0.1,0-0.1,0-0.2c0-0.1,0.1-0.2,0.1-0.3v0l0,0
		c0-0.1,0-0.1,0.1-0.2c0.1-0.3,0.2-0.6,0.3-0.9c0,0,0,0,0,0h0l0,0c0.1,0,0.2,0.1,0.3,0.2l0,0c0.1,0,0.3,0.1,0.4,0.2
		c0.1,0.1,0.3,0.1,0.4,0.2l0.1,0.1c0.1,0.1,0.3,0.2,0.4,0.2c0.1,0,0.1,0.1,0.2,0.1c0.2,0.1,0.4,0.3,0.6,0.4c0.1,0.1,0.3,0.2,0.4,0.3
		c0.1,0.1,0.3,0.2,0.4,0.3s0.2,0.2,0.4,0.4c0.2,0.2,0.4,0.4,0.5,0.6c0.1,0.1,0.1,0.2,0.2,0.3c0.1,0.2,0.3,0.4,0.4,0.6
		c0.1,0.2,0.2,0.4,0.4,0.7l0,0c0.6,1.2,0.9,2.4,1,3.7v21.5c0,0.3,0.1,0.6,0.4,0.9l0.2,0.2l2.2,2.2l0.2,0.2l0,0l0.7,0.7l0.2,0.2l0,0
		l-4.8,4.8l-5.9-5.9L28.8-150.4z M36-192.9c0.2-0.2,0.4-0.5,0.6-0.7s0.4-0.4,0.6-0.6c0.2-0.2,0.3-0.3,0.5-0.4
		c0.2-0.2,0.4-0.4,0.6-0.6c0.1-0.1,0.2-0.2,0.4-0.3c0.2-0.2,0.5-0.4,0.7-0.6c0.1-0.1,0.2-0.2,0.3-0.2c0.3-0.2,0.6-0.4,0.8-0.6
		c0.4-0.3,0.7-0.5,1.1-0.7l0,0l0,0l0,0l0,0c0.4,0.2,0.7,0.5,1.1,0.7c0.3,0.2,0.6,0.4,0.8,0.6l0.3,0.2c0.2,0.2,0.5,0.4,0.7,0.6
		c0.1,0.1,0.3,0.2,0.4,0.3c0.2,0.2,0.4,0.4,0.6,0.6c0.2,0.1,0.3,0.3,0.5,0.4c0.2,0.2,0.4,0.4,0.6,0.6c0.2,0.2,0.4,0.5,0.6,0.7
		c0.1,0.1,0.1,0.1,0.2,0.2l0,0l-0.2,0.1c-0.2,0.1-0.5,0.2-0.7,0.4c-0.1,0.1-0.3,0.1-0.4,0.2c-0.2,0.1-0.4,0.2-0.6,0.3
		c-0.1,0-0.1,0.1-0.2,0.1c-0.1,0-0.1,0.1-0.2,0.1c-0.1,0.1-0.2,0.1-0.3,0.2c-0.1,0-0.1,0.1-0.2,0.2c-0.1,0.1-0.2,0.1-0.3,0.2
		c0,0-0.1,0.1-0.1,0.1c0,0-0.1,0-0.1,0.1c-0.1,0-0.1,0.1-0.2,0.2c-0.2,0.2-0.4,0.3-0.6,0.5c-0.2,0.2-0.5,0.4-0.7,0.6
		c-0.1,0.1-0.2,0.1-0.2,0.2l0,0c-0.1,0.1-0.3,0.2-0.4,0.3c-0.1,0.1-0.1,0.1-0.2,0.2c-0.1,0.1-0.2,0.2-0.3,0.3
		c-0.1-0.1-0.2-0.2-0.3-0.3c-0.1-0.1-0.1-0.1-0.2-0.2c-0.1-0.1-0.2-0.2-0.4-0.3l0,0c-0.1-0.1-0.1-0.1-0.2-0.2
		c-0.2-0.2-0.5-0.4-0.7-0.6c-0.2-0.2-0.4-0.3-0.6-0.5c-0.1,0-0.1-0.1-0.2-0.2c0,0-0.1,0-0.1-0.1c0,0-0.1-0.1-0.1-0.1
		c-0.1-0.1-0.2-0.1-0.3-0.2c-0.1,0-0.1-0.1-0.2-0.2c-0.1-0.1-0.2-0.2-0.3-0.2c-0.1,0-0.1-0.1-0.2-0.1c-0.1,0-0.1-0.1-0.2-0.1
		c-0.2-0.1-0.4-0.2-0.6-0.3c-0.1-0.1-0.2-0.2-0.4-0.2c-0.2-0.1-0.5-0.2-0.7-0.4l-0.2-0.1l0,0C35.8-192.8,35.9-192.8,36-192.9z
		 M52.4-185.2L52.4-185.2c-0.2,0.1-0.3,0.1-0.5,0.2c-0.2,0.1-0.3,0.1-0.4,0.2c0,0-0.1,0-0.1,0.1c-0.1,0.1-0.3,0.1-0.4,0.2
		c-0.2,0.1-0.5,0.3-0.7,0.4l0,0l0,0c-0.1,0.1-0.2,0.2-0.3,0.2c-0.1,0.1-0.3,0.2-0.4,0.3c-0.8,0.6-1.6,1.4-2.2,2.2l0,0
		c-0.3,0.4-0.6,0.8-0.9,1.3l0,0c0,0,0,0,0,0c-0.1-0.3-0.2-0.5-0.3-0.8c0,0,0-0.1,0-0.1c-0.1-0.2-0.2-0.4-0.2-0.6
		c-0.1-0.2-0.2-0.4-0.2-0.6c-0.1-0.2-0.2-0.4-0.3-0.7c-0.1-0.2-0.1-0.3-0.2-0.4c-0.1-0.3-0.3-0.5-0.4-0.8c-0.3-0.6-0.6-1.1-1-1.6
		c-0.1-0.2-0.3-0.4-0.4-0.6l0,0c0,0,0.1-0.1,0.1-0.1c0.1-0.2,0.3-0.3,0.4-0.4c0.1-0.1,0.2-0.2,0.3-0.3c0.6-0.6,1.2-1.1,1.8-1.6l0,0
		c0.3-0.2,0.7-0.5,1-0.7l0,0c0.3-0.2,0.7-0.4,1.1-0.6l0,0c0.1-0.1,0.3-0.1,0.4-0.2c0.2-0.1,0.5-0.2,0.7-0.3l0,0
		c0.1,0.1,0.2,0.2,0.2,0.3c0.1,0.2,0.3,0.3,0.4,0.5c0,0.1,0.1,0.1,0.1,0.2c0.7,1.1,1.4,2.2,2,3.4c0.1,0.3,0.3,0.5,0.4,0.8
		C52.4-185.4,52.4-185.3,52.4-185.2z M38.6-173.8L38.6-173.8c0-0.1,0-0.2,0-0.3v-0.2c0-0.1,0-0.1,0-0.2c0,0,0-0.1,0-0.1v-0.1
		c0,0,0,0,0-0.1c0,0,0,0,0-0.1v0c0,0,0-0.1,0-0.1c0-0.3,0-0.6,0.1-1c0-0.2,0-0.3,0.1-0.5c0-0.3,0.1-0.6,0.2-1c0-0.2,0.1-0.3,0.1-0.5
		l0.1-0.5v0c0-0.1,0-0.2,0.1-0.3c0.3-1.1,0.7-2.2,1.2-3.2c0.1-0.3,0.2-0.5,0.4-0.8c0.1-0.2,0.2-0.3,0.3-0.5c0.1-0.1,0.1-0.3,0.2-0.4
		c0.2-0.3,0.4-0.6,0.6-0.9v0v0c0.2,0.3,0.4,0.6,0.6,0.9c0.1,0.1,0.2,0.3,0.2,0.4c0.1,0.2,0.2,0.3,0.3,0.5c0.1,0.2,0.3,0.5,0.4,0.8
		c0.5,1,0.9,2.1,1.2,3.2c0,0.1,0,0.2,0.1,0.3v0l0.1,0.5c0,0.2,0.1,0.3,0.1,0.5c0.1,0.3,0.1,0.6,0.2,1c0,0.2,0,0.3,0.1,0.5
		c0,0.3,0.1,0.6,0.1,1c0,0,0,0.1,0,0.1v0c0,0,0,0,0,0.1c0,0,0,0,0,0.1v0.1c0,0,0,0.1,0,0.1v0.1c0,0,0,0.1,0,0.1c0,0.1,0,0.1,0,0.2
		c0,0.1,0,0.2,0,0.3v0c0,0.1,0,0.1,0,0.2v20.1l-3.1,3.2l-3.2-3.2v-20.1C38.6-173.7,38.6-173.7,38.6-173.8z M31.2-185.5
		c0.1-0.3,0.3-0.6,0.4-0.8c0.6-1.2,1.2-2.3,2-3.4c0-0.1,0.1-0.1,0.1-0.2c0.1-0.2,0.2-0.3,0.4-0.5c0.1-0.1,0.1-0.2,0.2-0.3l0,0
		c0.2,0.1,0.5,0.2,0.7,0.3c0.1,0.1,0.3,0.1,0.4,0.2l0,0c0.4,0.2,0.7,0.4,1.1,0.6l0,0c0.3,0.2,0.7,0.4,1,0.7l0,0
		c0.6,0.5,1.3,1,1.8,1.6c0.1,0.1,0.2,0.2,0.3,0.3c0.2,0.1,0.3,0.3,0.4,0.4c0,0,0.1,0.1,0.1,0.1l0,0c-0.2,0.2-0.3,0.4-0.4,0.6
		c-0.4,0.5-0.7,1.1-1,1.6c-0.1,0.3-0.3,0.5-0.4,0.8c-0.1,0.2-0.1,0.3-0.2,0.4c-0.1,0.2-0.2,0.4-0.3,0.7c-0.1,0.2-0.2,0.4-0.3,0.6
		c-0.1,0.2-0.2,0.4-0.2,0.6c0,0,0,0.1,0,0.1c-0.1,0.3-0.2,0.5-0.3,0.8c0,0,0,0,0,0l0,0c-0.3-0.4-0.5-0.9-0.9-1.3l0,0
		c-0.6-0.8-1.4-1.6-2.2-2.2c-0.1-0.1-0.3-0.2-0.4-0.3c-0.1-0.1-0.2-0.2-0.3-0.2l0,0l0,0c-0.2-0.2-0.5-0.3-0.7-0.4
		c-0.1-0.1-0.3-0.1-0.4-0.2l-0.1-0.1c-0.1-0.1-0.3-0.1-0.4-0.2c-0.1-0.1-0.3-0.1-0.5-0.2l0,0C31.1-185.3,31.1-185.4,31.2-185.5
		L31.2-185.5z M37-142.2l4.8-4.8l0,0l4.8,4.8l0,0l-4.8,4.8L37-142.2L37-142.2z M48.2-143.9l-4.8-4.8l0,0l0.2-0.2l0.7-0.7l0.2-0.2
		l2.2-2.2l0.2-0.2c0.2-0.2,0.4-0.5,0.4-0.9v-21.5c0.1-1.3,0.4-2.5,1-3.7l0,0c0.1-0.2,0.2-0.5,0.4-0.7c0.1-0.2,0.3-0.4,0.4-0.6
		c0.1-0.1,0.1-0.2,0.2-0.3c0.2-0.2,0.3-0.4,0.5-0.6c0.1-0.1,0.2-0.2,0.3-0.4c0.1-0.1,0.2-0.2,0.4-0.3c0.1-0.1,0.3-0.2,0.4-0.3
		c0.2-0.1,0.4-0.3,0.6-0.4c0.1,0,0.1-0.1,0.2-0.1c0.1-0.1,0.3-0.2,0.4-0.2l0.1-0.1c0.1-0.1,0.3-0.1,0.4-0.2c0.1-0.1,0.2-0.1,0.4-0.2
		l0,0c0.1-0.1,0.2-0.1,0.3-0.2l0,0h0c0,0,0,0,0,0c0.1,0.3,0.2,0.6,0.3,0.9c0,0.1,0,0.1,0.1,0.2l0,0v0c0,0.1,0.1,0.2,0.1,0.3
		c0,0.1,0,0.1,0,0.2c0.1,0.2,0.1,0.4,0.2,0.6c0,0.1,0.1,0.2,0.1,0.4c0,0.1,0,0.2,0,0.2c0,0.2,0.1,0.4,0.1,0.6c0,0.1,0,0.2,0.1,0.4
		c0,0.1,0,0.2,0,0.3c0,0.2,0.1,0.3,0.1,0.5c0,0.1,0,0.2,0,0.3c0,0.1,0,0.3,0,0.4v0.1c0,0.1,0,0.3,0,0.4c0,0.1,0,0.2,0,0.3l0,0.5
		l0,0.5v0c0,0,0,0.1,0,0.1c0,0.2,0,0.3,0,0.5v0.1c0,0.2,0,0.4,0,0.5c0,0.1,0,0.2,0,0.4v23.8l-0.6,0.6L48.2-143.9z M-1.4-176
		c0.1-1.1,0.2-2.1,0.4-3.1c0,0,0-0.1,0-0.2c0.1-0.3,0.1-0.6,0.2-0.9l0-0.2c0.1-0.3,0.1-0.6,0.2-0.9l0-0.1c0.3-1,0.6-2,1-2.9
		c0.1-0.2,0.1-0.3,0.2-0.5c0.1-0.2,0.2-0.4,0.3-0.6l0,0c0.3-0.7,0.7-1.5,1.1-2.2c0.1-0.1,0.1-0.2,0.2-0.3c0.1-0.1,0.1-0.3,0.2-0.4
		s0.1-0.2,0.2-0.3c0.6-0.9,1.2-1.8,1.8-2.6c0,0,0,0,0,0c0.6-0.8,1.3-1.6,2-2.3l0.2-0.2c0.3-0.3,0.6-0.6,0.9-0.9
		c0.1-0.1,0.1-0.1,0.2-0.2c0.4-0.3,0.8-0.7,1.2-1l0.1-0.1c0.3-0.3,0.7-0.6,1.1-0.8c0.1-0.1,0.2-0.1,0.3-0.2c0.3-0.2,0.7-0.5,1-0.7
		l0.3-0.2c0.1,0,0.1-0.1,0.2-0.1c0.2-0.1,0.4-0.2,0.6-0.3c0.2-0.1,0.5-0.3,0.7-0.4c0.1-0.1,0.2-0.1,0.3-0.2l0.2-0.1
		c0.5-0.3,1-0.5,1.5-0.7c0.4-0.2,0.8-0.4,1.2-0.5l0,0c0.4-0.2,0.8-0.3,1.2-0.4c0.1,0,0.1,0,0.2-0.1c0.3-0.1,0.7-0.2,1-0.3
		c0.1,0,0.2-0.1,0.3-0.1c0.3-0.1,0.6-0.2,0.9-0.2c0.1,0,0.3-0.1,0.4-0.1c0.3-0.1,0.5-0.1,0.8-0.2c0.2,0,0.3-0.1,0.5-0.1
		c0.2,0,0.4-0.1,0.7-0.1c0.2,0,0.4-0.1,0.7-0.1l0.5,0c0.7-0.1,1.4-0.1,2.1-0.2c0.4,0,0.9,0,1.3,0c0.3,0,0.5,0,0.8,0
		c0.3,0,0.6,0,0.9,0c0.2,0,0.5,0,0.7,0.1c0.3,0,0.6,0.1,0.9,0.1c0.2,0,0.4,0.1,0.6,0.1c0.3,0.1,0.7,0.1,1,0.2c0.2,0,0.3,0.1,0.5,0.1
		c0.4,0.1,0.8,0.2,1.1,0.3c0.1,0,0.2,0.1,0.3,0.1c0.4,0.1,0.8,0.2,1.2,0.4l0.2,0.1c1,0.3,1.9,0.7,2.9,1.1l0,0c0.3,0.2,0.7,0.3,1,0.5
		c0.1,0,0.2,0.1,0.2,0.1h0l0,0c-0.4,0.3-0.7,0.5-1.1,0.8h0c-0.8,0.6-1.6,1.3-2.4,2.1l-0.2,0.2c-0.1,0.1-0.2,0.2-0.4,0.3
		c-0.2,0.2-0.4,0.4-0.6,0.6c-0.1,0.1-0.2,0.2-0.3,0.3l-0.2,0.2h0c-0.3,0.3-0.6,0.6-0.8,1h0l0,0c-0.4-0.1-0.8-0.3-1.2-0.4
		c-2.1-0.6-4.3-0.8-6.5-0.7l-0.4,0h0c0,0,0,0-0.1,0c-0.4,0-0.7,0.1-1.1,0.1c-0.1,0-0.1,0-0.2,0c-0.3,0-0.7,0.1-1,0.1
		c-0.1,0-0.1,0-0.2,0c-0.3,0.1-0.7,0.1-1,0.2c-0.1,0-0.3,0.1-0.4,0.1c-0.2,0-0.4,0.1-0.6,0.2c-2.4,0.7-4.7,1.9-6.7,3.4
		c-1.9,1.4-3.5,3.2-4.9,5.2l0,0c-0.1,0.2-0.2,0.3-0.3,0.5s-0.2,0.3-0.3,0.5l0,0c-0.4,0.6-0.7,1.3-1,1.9c0,0.1-0.1,0.2-0.1,0.2l0,0
		c-0.1,0.2-0.2,0.4-0.2,0.6l0,0c-0.1,0.2-0.1,0.4-0.2,0.6l0,0l0,0c-0.5,1.3-0.8,2.7-1,4c-0.1,0.4-0.1,0.9-0.1,1.3v0
		c0,0.3,0,0.6,0,0.9c0,0.1,0,0.1,0,0.2c0,0.1,0,0.2,0,0.3v0.2c0,0.7,0,1.4,0.1,2.1v0.1c0,0.3,0.1,0.6,0.1,0.9c0.1,0.7,0.2,1.3,0.4,2
		c0,0.1,0,0.2,0.1,0.2c0.1,0.2,0.1,0.5,0.2,0.7c0.1,0.2,0.1,0.5,0.2,0.7c0.9,2.6,2.2,5,4,7c0,0.1,0.1,0.1,0.1,0.2l-5.3,5.2l0,0
		c-0.4-0.4-0.7-0.9-1.1-1.3l-0.2-0.3c-0.3-0.4-0.6-0.8-0.9-1.2c-0.1-0.1-0.1-0.1-0.2-0.2c-0.7-1-1.3-2-1.8-3.1
		c-0.1-0.2-0.2-0.5-0.4-0.7c0-0.1-0.1-0.2-0.1-0.3c-0.1-0.2-0.2-0.5-0.3-0.7s-0.2-0.5-0.3-0.7c-0.1-0.2-0.1-0.4-0.2-0.6
		c-0.1-0.2-0.2-0.5-0.3-0.7c-0.1-0.3-0.2-0.6-0.3-0.9c0-0.1-0.1-0.3-0.1-0.4c-0.1-0.3-0.1-0.5-0.2-0.8c0-0.1-0.1-0.2-0.1-0.3
		c0-0.1,0-0.1-0.1-0.2c0-0.2-0.1-0.3-0.1-0.5c-0.1-0.6-0.2-1.1-0.3-1.7c0-0.1,0-0.1,0-0.2c0-0.3-0.1-0.6-0.1-0.9c0-0.1,0-0.3,0-0.4
		c0-0.3-0.1-0.6-0.1-0.9l0-0.3c0-0.4,0-0.7,0-1.1v-0.3c0-0.2,0-0.3,0-0.5C-1.5-174.8-1.4-175.4-1.4-176z M16.9-181.1
		c-1.4,2-2.2,4.4-2.3,6.8v0c0,0,0,0.1,0,0.1c0,0.1,0,0.2,0,0.4c0,0.1,0,0.2,0,0.3l0,0v0c0,0.4,0.1,0.7,0.1,1.1l0,0.1
		c0.1,0.4,0.1,0.8,0.2,1.1v0l0,0c0,0,0,0.1,0,0.1c0,0.2,0.1,0.3,0.1,0.5c0,0.1,0,0.1,0.1,0.2c0,0.1,0.1,0.2,0.1,0.3l0,0.1
		c0,0.1,0.1,0.2,0.1,0.3c0.1,0.2,0.1,0.3,0.2,0.5c0.1,0.2,0.2,0.4,0.3,0.7c0,0.1,0.1,0.1,0.1,0.2c0.3,0.5,0.6,1,1,1.4l0.1,0.2l0,0
		l-4.5,4.5c-1.5-1.7-2.6-3.6-3.4-5.7c0,0,0-0.1,0-0.1c-0.1-0.2-0.2-0.4-0.2-0.7S9.1-169,9-169.2c0,0,0-0.1,0-0.2c0,0,0-0.1,0-0.2
		c-0.1-0.2-0.1-0.4-0.2-0.6c0-0.1-0.1-0.2-0.1-0.4l0,0c0,0,0-0.1,0-0.1c-0.1-0.3-0.1-0.6-0.2-1l0-0.1c0-0.4-0.1-0.8-0.1-1.2l0,0
		c0-0.2,0-0.4,0-0.6v0c0-0.2,0-0.3,0-0.5v-0.2c0-0.3,0-0.6,0-1c0-0.1,0-0.3,0-0.4c0-0.2,0-0.4,0.1-0.6c0-0.2,0-0.4,0.1-0.6
		c0-0.2,0-0.3,0.1-0.5c0-0.3,0.1-0.5,0.2-0.8c0-0.1,0-0.2,0.1-0.2c0.1-0.3,0.2-0.7,0.3-1v0c1-3.3,2.9-6.2,5.5-8.4
		c2.2-2,4.9-3.3,7.8-4c0.1,0,0.3-0.1,0.4-0.1c0.3-0.1,0.5-0.1,0.8-0.2c0.2,0,0.4-0.1,0.6-0.1c0.2,0,0.5,0,0.7-0.1c0.2,0,0.4,0,0.6,0
		c0.1,0,0.1,0,0.2,0c0.3,0,0.6,0,0.8,0h0.4c0.4,0,0.8,0,1.1,0l0.1,0c0.4,0,0.8,0.1,1.2,0.1l0.1,0c0.4,0.1,0.8,0.1,1.2,0.2
		c0.4,0.1,0.7,0.2,1.1,0.3c0.1,0,0.1,0,0.2,0c-0.2,0.2-0.3,0.4-0.5,0.7c-0.1,0.1-0.2,0.3-0.2,0.4l0,0l0,0.1
		c-0.2,0.3-0.4,0.6-0.6,0.9c-0.3,0.4-0.5,0.9-0.7,1.3l-0.1,0.2c-0.1,0.2-0.2,0.5-0.4,0.7c-0.1,0.2-0.2,0.5-0.3,0.7s-0.2,0.5-0.3,0.8
		l0,0l0,0c-0.4-0.1-0.8-0.1-1.2-0.1l0,0c-0.3,0-0.5,0-0.8,0c-3.2,0-6.2,1.2-8.4,3.5C17.7-182.1,17.3-181.6,16.9-181.1L16.9-181.1z
		 M66.1-166.6l0.1-0.2c0.3-0.4,0.7-0.9,1-1.4c0-0.1,0.1-0.1,0.1-0.2c0.1-0.2,0.2-0.4,0.3-0.7c0.1-0.2,0.1-0.3,0.2-0.5
		c0-0.1,0.1-0.2,0.1-0.3l0-0.1c0-0.1,0.1-0.2,0.1-0.3c0-0.1,0-0.1,0.1-0.2c0-0.2,0.1-0.3,0.1-0.5c0,0,0-0.1,0-0.1l0,0v0
		c0.1-0.4,0.2-0.8,0.2-1.1l0-0.1c0.1-0.4,0.1-0.7,0.1-1.1v0l0,0c0-0.1,0-0.2,0-0.3c0-0.1,0-0.2,0-0.4v-0.2c0-1.1-0.2-2.3-0.5-3.4
		c-0.1-0.4-0.3-0.9-0.5-1.3c-0.1-0.3-0.2-0.5-0.4-0.8c-2.1-3.9-6.1-6.3-10.5-6.3c-0.3,0-0.6,0-0.8,0l0,0c-0.4,0-0.8,0.1-1.2,0.1l0,0
		l0,0c-0.1-0.3-0.2-0.5-0.3-0.8c-0.1-0.2-0.2-0.5-0.4-0.7c-0.1-0.2-0.2-0.5-0.3-0.7l-0.1-0.2c-0.2-0.4-0.5-0.9-0.7-1.3
		c-0.2-0.3-0.4-0.6-0.6-0.9l0-0.1l0,0c-0.1-0.1-0.2-0.3-0.2-0.4c-0.2-0.2-0.3-0.5-0.5-0.7c0.1,0,0.1,0,0.2,0
		c0.4-0.1,0.7-0.2,1.1-0.3c0.4-0.1,0.8-0.2,1.2-0.2l0.1,0c0.4-0.1,0.8-0.1,1.2-0.1l0.1,0c0.4,0,0.7,0,1.1,0H57c0.3,0,0.6,0,0.8,0
		c0.1,0,0.1,0,0.2,0c0.2,0,0.4,0,0.6,0c0.2,0,0.5,0,0.7,0.1c0.2,0,0.4,0.1,0.6,0.1c0.3,0,0.5,0.1,0.8,0.2c0.1,0,0.3,0.1,0.4,0.1
		c6.3,1.5,11.4,6.3,13.3,12.5v0c0,0.1,0,0.1,0,0.2c0.1,0.3,0.2,0.6,0.2,0.9c0,0.1,0,0.2,0.1,0.2c0.1,0.3,0.1,0.5,0.2,0.8
		c0,0.2,0.1,0.3,0.1,0.5c0,0.2,0.1,0.4,0.1,0.6c0,0.2,0.1,0.4,0.1,0.6c0,0.1,0,0.3,0,0.4c0,0.3,0,0.6,0,1v0.2c0,0.2,0,0.3,0,0.5v0
		c0,0.2,0,0.4,0,0.6l0,0c0,0.4-0.1,0.8-0.1,1.2l0,0.1c0,0.3-0.1,0.6-0.2,1c0,0,0,0.1,0,0.1l0,0c0,0.1-0.1,0.2-0.1,0.4
		c0,0.2-0.1,0.4-0.2,0.6c0,0.1,0,0.1,0,0.2c0,0.1,0,0.1,0,0.2c-0.1,0.2-0.1,0.4-0.2,0.7c-0.1,0.2-0.1,0.4-0.2,0.7c0,0,0,0.1,0,0.1
		c-0.8,2.1-1.9,4-3.4,5.7L66.1-166.6L66.1-166.6z"/>
	<g>
		<path class="st0" d="M107.2-194.9v36.9h-9.6v-36.9H107.2z"/>
		<path class="st0" d="M115.7-194.9H130c3.4,0,6,0.8,7.7,2.5c1.8,1.6,2.6,4,2.6,7.1c0,1.9-0.3,3.4-1,4.6c-0.7,1.2-1.7,2.3-3.1,3.1
			c1.4,0.3,2.5,0.7,3.5,1.2c1,0.5,1.7,1.2,2.4,2s1,1.7,1.3,2.6c0.3,1,0.4,2,0.4,3.1c0,1.7-0.3,3.3-0.9,4.6c-0.6,1.3-1.5,2.5-2.5,3.4
			c-1.1,0.9-2.4,1.6-4,2.1c-1.6,0.5-3.3,0.7-5.3,0.7h-15.4V-194.9z M125.3-180.4h1.8c3,0,4.5-1.2,4.5-3.6s-1.5-3.6-4.5-3.6h-1.8
			V-180.4z M125.3-165.4h2.1c2.4,0,4.1-0.3,5.2-0.9c1-0.6,1.6-1.6,1.6-3s-0.5-2.4-1.6-3c-1-0.6-2.8-0.9-5.2-0.9h-2.1V-165.4z"/>
		<path class="st0" d="M171.5-186.8h-11.4v6.2h10.8v8.1h-10.8v6.4h11.4v8.1h-21v-36.9h21V-186.8z"/>
		<path class="st0" d="M189.8-177.6l-11.5-17.2h11.9l5,9.6l6.2-9.6h11.9l-12.2,17.2l13.8,19.7H203l-7.4-12.1l-8.7,12.1h-11.6
			L189.8-177.6z"/>
	</g>
	<g>
		<path class="st0" d="M98.2-144.1l1.4-7.3l2.3,5.3l2.4-5.3l1.3,7.3h-1.1l-0.7-4.1l-2,4.4l-2-4.4l-0.7,4.1H98.2z"/>
		<path class="st0" d="M122.5-149.9h-2.7v1.6h2.6v1h-2.6v2.3h2.7v1h-3.7v-6.8h3.7V-149.9z"/>
		<path class="st0" d="M137.9-147l2.1,2.9h-1.3l-1.9-2.8h-0.2v2.8h-1v-6.8h1.2c0.9,0,1.5,0.2,1.9,0.5c0.4,0.4,0.7,0.9,0.7,1.5
			c0,0.5-0.1,0.9-0.4,1.2S138.4-147,137.9-147z M136.6-147.7h0.3c1,0,1.5-0.4,1.5-1.1c0-0.7-0.5-1-1.4-1h-0.4V-147.7z"/>
		<path class="st0" d="M157.6-150.5v1.2c-0.6-0.5-1.2-0.7-1.8-0.7c-0.7,0-1.3,0.3-1.8,0.8c-0.5,0.5-0.7,1.1-0.7,1.8
			c0,0.7,0.2,1.3,0.7,1.8c0.5,0.5,1.1,0.7,1.8,0.7c0.4,0,0.7-0.1,0.9-0.2c0.1-0.1,0.3-0.1,0.4-0.2c0.2-0.1,0.3-0.2,0.5-0.4v1.2
			c-0.6,0.3-1.2,0.5-1.8,0.5c-1,0-1.8-0.3-2.5-1c-0.7-0.7-1-1.5-1-2.5c0-0.9,0.3-1.6,0.9-2.3c0.7-0.8,1.6-1.2,2.7-1.2
			C156.5-151,157.1-150.8,157.6-150.5z"/>
		<path class="st0" d="M174.8-145.7h-2.9l-0.8,1.6H170l3.4-7.2l3.2,7.2h-1.1L174.8-145.7z M174.4-146.7l-1-2.3l-1.1,2.3H174.4z"/>
		<path class="st0" d="M189.2-144.1v-6.8h1.4c0.7,0,1.2,0.1,1.6,0.2c0.4,0.1,0.8,0.4,1.2,0.7c0.7,0.6,1.1,1.5,1.1,2.5
			c0,1-0.4,1.9-1.1,2.5c-0.4,0.3-0.8,0.5-1.2,0.7c-0.4,0.1-0.9,0.2-1.6,0.2H189.2z M190.2-145h0.5c0.5,0,0.8,0,1.1-0.1
			c0.3-0.1,0.6-0.3,0.8-0.5c0.5-0.5,0.8-1.1,0.8-1.8c0-0.7-0.2-1.3-0.7-1.8c-0.4-0.4-1.1-0.6-2-0.6h-0.5V-145z"/>
		<path class="st0" d="M207.1-147.5c0-1,0.3-1.8,1.1-2.5c0.7-0.7,1.5-1,2.5-1c1,0,1.8,0.3,2.5,1c0.7,0.7,1,1.5,1,2.5
			c0,1-0.3,1.8-1,2.5c-0.7,0.7-1.5,1-2.5,1c-0.9,0-1.7-0.3-2.4-0.9C207.5-145.5,207.1-146.4,207.1-147.5z M208.2-147.5
			c0,0.8,0.3,1.4,0.8,1.8c0.5,0.5,1.1,0.7,1.7,0.7c0.7,0,1.3-0.2,1.8-0.7c0.5-0.5,0.7-1.1,0.7-1.8c0-0.7-0.2-1.3-0.7-1.8
			c-0.5-0.5-1.1-0.7-1.8-0.7c-0.7,0-1.3,0.2-1.8,0.7C208.4-148.8,208.2-148.2,208.2-147.5z"/>
	</g>
	<path id="Path_206_2_" class="st1" d="M87.4-88.1v-0.3c0-0.4,0-0.8-0.1-1.2s-0.1-0.8-0.1-1.2c0-0.1,0-0.3,0-0.4
		c0-0.1,0-0.3-0.1-0.4l0-0.1c0-0.3-0.1-0.7-0.2-1c0-0.1,0-0.2,0-0.3c-0.1-0.4-0.1-0.7-0.2-1.1l0-0.2c-0.1-0.4-0.2-0.8-0.3-1.3
		c0-0.1-0.1-0.3-0.1-0.4c-0.1-0.3-0.2-0.5-0.2-0.8c-0.1-0.2-0.1-0.4-0.2-0.7c-0.1-0.2-0.1-0.3-0.2-0.5c-0.1-0.3-0.2-0.5-0.3-0.8
		c0-0.1-0.1-0.1-0.1-0.2s-0.1-0.1-0.1-0.2c-0.1-0.2-0.2-0.5-0.3-0.7c0-0.1-0.1-0.2-0.1-0.2l-0.1-0.1c-2.6-5.8-7-10.6-12.5-13.8
		c-0.1-0.1-0.3-0.2-0.4-0.3l0,0c-0.1,0-0.1-0.1-0.2-0.1c-0.7-0.4-1.4-0.8-2.2-1.1c-0.2-0.1-0.3-0.1-0.5-0.2c0,0-0.1,0-0.1,0
		c0,0-0.1,0-0.1,0c-0.3-0.1-0.6-0.3-1-0.4l-0.1,0l0,0c-1.6-0.6-3.2-1.1-4.9-1.4l-0.1,0c-0.4-0.1-0.8-0.2-1.3-0.2
		c-0.1,0-0.3,0-0.4-0.1c-0.3,0-0.6-0.1-1-0.1c-0.2,0-0.4,0-0.6-0.1c-0.2,0-0.4,0-0.6,0c-0.3,0-0.6,0-0.8,0c-0.5,0-1.1,0-1.6,0
		c-0.3,0-0.6,0-1,0c-0.2,0-0.5,0-0.7,0l-0.3,0c-0.1,0-0.3,0-0.4,0c-0.2,0-0.5,0-0.7,0.1c-0.1,0-0.2,0-0.3,0c-0.5,0.1-1,0.1-1.5,0.2
		c-0.1,0-0.2,0-0.3,0.1l-0.5,0.1h0c-0.3,0.1-0.6,0.1-0.9,0.2c0,0-0.1,0-0.1,0c-0.1,0-0.1,0-0.2,0c-0.2,0-0.4,0.1-0.6,0.2
		c-0.3,0.1-0.6,0.2-0.8,0.2c-0.1,0-0.3,0.1-0.4,0.1c-0.3,0.1-0.5,0.2-0.8,0.3h0c-0.4,0.1-0.7,0.3-1.1,0.4c-0.2,0.1-0.3,0.1-0.5,0.2
		c-0.4,0.1-0.7,0.3-1.1,0.5l-0.5,0.2c-0.2,0.1-0.5,0.2-0.7,0.3h0c-0.4,0.2-0.8,0.4-1.3,0.7c-0.4-0.2-0.8-0.5-1.3-0.7h0
		c-0.2-0.1-0.5-0.2-0.7-0.3l-0.5-0.2c-0.4-0.2-0.7-0.3-1.1-0.5c-0.2-0.1-0.3-0.1-0.5-0.2c-0.4-0.1-0.7-0.3-1.1-0.4h0
		c-0.3-0.1-0.5-0.2-0.8-0.3c-0.1,0-0.3-0.1-0.4-0.1c-0.3-0.1-0.6-0.2-0.8-0.2c-0.2-0.1-0.4-0.1-0.6-0.2l-0.2,0c0,0-0.1,0-0.1,0
		c-0.3-0.1-0.6-0.1-0.9-0.2h0l-0.5-0.1c-0.1,0-0.2,0-0.3-0.1c-0.5-0.1-1-0.2-1.5-0.2c-0.1,0-0.2,0-0.3,0c-0.2,0-0.5-0.1-0.7-0.1
		c-0.2,0-0.3,0-0.4,0l-0.3,0c-0.2,0-0.5,0-0.7,0c-0.3,0-0.6,0-1,0c-0.5,0-1,0-1.6,0c-0.3,0-0.6,0-0.8,0c-0.2,0-0.4,0-0.7,0
		s-0.4,0-0.6,0.1c-0.3,0-0.6,0.1-1,0.1c-0.1,0-0.3,0-0.4,0.1c-0.4,0.1-0.8,0.1-1.3,0.2l-0.1,0c-1.7,0.3-3.3,0.8-4.9,1.4l0,0l-0.1,0
		c-0.3,0.1-0.6,0.2-1,0.4c0,0-0.1,0-0.1,0c0,0,0,0-0.1,0c-0.2,0.1-0.3,0.1-0.5,0.2c-0.2,0.1-0.4,0.2-0.6,0.3
		c-0.6,0.3-1.1,0.5-1.6,0.8c-0.1,0-0.1,0.1-0.2,0.1l0,0c-5.7,3.2-10.2,8.1-12.9,14.1l-0.1,0.1l-0.1,0.2c-0.1,0.2-0.2,0.5-0.3,0.7
		c0,0.1-0.1,0.1-0.1,0.2c0,0.1,0,0.1-0.1,0.2c-0.1,0.3-0.2,0.5-0.3,0.8c-0.1,0.2-0.1,0.3-0.2,0.5c-0.1,0.2-0.1,0.4-0.2,0.7
		c-0.1,0.3-0.2,0.5-0.2,0.8c0,0.1-0.1,0.3-0.1,0.4c-0.1,0.4-0.2,0.8-0.3,1.3l0,0.2c-0.1,0.4-0.2,0.7-0.2,1.1c0,0.1,0,0.2,0,0.3
		c-0.1,0.3-0.1,0.7-0.2,1l0,0.1c0,0.1,0,0.3-0.1,0.4c0,0.1,0,0.3,0,0.4c0,0.4-0.1,0.8-0.1,1.2c0,0.4,0,0.8-0.1,1.2v0.3
		c0,0.1,0,0.2,0,0.2v0.1c0,0.1,0,0.3,0,0.4l0,0.8l0,0.6c0,0.3,0,0.6,0.1,0.8c0,0.2,0,0.3,0,0.5c0,0.1,0,0.2,0,0.4l0,0.2
		c0,0.1,0,0.3,0.1,0.4c0,0.2,0.1,0.4,0.1,0.6c0,0.3,0.1,0.6,0.1,0.8c0,0.2,0.1,0.5,0.1,0.7c0,0.2,0.1,0.5,0.2,0.7
		c0.1,0.3,0.2,0.7,0.3,1c0,0.1,0.1,0.3,0.1,0.4c0.2,0.5,0.3,1.1,0.5,1.6c0.1,0.2,0.1,0.4,0.2,0.5c0,0.1,0.1,0.2,0.1,0.4
		c0,0.1,0,0.1,0.1,0.2c0.1,0.2,0.1,0.4,0.2,0.5c0.1,0.2,0.1,0.4,0.2,0.5c0,0.1,0.1,0.1,0.1,0.2c0.1,0.2,0.1,0.3,0.2,0.5
		c0.1,0.3,0.2,0.5,0.4,0.8c0.1,0.2,0.2,0.3,0.2,0.5c0.1,0.2,0.3,0.5,0.4,0.7c0.1,0.2,0.2,0.3,0.3,0.5c0.1,0.2,0.3,0.5,0.4,0.7
		c0.1,0.2,0.2,0.3,0.3,0.5c0.1,0.2,0.3,0.5,0.5,0.7l0.3,0.5c0.2,0.2,0.3,0.4,0.5,0.6c0.1,0.2,0.2,0.3,0.3,0.5l0.4,0.5
		c0.4,0.5,0.8,1,1.3,1.5l0,0l0,0l1.7,1.7l0,0L6-65.1l6.3-6.3l0.5-0.5l8-8l-0.2-0.2L19.7-81c0,0-0.1-0.1-0.1-0.1
		c-0.2-0.2-0.3-0.4-0.5-0.6l0,0c-0.5-0.6-0.8-1.2-1.2-1.9c-0.1-0.2-0.2-0.4-0.3-0.6c-0.1-0.2-0.1-0.4-0.2-0.6l0,0
		c-0.2-0.6-0.3-1.1-0.4-1.7c0,0,0-0.1,0-0.1c0-0.1,0-0.3,0-0.4c0-0.1,0-0.3,0-0.4c0-0.1,0-0.2,0-0.4c0,0,0-0.1,0-0.1
		c0-0.1,0-0.3,0-0.4c0,0,0,0,0-0.1c0-0.2,0-0.4,0.1-0.6v0c0-0.2,0.1-0.4,0.1-0.6c0-0.2,0.1-0.4,0.1-0.6c0.1-0.4,0.2-0.8,0.4-1.2l0,0
		c0.1-0.2,0.2-0.4,0.3-0.6c0-0.1,0.1-0.2,0.1-0.3c0.1-0.2,0.3-0.4,0.4-0.6l0,0c0.1-0.2,0.2-0.3,0.3-0.5c0,0,0-0.1,0.1-0.1
		c0.1-0.1,0.2-0.3,0.4-0.4c0.1-0.1,0.2-0.3,0.4-0.4l0.1-0.1c0.1-0.1,0.2-0.2,0.4-0.3c0,0,0,0,0.1-0.1c0.1-0.1,0.2-0.2,0.3-0.3
		c0,0,0.1-0.1,0.2-0.1c0.1-0.1,0.3-0.2,0.4-0.3c0.2-0.1,0.3-0.2,0.5-0.3c0.2-0.1,0.3-0.2,0.5-0.3c0.1-0.1,0.3-0.1,0.4-0.2l0.1,0
		c0.2-0.1,0.3-0.1,0.4-0.2l0.1,0c0.2-0.1,0.3-0.1,0.5-0.2c0.2-0.1,0.3-0.1,0.5-0.2c0.1,0,0.3-0.1,0.4-0.1c0.1,0,0.3-0.1,0.4-0.1
		c0.3,0,0.5-0.1,0.8-0.1c0.2,0,0.3,0,0.5,0c0.2,0,0.4,0,0.6,0c0.3,0,0.6,0,0.8,0.1c0,0,0.1,0,0.1,0c-0.1,0.4-0.2,0.8-0.3,1.2l0,0v0
		c-0.1,0.4-0.2,0.8-0.3,1.2c0,0,0,0,0,0.1L27-94.1c0,0.1,0,0.2-0.1,0.3c0,0.2-0.1,0.3-0.1,0.5c-0.3,1.6-0.5,3.3-0.5,5
		c0,0.2,0,0.5,0,0.7v24.3c0,0,0,0.1,0,0.1c0,0.3,0.1,0.5,0.3,0.7l14.2,14.2c0.2,0.2,0.5,0.4,0.9,0.4l0,0c0.3,0,0.6-0.1,0.9-0.4
		l14.2-14.2c0.2-0.2,0.3-0.5,0.3-0.7c0,0,0-0.1,0-0.1v-24.3c0-0.2,0-0.4,0-0.5c0-1.7-0.2-3.5-0.5-5.2c0-0.2-0.1-0.3-0.1-0.5
		c0-0.1,0-0.2-0.1-0.3l-0.1-0.5c0,0,0,0,0-0.1c-0.1-0.4-0.2-0.8-0.3-1.2v0l0,0c-0.1-0.4-0.2-0.8-0.3-1.2c0,0,0.1,0,0.1,0
		c0.3,0,0.6-0.1,0.8-0.1c0.2,0,0.4,0,0.6,0c0.2,0,0.3,0,0.5,0c0.3,0,0.5,0.1,0.8,0.1c0.1,0,0.3,0,0.4,0.1c0.1,0,0.3,0.1,0.4,0.1
		c0.2,0,0.3,0.1,0.5,0.2c0.2,0,0.3,0.1,0.5,0.2l0.1,0c0.2,0.1,0.3,0.1,0.4,0.2l0.1,0c0.1,0.1,0.3,0.1,0.4,0.2
		c0.2,0.1,0.3,0.2,0.5,0.3c0.2,0.1,0.4,0.2,0.5,0.3c0.2,0.1,0.3,0.2,0.4,0.3c0.1,0,0.1,0.1,0.2,0.1c0.1,0.1,0.2,0.2,0.3,0.3
		c0,0,0.1,0,0.1,0.1c0.1,0.1,0.3,0.2,0.4,0.3l0.1,0.1c0.1,0.1,0.2,0.3,0.4,0.4c0.1,0.1,0.2,0.3,0.3,0.4c0,0,0,0.1,0.1,0.1
		c0.1,0.2,0.2,0.3,0.3,0.5l0,0c0.1,0.2,0.3,0.4,0.4,0.6c0.2,0.3,0.3,0.6,0.5,0.9l0,0c0.1,0.2,0.2,0.5,0.3,0.7
		c0.1,0.2,0.1,0.3,0.1,0.5c0.1,0.2,0.1,0.4,0.1,0.6c0,0,0,0,0,0c0,0.2,0.1,0.4,0.1,0.6v0c0,0.2,0,0.4,0.1,0.6v0.1l0,0.4
		c0,0,0,0.1,0,0.1c0,0.1,0,0.2,0,0.4c0,0.1,0,0.3,0,0.4c0,0.1,0,0.3,0,0.4c0,0,0,0.1,0,0.1c-0.1,0.6-0.2,1.2-0.4,1.7l0,0
		c-0.1,0.2-0.1,0.4-0.2,0.6c-0.1,0.2-0.2,0.4-0.3,0.6c-0.3,0.7-0.7,1.3-1.2,1.9l0,0c-0.2,0.2-0.3,0.4-0.5,0.6c0,0-0.1,0.1-0.1,0.1
		l-0.9,0.9l-0.2,0.2l8.6,8.6l6.2,6.2l0.1-0.1l1.7-1.7l0,0l0,0c0.4-0.5,0.9-1,1.3-1.5l0.4-0.5c0.1-0.2,0.2-0.3,0.3-0.5
		c0.2-0.2,0.3-0.4,0.5-0.6l0.3-0.5c0.2-0.2,0.3-0.5,0.5-0.7c0.1-0.2,0.2-0.3,0.3-0.5c0.1-0.2,0.3-0.5,0.4-0.7
		c0.1-0.1,0.2-0.3,0.3-0.5c0.1-0.2,0.3-0.5,0.4-0.7c0.1-0.2,0.2-0.3,0.2-0.5c0.1-0.2,0.2-0.5,0.4-0.8c0.1-0.2,0.2-0.3,0.2-0.5
		c0-0.1,0.1-0.1,0.1-0.2c0.1-0.2,0.1-0.4,0.2-0.5c0.1-0.2,0.1-0.4,0.2-0.5c0-0.1,0-0.1,0.1-0.2c0-0.1,0.1-0.2,0.1-0.4l0.2-0.5
		c0.2-0.5,0.3-1.1,0.5-1.6c0-0.1,0.1-0.3,0.1-0.4c0.1-0.3,0.2-0.7,0.3-1c0-0.2,0.1-0.3,0.1-0.5c0-0.1,0-0.1,0-0.2
		c0-0.2,0.1-0.5,0.1-0.7c0.1-0.3,0.1-0.6,0.1-0.8c0-0.2,0.1-0.4,0.1-0.6c0-0.1,0-0.3,0.1-0.4c0-0.2,0-0.4,0-0.5c0-0.2,0-0.3,0-0.5
		c0-0.3,0-0.6,0.1-0.8l0-0.6l0-0.8c0-0.1,0-0.3,0-0.4v-0.1C87.4-87.9,87.4-88,87.4-88.1z M44.1-112.6L44.1-112.6
		c0.1,0,0.2-0.1,0.2-0.1c0.3-0.2,0.7-0.3,1-0.5l0,0c0.9-0.4,1.9-0.8,2.9-1.1l0.2-0.1c0.4-0.1,0.8-0.2,1.2-0.4c0.1,0,0.2-0.1,0.3-0.1
		c0.4-0.1,0.8-0.2,1.1-0.3c0.2,0,0.3-0.1,0.5-0.1c0.3-0.1,0.7-0.1,1-0.2c0.2,0,0.4-0.1,0.6-0.1c0.3,0,0.6-0.1,0.9-0.1
		c0.2,0,0.5,0,0.7-0.1c0.3,0,0.6,0,0.9,0c0.3,0,0.5,0,0.8,0c0.4,0,0.9,0,1.3,0c0.7,0,1.4,0.1,2.1,0.2l0.5,0c0.2,0,0.4,0.1,0.7,0.1
		c0.2,0,0.4,0.1,0.7,0.1c0.2,0,0.3,0.1,0.5,0.1c0.3,0,0.5,0.1,0.8,0.2c0.1,0,0.3,0.1,0.4,0.1c0.3,0.1,0.6,0.2,0.9,0.2
		c0.1,0,0.2,0.1,0.3,0.1c0.3,0.1,0.7,0.2,1,0.3c0.1,0,0.1,0,0.2,0.1c0.4,0.1,0.8,0.3,1.2,0.4l0,0c0.4,0.2,0.8,0.3,1.2,0.5
		c0.5,0.2,1,0.5,1.5,0.7c0.2,0.1,0.4,0.2,0.5,0.3c0.2,0.1,0.5,0.3,0.7,0.4c0.2,0.1,0.4,0.2,0.6,0.3c0,0,0.1,0.1,0.2,0.1l0.3,0.2
		c0.1,0,0.2,0.1,0.2,0.2c0.3,0.2,0.5,0.4,0.8,0.6c0.1,0.1,0.2,0.1,0.3,0.2c0.4,0.3,0.7,0.5,1.1,0.8l0.1,0.1c0.4,0.3,0.8,0.7,1.2,1
		c0.1,0.1,0.1,0.1,0.2,0.2c0.3,0.3,0.6,0.6,0.9,0.9l0.2,0.2c0.7,0.7,1.4,1.5,2.1,2.3c0,0,0,0,0,0c0.7,0.8,1.3,1.7,1.8,2.6
		c0.1,0.1,0.1,0.2,0.2,0.3c0.1,0.1,0.2,0.3,0.2,0.4c0.1,0.1,0.1,0.2,0.2,0.3c0.4,0.7,0.8,1.4,1.1,2.2l0,0l0.3,0.6
		c0.1,0.2,0.1,0.3,0.2,0.5c0.4,0.9,0.7,1.8,0.9,2.8c0,0.1,0,0.1,0,0.2l0,0.1c0.1,0.3,0.2,0.6,0.2,0.9l0,0.2c0.1,0.3,0.1,0.6,0.2,0.9
		c0,0,0,0.1,0,0.2c0.2,1,0.3,2.1,0.4,3.1c0,0.6,0.1,1.1,0.1,1.7c0,0.2,0,0.3,0,0.5v0.3c0,0.4,0,0.7,0,1.1l0,0.3c0,0.3,0,0.6-0.1,0.9
		c0,0.1,0,0.3,0,0.4c0,0.3-0.1,0.6-0.1,0.9c0,0.1,0,0.1,0,0.2c-0.1,0.6-0.2,1.2-0.3,1.7c0,0.2-0.1,0.4-0.1,0.5
		c0,0.2-0.1,0.4-0.1,0.6c-0.1,0.3-0.1,0.5-0.2,0.8c0,0.1-0.1,0.3-0.1,0.4c-0.1,0.3-0.2,0.6-0.3,0.9c0,0.1-0.1,0.2-0.1,0.2
		c-0.1,0.2-0.1,0.3-0.2,0.5c-0.1,0.2-0.1,0.4-0.2,0.6c-0.1,0.2-0.2,0.5-0.3,0.7c-0.1,0.2-0.2,0.5-0.3,0.7l-0.1,0.3
		c-0.1,0.2-0.2,0.5-0.4,0.7c-0.5,1.1-1.2,2.1-1.8,3.1c-0.1,0.1-0.1,0.1-0.2,0.2c-0.3,0.4-0.6,0.8-0.9,1.2c-0.1,0.1-0.2,0.2-0.2,0.3
		c-0.4,0.4-0.7,0.9-1.1,1.3l0,0l-3.7-3.7l-1.5-1.5c0-0.1,0.1-0.1,0.1-0.2c1.8-2,3.2-4.4,4-7c0.1-0.2,0.2-0.5,0.2-0.7
		c0.1-0.2,0.1-0.5,0.2-0.7c0-0.1,0-0.1,0.1-0.2c0.2-0.7,0.3-1.3,0.4-2c0-0.3,0.1-0.6,0.1-0.9v-0.1c0.1-0.7,0.1-1.4,0.1-2.1v-0.2
		c0-0.1,0-0.2,0-0.3c0-0.1,0-0.1,0-0.2c0-0.3,0-0.6,0-0.9v0c0-0.4-0.1-0.9-0.1-1.3c-0.1-1-0.3-1.9-0.6-2.9c-0.1-0.4-0.2-0.8-0.4-1.2
		l0,0l0,0c-0.1-0.2-0.1-0.4-0.2-0.6l0,0c-0.1-0.2-0.1-0.4-0.2-0.6l0,0c0-0.1-0.1-0.2-0.1-0.2c-0.3-0.7-0.6-1.3-1-1.9l0,0
		c-0.1-0.2-0.2-0.3-0.3-0.5c-0.1-0.2-0.2-0.3-0.3-0.5l0,0c-2.7-4.2-6.8-7.2-11.6-8.6c-0.2-0.1-0.4-0.1-0.6-0.2
		c-0.1,0-0.3-0.1-0.4-0.1c-0.3-0.1-0.7-0.2-1-0.2c-0.1,0-0.1,0-0.2,0c-0.3-0.1-0.7-0.1-1-0.1c-0.1,0-0.1,0-0.2,0
		c-0.4,0-0.7-0.1-1.1-0.1c0,0,0,0-0.1,0h0l-0.4,0c-2.2-0.1-4.4,0.2-6.5,0.7c-0.4,0.1-0.8,0.3-1.3,0.4l0,0h0c-0.3-0.3-0.6-0.6-0.8-1
		h0c-0.1-0.1-0.1-0.1-0.2-0.2c-0.1-0.1-0.2-0.2-0.2-0.3c-0.2-0.2-0.4-0.4-0.6-0.6c-0.1-0.1-0.2-0.2-0.4-0.3
		c-0.1-0.1-0.1-0.1-0.2-0.2c-0.8-0.7-1.6-1.4-2.4-2.1h0C44.8-112.1,44.4-112.4,44.1-112.6L44.1-112.6z M28.8-63.9v-23.8
		c0-0.1,0-0.2,0-0.4c0-0.2,0-0.4,0-0.5v-0.1c0-0.2,0-0.3,0-0.5c0,0,0-0.1,0-0.1v0l0-0.5l0-0.5c0-0.1,0-0.2,0-0.3c0-0.1,0-0.3,0-0.4
		V-91c0-0.1,0-0.3,0-0.4c0-0.1,0-0.2,0-0.3c0-0.2,0.1-0.4,0.1-0.5c0-0.1,0-0.2,0-0.3c0-0.1,0-0.2,0.1-0.4c0-0.2,0.1-0.4,0.1-0.6
		c0-0.1,0-0.2,0-0.2c0-0.1,0.1-0.2,0.1-0.4c0-0.2,0.1-0.4,0.2-0.6c0-0.1,0-0.1,0-0.2c0-0.1,0.1-0.2,0.1-0.3v0l0,0
		c0-0.1,0-0.1,0.1-0.2c0.1-0.3,0.2-0.6,0.3-0.9c0,0,0,0,0,0h0l0,0c0.1,0,0.2,0.1,0.3,0.2l0,0c0.1,0,0.3,0.1,0.4,0.2
		c0.1,0.1,0.3,0.1,0.4,0.2l0.1,0.1c0.1,0.1,0.3,0.2,0.4,0.2c0.1,0,0.1,0.1,0.2,0.1c0.2,0.1,0.4,0.3,0.6,0.4c0.1,0.1,0.3,0.2,0.4,0.3
		s0.3,0.2,0.4,0.3s0.2,0.2,0.4,0.4c0.2,0.2,0.4,0.4,0.5,0.6c0.1,0.1,0.1,0.2,0.2,0.3c0.1,0.2,0.3,0.4,0.4,0.6
		c0.1,0.2,0.2,0.4,0.4,0.7l0,0c0.6,1.2,0.9,2.4,1,3.7v21.5c0,0.3,0.1,0.6,0.4,0.9l0.2,0.2l2.2,2.2l0.2,0.2l0,0l0.7,0.7l0.2,0.2l0,0
		l-4.8,4.8l-5.9-5.9L28.8-63.9z M36-106.4c0.2-0.2,0.4-0.5,0.6-0.7s0.4-0.4,0.6-0.6c0.2-0.2,0.3-0.3,0.5-0.4
		c0.2-0.2,0.4-0.4,0.6-0.6c0.1-0.1,0.2-0.2,0.4-0.3c0.2-0.2,0.5-0.4,0.7-0.6c0.1-0.1,0.2-0.2,0.3-0.2c0.3-0.2,0.6-0.4,0.8-0.6
		c0.4-0.3,0.7-0.5,1.1-0.7l0,0l0,0l0,0l0,0c0.4,0.2,0.7,0.5,1.1,0.7c0.3,0.2,0.6,0.4,0.8,0.6l0.3,0.2c0.2,0.2,0.5,0.4,0.7,0.6
		c0.1,0.1,0.3,0.2,0.4,0.3c0.2,0.2,0.4,0.4,0.6,0.6c0.2,0.1,0.3,0.3,0.5,0.4c0.2,0.2,0.4,0.4,0.6,0.6c0.2,0.2,0.4,0.5,0.6,0.7
		c0.1,0.1,0.1,0.1,0.2,0.2l0,0l-0.2,0.1c-0.2,0.1-0.5,0.2-0.7,0.4c-0.1,0.1-0.3,0.1-0.4,0.2c-0.2,0.1-0.4,0.2-0.6,0.3
		c-0.1,0-0.1,0.1-0.2,0.1c-0.1,0-0.1,0.1-0.2,0.1c-0.1,0.1-0.2,0.1-0.3,0.2c-0.1,0-0.1,0.1-0.2,0.2c-0.1,0.1-0.2,0.1-0.3,0.2
		c0,0-0.1,0.1-0.1,0.1c0,0-0.1,0-0.1,0.1c-0.1,0-0.1,0.1-0.2,0.2c-0.2,0.2-0.4,0.3-0.6,0.5c-0.2,0.2-0.5,0.4-0.7,0.6
		c-0.1,0.1-0.2,0.1-0.2,0.2l0,0c-0.1,0.1-0.3,0.2-0.4,0.3c-0.1,0.1-0.1,0.1-0.2,0.2c-0.1,0.1-0.2,0.2-0.3,0.3
		c-0.1-0.1-0.2-0.2-0.3-0.3c-0.1-0.1-0.1-0.1-0.2-0.2c-0.1-0.1-0.2-0.2-0.4-0.3l0,0c-0.1-0.1-0.1-0.1-0.2-0.2
		c-0.2-0.2-0.5-0.4-0.7-0.6c-0.2-0.2-0.4-0.3-0.6-0.5c-0.1,0-0.1-0.1-0.2-0.2c0,0-0.1,0-0.1-0.1c0,0-0.1-0.1-0.1-0.1
		c-0.1-0.1-0.2-0.1-0.3-0.2c-0.1,0-0.1-0.1-0.2-0.2c-0.1-0.1-0.2-0.2-0.3-0.2c-0.1,0-0.1-0.1-0.2-0.1c-0.1,0-0.1-0.1-0.2-0.1
		c-0.2-0.1-0.4-0.2-0.6-0.3c-0.1-0.1-0.2-0.2-0.4-0.2c-0.2-0.1-0.5-0.2-0.7-0.4l-0.2-0.1l0,0C35.8-106.3,35.9-106.4,36-106.4z
		 M52.4-98.7L52.4-98.7c-0.2,0.1-0.3,0.1-0.5,0.2c-0.2,0.1-0.3,0.1-0.4,0.2c0,0-0.1,0-0.1,0.1c-0.1,0.1-0.3,0.1-0.4,0.2
		c-0.2,0.1-0.5,0.3-0.7,0.4l0,0l0,0c-0.1,0.1-0.2,0.2-0.3,0.2c-0.1,0.1-0.3,0.2-0.4,0.3c-0.8,0.6-1.6,1.4-2.2,2.2l0,0
		c-0.3,0.4-0.6,0.8-0.9,1.3l0,0c0,0,0,0,0,0c-0.1-0.3-0.2-0.5-0.3-0.8c0,0,0-0.1,0-0.1c-0.1-0.2-0.2-0.4-0.2-0.6
		c-0.1-0.2-0.2-0.4-0.2-0.6c-0.1-0.2-0.2-0.4-0.3-0.7c-0.1-0.2-0.1-0.3-0.2-0.4c-0.1-0.3-0.3-0.5-0.4-0.8c-0.3-0.6-0.6-1.1-1-1.6
		c-0.1-0.2-0.3-0.4-0.4-0.6l0,0c0,0,0.1-0.1,0.1-0.1c0.1-0.2,0.3-0.3,0.4-0.4c0.1-0.1,0.2-0.2,0.3-0.3c0.6-0.6,1.2-1.1,1.8-1.6l0,0
		c0.3-0.2,0.7-0.5,1-0.7l0,0c0.3-0.2,0.7-0.4,1.1-0.6l0,0c0.1-0.1,0.3-0.1,0.4-0.2c0.2-0.1,0.5-0.2,0.7-0.3l0,0
		c0.1,0.1,0.2,0.2,0.2,0.3c0.1,0.2,0.3,0.3,0.4,0.5c0,0.1,0.1,0.1,0.1,0.2c0.7,1.1,1.4,2.2,2,3.4c0.1,0.3,0.3,0.5,0.4,0.8
		C52.4-98.9,52.4-98.8,52.4-98.7z M38.6-87.3L38.6-87.3c0-0.1,0-0.2,0-0.3v-0.2c0-0.1,0-0.1,0-0.2c0,0,0-0.1,0-0.1v-0.1
		c0,0,0,0,0-0.1c0,0,0,0,0-0.1v0c0,0,0-0.1,0-0.1c0-0.3,0-0.6,0.1-1c0-0.2,0-0.3,0.1-0.5c0-0.3,0.1-0.6,0.2-1c0-0.2,0.1-0.3,0.1-0.5
		l0.1-0.5v0c0-0.1,0-0.2,0.1-0.3c0.3-1.1,0.7-2.2,1.2-3.2c0.1-0.3,0.2-0.5,0.4-0.8c0.1-0.2,0.2-0.3,0.3-0.5c0.1-0.1,0.1-0.3,0.2-0.4
		c0.2-0.3,0.4-0.6,0.6-0.9v0v0c0.2,0.3,0.4,0.6,0.6,0.9c0.1,0.1,0.2,0.3,0.2,0.4c0.1,0.2,0.2,0.3,0.3,0.5c0.1,0.2,0.3,0.5,0.4,0.8
		c0.5,1,0.9,2.1,1.2,3.2c0,0.1,0,0.2,0.1,0.3v0l0.1,0.5c0,0.2,0.1,0.3,0.1,0.5c0.1,0.3,0.1,0.6,0.2,1c0,0.2,0,0.3,0.1,0.5
		c0,0.3,0.1,0.6,0.1,1c0,0,0,0.1,0,0.1v0c0,0,0,0,0,0.1c0,0,0,0,0,0.1v0.1c0,0,0,0.1,0,0.1v0.1c0,0,0,0.1,0,0.1c0,0.1,0,0.1,0,0.2
		c0,0.1,0,0.2,0,0.3v0c0,0.1,0,0.1,0,0.2v20.1l-3.1,3.2l-3.2-3.2v-20.1C38.6-87.2,38.6-87.3,38.6-87.3z M31.2-99
		c0.1-0.3,0.3-0.6,0.4-0.8c0.6-1.2,1.2-2.3,2-3.4c0-0.1,0.1-0.1,0.1-0.2c0.1-0.2,0.2-0.3,0.4-0.5c0.1-0.1,0.1-0.2,0.2-0.3l0,0
		c0.2,0.1,0.5,0.2,0.7,0.3c0.1,0.1,0.3,0.1,0.4,0.2l0,0c0.4,0.2,0.7,0.4,1.1,0.6l0,0c0.3,0.2,0.7,0.4,1,0.7l0,0
		c0.6,0.5,1.3,1,1.8,1.6c0.1,0.1,0.2,0.2,0.3,0.3c0.2,0.1,0.3,0.3,0.4,0.4c0,0,0.1,0.1,0.1,0.1l0,0c-0.2,0.2-0.3,0.4-0.4,0.6
		c-0.4,0.5-0.7,1.1-1,1.6c-0.1,0.3-0.3,0.5-0.4,0.8c-0.1,0.2-0.1,0.3-0.2,0.4c-0.1,0.2-0.2,0.4-0.3,0.7c-0.1,0.2-0.2,0.4-0.3,0.6
		s-0.2,0.4-0.2,0.6c0,0,0,0.1,0,0.1c-0.1,0.3-0.2,0.5-0.3,0.8c0,0,0,0,0,0l0,0c-0.3-0.4-0.5-0.9-0.9-1.3l0,0
		c-0.6-0.8-1.4-1.6-2.2-2.2c-0.1-0.1-0.3-0.2-0.4-0.3c-0.1-0.1-0.2-0.2-0.3-0.2l0,0l0,0c-0.2-0.2-0.5-0.3-0.7-0.4
		c-0.1-0.1-0.3-0.1-0.4-0.2l-0.1-0.1c-0.1-0.1-0.3-0.1-0.4-0.2c-0.1-0.1-0.3-0.1-0.5-0.2l0,0C31.1-98.8,31.1-98.9,31.2-99L31.2-99z
		 M37-55.7l4.8-4.8l0,0l4.8,4.8l0,0l-4.8,4.8L37-55.7L37-55.7z M48.2-57.4l-4.8-4.8l0,0l0.2-0.2l0.7-0.7l0.2-0.2l2.2-2.2l0.2-0.2
		c0.2-0.2,0.4-0.5,0.4-0.9v-21.5c0.1-1.3,0.4-2.5,1-3.7l0,0c0.1-0.2,0.2-0.5,0.4-0.7c0.1-0.2,0.3-0.4,0.4-0.6
		c0.1-0.1,0.1-0.2,0.2-0.3c0.2-0.2,0.3-0.4,0.5-0.6c0.1-0.1,0.2-0.2,0.3-0.4c0.1-0.1,0.2-0.2,0.4-0.3c0.1-0.1,0.3-0.2,0.4-0.3
		c0.2-0.1,0.4-0.3,0.6-0.4c0.1,0,0.1-0.1,0.2-0.1c0.1-0.1,0.3-0.2,0.4-0.2l0.1-0.1c0.1-0.1,0.3-0.1,0.4-0.2c0.1-0.1,0.2-0.1,0.4-0.2
		l0,0c0.1-0.1,0.2-0.1,0.3-0.2l0,0h0c0,0,0,0,0,0c0.1,0.3,0.2,0.6,0.3,0.9c0,0.1,0,0.1,0.1,0.2l0,0v0c0,0.1,0.1,0.2,0.1,0.3
		c0,0.1,0,0.1,0,0.2c0.1,0.2,0.1,0.4,0.2,0.6c0,0.1,0.1,0.2,0.1,0.4c0,0.1,0,0.2,0,0.2c0,0.2,0.1,0.4,0.1,0.6c0,0.1,0,0.2,0.1,0.4
		c0,0.1,0,0.2,0,0.3c0,0.2,0.1,0.3,0.1,0.5c0,0.1,0,0.2,0,0.3c0,0.1,0,0.3,0,0.4v0.1c0,0.1,0,0.3,0,0.4c0,0.1,0,0.2,0,0.3l0,0.5
		l0,0.5v0c0,0,0,0.1,0,0.1c0,0.2,0,0.3,0,0.5v0.1c0,0.2,0,0.4,0,0.5c0,0.1,0,0.2,0,0.4v23.8l-0.6,0.6L48.2-57.4z M-1.4-89.5
		c0.1-1.1,0.2-2.1,0.4-3.1c0,0,0-0.1,0-0.2c0.1-0.3,0.1-0.6,0.2-0.9l0-0.2c0.1-0.3,0.1-0.6,0.2-0.9l0-0.1c0.3-1,0.6-2,1-2.9
		c0.1-0.2,0.1-0.3,0.2-0.5c0.1-0.2,0.2-0.4,0.3-0.6l0,0c0.3-0.7,0.7-1.5,1.1-2.2c0.1-0.1,0.1-0.2,0.2-0.3c0.1-0.1,0.1-0.3,0.2-0.4
		c0.1-0.1,0.1-0.2,0.2-0.3c0.6-0.9,1.2-1.8,1.8-2.6c0,0,0,0,0,0c0.6-0.8,1.3-1.6,2-2.3l0.2-0.2c0.3-0.3,0.6-0.6,0.9-0.9
		c0.1-0.1,0.1-0.1,0.2-0.2c0.4-0.3,0.8-0.7,1.2-1l0.1-0.1c0.3-0.3,0.7-0.6,1.1-0.8c0.1-0.1,0.2-0.1,0.3-0.2c0.3-0.2,0.7-0.5,1-0.7
		l0.3-0.2c0.1,0,0.1-0.1,0.2-0.1c0.2-0.1,0.4-0.2,0.6-0.3c0.2-0.1,0.5-0.3,0.7-0.4c0.1-0.1,0.2-0.1,0.3-0.2l0.2-0.1
		c0.5-0.3,1-0.5,1.5-0.7c0.4-0.2,0.8-0.4,1.2-0.5l0,0c0.4-0.2,0.8-0.3,1.2-0.4c0.1,0,0.1,0,0.2-0.1c0.3-0.1,0.7-0.2,1-0.3
		c0.1,0,0.2-0.1,0.3-0.1c0.3-0.1,0.6-0.2,0.9-0.2c0.1,0,0.3-0.1,0.4-0.1c0.3-0.1,0.5-0.1,0.8-0.2c0.2,0,0.3-0.1,0.5-0.1
		c0.2,0,0.4-0.1,0.7-0.1c0.2,0,0.4-0.1,0.7-0.1l0.5,0c0.7-0.1,1.4-0.1,2.1-0.2c0.4,0,0.9,0,1.3,0c0.3,0,0.5,0,0.8,0
		c0.3,0,0.6,0,0.9,0c0.2,0,0.5,0,0.7,0.1c0.3,0,0.6,0.1,0.9,0.1c0.2,0,0.4,0.1,0.6,0.1c0.3,0.1,0.7,0.1,1,0.2c0.2,0,0.3,0.1,0.5,0.1
		c0.4,0.1,0.8,0.2,1.1,0.3c0.1,0,0.2,0.1,0.3,0.1c0.4,0.1,0.8,0.2,1.2,0.4l0.2,0.1c1,0.3,1.9,0.7,2.9,1.1l0,0c0.3,0.2,0.7,0.3,1,0.5
		c0.1,0,0.2,0.1,0.2,0.1h0l0,0c-0.4,0.3-0.7,0.5-1.1,0.8h0c-0.8,0.6-1.6,1.3-2.4,2.1l-0.2,0.2c-0.1,0.1-0.2,0.2-0.4,0.3
		c-0.2,0.2-0.4,0.4-0.6,0.6c-0.1,0.1-0.2,0.2-0.3,0.3l-0.2,0.2h0c-0.3,0.3-0.6,0.6-0.8,1h0l0,0c-0.4-0.1-0.8-0.3-1.2-0.4
		c-2.1-0.6-4.3-0.8-6.5-0.7l-0.4,0h0c0,0,0,0-0.1,0c-0.4,0-0.7,0.1-1.1,0.1c-0.1,0-0.1,0-0.2,0c-0.3,0-0.7,0.1-1,0.1
		c-0.1,0-0.1,0-0.2,0c-0.3,0.1-0.7,0.1-1,0.2c-0.1,0-0.3,0.1-0.4,0.1c-0.2,0-0.4,0.1-0.6,0.2c-2.4,0.7-4.7,1.9-6.7,3.4
		c-1.9,1.4-3.5,3.2-4.9,5.2l0,0c-0.1,0.2-0.2,0.3-0.3,0.5c-0.1,0.2-0.2,0.3-0.3,0.5l0,0c-0.4,0.6-0.7,1.3-1,1.9
		c0,0.1-0.1,0.2-0.1,0.2l0,0c-0.1,0.2-0.2,0.4-0.2,0.6l0,0c-0.1,0.2-0.1,0.4-0.2,0.6l0,0l0,0c-0.5,1.3-0.8,2.7-1,4
		C6.1-90.1,6-89.7,6-89.2v0c0,0.3,0,0.6,0,0.9c0,0.1,0,0.1,0,0.2c0,0.1,0,0.2,0,0.3v0.2c0,0.7,0,1.4,0.1,2.1v0.1
		c0,0.3,0.1,0.6,0.1,0.9c0.1,0.7,0.2,1.3,0.4,2c0,0.1,0,0.2,0.1,0.2c0.1,0.2,0.1,0.5,0.2,0.7c0.1,0.2,0.1,0.5,0.2,0.7
		c0.9,2.6,2.2,5,4,7c0,0.1,0.1,0.1,0.1,0.2l-5.3,5.2l0,0c-0.4-0.4-0.7-0.9-1.1-1.3l-0.2-0.3C4.3-70.6,4-71,3.7-71.4
		c-0.1-0.1-0.1-0.1-0.2-0.2c-0.7-1-1.3-2-1.8-3.1c-0.1-0.2-0.2-0.5-0.4-0.7c0-0.1-0.1-0.2-0.1-0.3c-0.1-0.2-0.2-0.5-0.3-0.7
		s-0.2-0.5-0.3-0.7c-0.1-0.2-0.1-0.4-0.2-0.6c-0.1-0.2-0.2-0.5-0.3-0.7C0-78.7-0.1-79-0.2-79.3c0-0.1-0.1-0.3-0.1-0.4
		c-0.1-0.3-0.1-0.5-0.2-0.8c0-0.1-0.1-0.2-0.1-0.3c0-0.1,0-0.1-0.1-0.2c0-0.2-0.1-0.3-0.1-0.5c-0.1-0.6-0.2-1.1-0.3-1.7
		c0-0.1,0-0.1,0-0.2c0-0.3-0.1-0.6-0.1-0.9c0-0.1,0-0.3,0-0.4c0-0.3-0.1-0.6-0.1-0.9l0-0.3c0-0.4,0-0.7,0-1.1v-0.3
		c0-0.2,0-0.3,0-0.5C-1.5-88.4-1.4-88.9-1.4-89.5z M16.9-94.6c-1.4,2-2.2,4.4-2.3,6.8v0c0,0,0,0.1,0,0.1c0,0.1,0,0.2,0,0.4
		c0,0.1,0,0.2,0,0.3l0,0v0c0,0.4,0.1,0.7,0.1,1.1l0,0.1c0.1,0.4,0.1,0.8,0.2,1.1v0l0,0c0,0,0,0.1,0,0.1c0,0.2,0.1,0.3,0.1,0.5
		c0,0.1,0,0.1,0.1,0.2c0,0.1,0.1,0.2,0.1,0.3l0,0.1c0,0.1,0.1,0.2,0.1,0.3c0.1,0.2,0.1,0.3,0.2,0.5c0.1,0.2,0.2,0.4,0.3,0.7
		c0,0.1,0.1,0.1,0.1,0.2c0.3,0.5,0.6,1,1,1.4l0.1,0.2l0,0l-4.5,4.5c-1.5-1.7-2.6-3.6-3.4-5.7c0,0,0-0.1,0-0.1
		c-0.1-0.2-0.2-0.4-0.2-0.7c-0.1-0.2-0.1-0.4-0.2-0.7c0,0,0-0.1,0-0.2c0,0,0-0.1,0-0.2c-0.1-0.2-0.1-0.4-0.2-0.6
		c0-0.1-0.1-0.2-0.1-0.4l0,0c0,0,0-0.1,0-0.1c-0.1-0.3-0.1-0.6-0.2-1l0-0.1c0-0.4-0.1-0.8-0.1-1.2l0,0c0-0.2,0-0.4,0-0.6v0
		c0-0.2,0-0.3,0-0.5v-0.2c0-0.3,0-0.6,0-1c0-0.1,0-0.3,0-0.4c0-0.2,0-0.4,0.1-0.6s0-0.4,0.1-0.6c0-0.2,0-0.3,0.1-0.5
		c0-0.3,0.1-0.5,0.2-0.8c0-0.1,0-0.2,0.1-0.2c0.1-0.3,0.2-0.7,0.3-1v0c1-3.3,2.9-6.2,5.5-8.4c2.2-2,4.9-3.3,7.8-4
		c0.1,0,0.3-0.1,0.4-0.1c0.3-0.1,0.5-0.1,0.8-0.2c0.2,0,0.4-0.1,0.6-0.1c0.2,0,0.5,0,0.7-0.1c0.2,0,0.4,0,0.6,0c0.1,0,0.1,0,0.2,0
		c0.3,0,0.6,0,0.8,0h0.4c0.4,0,0.8,0,1.1,0l0.1,0c0.4,0,0.8,0.1,1.2,0.1l0.1,0c0.4,0.1,0.8,0.1,1.2,0.2c0.4,0.1,0.7,0.2,1.1,0.3
		c0.1,0,0.1,0,0.2,0c-0.2,0.2-0.3,0.4-0.5,0.7c-0.1,0.1-0.2,0.3-0.2,0.4l0,0l0,0.1c-0.2,0.3-0.4,0.6-0.6,0.9
		c-0.3,0.4-0.5,0.9-0.7,1.3l-0.1,0.2c-0.1,0.2-0.2,0.5-0.4,0.7c-0.1,0.2-0.2,0.5-0.3,0.7c-0.1,0.2-0.2,0.5-0.3,0.8l0,0l0,0
		c-0.4-0.1-0.8-0.1-1.2-0.1l0,0c-0.3,0-0.5,0-0.8,0c-3.2,0-6.2,1.2-8.4,3.5C17.7-95.6,17.3-95.2,16.9-94.6L16.9-94.6z M66.1-80.1
		l0.1-0.2c0.3-0.4,0.7-0.9,1-1.4c0-0.1,0.1-0.1,0.1-0.2c0.1-0.2,0.2-0.4,0.3-0.7c0.1-0.2,0.1-0.3,0.2-0.5c0-0.1,0.1-0.2,0.1-0.3
		l0-0.1c0-0.1,0.1-0.2,0.1-0.3c0-0.1,0-0.1,0.1-0.2c0-0.2,0.1-0.3,0.1-0.5c0,0,0-0.1,0-0.1l0,0v0c0.1-0.4,0.2-0.8,0.2-1.1l0-0.1
		c0.1-0.4,0.1-0.7,0.1-1.1v0l0,0c0-0.1,0-0.2,0-0.3c0-0.1,0-0.2,0-0.4v-0.2c0-1.1-0.2-2.3-0.5-3.4c-0.1-0.4-0.3-0.9-0.5-1.3
		c-0.1-0.3-0.2-0.5-0.4-0.8c-2.1-3.9-6.1-6.3-10.5-6.3c-0.3,0-0.6,0-0.8,0l0,0c-0.4,0-0.8,0.1-1.2,0.1l0,0l0,0
		c-0.1-0.3-0.2-0.5-0.3-0.8c-0.1-0.2-0.2-0.5-0.4-0.7s-0.2-0.5-0.3-0.7l-0.1-0.2c-0.2-0.4-0.5-0.9-0.7-1.3c-0.2-0.3-0.4-0.6-0.6-0.9
		l0-0.1l0,0c-0.1-0.1-0.2-0.3-0.2-0.4c-0.2-0.2-0.3-0.5-0.5-0.7c0.1,0,0.1,0,0.2,0c0.4-0.1,0.7-0.2,1.1-0.3c0.4-0.1,0.8-0.2,1.2-0.2
		l0.1,0c0.4-0.1,0.8-0.1,1.2-0.1l0.1,0c0.4,0,0.7,0,1.1,0H57c0.3,0,0.6,0,0.8,0c0.1,0,0.1,0,0.2,0c0.2,0,0.4,0,0.6,0
		c0.2,0,0.5,0,0.7,0.1c0.2,0,0.4,0.1,0.6,0.1c0.3,0,0.5,0.1,0.8,0.2c0.1,0,0.3,0.1,0.4,0.1c6.3,1.5,11.4,6.3,13.3,12.5v0
		c0,0.1,0,0.1,0,0.2c0.1,0.3,0.2,0.6,0.2,0.9c0,0.1,0,0.2,0.1,0.2c0.1,0.3,0.1,0.5,0.2,0.8c0,0.2,0.1,0.3,0.1,0.5
		c0,0.2,0.1,0.4,0.1,0.6c0,0.2,0.1,0.4,0.1,0.6c0,0.1,0,0.3,0,0.4c0,0.3,0,0.6,0,1v0.2c0,0.2,0,0.3,0,0.5v0c0,0.2,0,0.4,0,0.6l0,0
		c0,0.4-0.1,0.8-0.1,1.2l0,0.1c0,0.3-0.1,0.6-0.2,1c0,0,0,0.1,0,0.1l0,0c0,0.1-0.1,0.2-0.1,0.4c0,0.2-0.1,0.4-0.2,0.6
		c0,0.1,0,0.1,0,0.2c0,0.1,0,0.1,0,0.2c-0.1,0.2-0.1,0.4-0.2,0.7c-0.1,0.2-0.1,0.4-0.2,0.7c0,0,0,0.1,0,0.1c-0.8,2.1-1.9,4-3.4,5.7
		L66.1-80.1L66.1-80.1z"/>
	<g>
		<path class="st2" d="M107.2-108.4v36.9h-9.6v-36.9H107.2z"/>
		<path class="st2" d="M115.7-108.4H130c3.4,0,6,0.8,7.7,2.5c1.8,1.6,2.6,4,2.6,7.1c0,1.9-0.3,3.4-1,4.6c-0.7,1.2-1.7,2.3-3.1,3.1
			c1.4,0.3,2.5,0.7,3.5,1.2c1,0.5,1.7,1.2,2.4,2s1,1.7,1.3,2.6c0.3,1,0.4,2,0.4,3.1c0,1.7-0.3,3.3-0.9,4.6c-0.6,1.3-1.5,2.5-2.5,3.4
			c-1.1,0.9-2.4,1.6-4,2.1c-1.6,0.5-3.3,0.7-5.3,0.7h-15.4V-108.4z M125.3-93.9h1.8c3,0,4.5-1.2,4.5-3.6s-1.5-3.6-4.5-3.6h-1.8
			V-93.9z M125.3-78.9h2.1c2.4,0,4.1-0.3,5.2-0.9c1-0.6,1.6-1.6,1.6-3s-0.5-2.4-1.6-3c-1-0.6-2.8-0.9-5.2-0.9h-2.1V-78.9z"/>
		<path class="st2" d="M171.5-100.3h-11.4v6.2h10.8v8.1h-10.8v6.4h11.4v8.1h-21v-36.9h21V-100.3z"/>
		<path class="st2" d="M189.8-91.2l-11.5-17.2h11.9l5,9.6l6.2-9.6h11.9l-12.2,17.2l13.8,19.7H203l-7.4-12.1l-8.7,12.1h-11.6
			L189.8-91.2z"/>
	</g>
	<g>
		<path class="st2" d="M98.2-57.6l1.4-7.3l2.3,5.3l2.4-5.3l1.3,7.3h-1.1l-0.7-4.1l-2,4.4l-2-4.4l-0.7,4.1H98.2z"/>
		<path class="st2" d="M122.5-63.4h-2.7v1.6h2.6v1h-2.6v2.3h2.7v1h-3.7v-6.8h3.7V-63.4z"/>
		<path class="st2" d="M137.9-60.5l2.1,2.9h-1.3l-1.9-2.8h-0.2v2.8h-1v-6.8h1.2c0.9,0,1.5,0.2,1.9,0.5c0.4,0.4,0.7,0.9,0.7,1.5
			c0,0.5-0.1,0.9-0.4,1.2S138.4-60.6,137.9-60.5z M136.6-61.2h0.3c1,0,1.5-0.4,1.5-1.1c0-0.7-0.5-1-1.4-1h-0.4V-61.2z"/>
		<path class="st2" d="M157.6-64v1.2c-0.6-0.5-1.2-0.7-1.8-0.7c-0.7,0-1.3,0.3-1.8,0.8c-0.5,0.5-0.7,1.1-0.7,1.8
			c0,0.7,0.2,1.3,0.7,1.8c0.5,0.5,1.1,0.7,1.8,0.7c0.4,0,0.7-0.1,0.9-0.2c0.1-0.1,0.3-0.1,0.4-0.2c0.2-0.1,0.3-0.2,0.5-0.4v1.2
			c-0.6,0.3-1.2,0.5-1.8,0.5c-1,0-1.8-0.3-2.5-1c-0.7-0.7-1-1.5-1-2.5c0-0.9,0.3-1.6,0.9-2.3c0.7-0.8,1.6-1.2,2.7-1.2
			C156.5-64.5,157.1-64.3,157.6-64z"/>
		<path class="st2" d="M174.8-59.2h-2.9l-0.8,1.6H170l3.4-7.2l3.2,7.2h-1.1L174.8-59.2z M174.4-60.2l-1-2.3l-1.1,2.3H174.4z"/>
		<path class="st2" d="M189.2-57.6v-6.8h1.4c0.7,0,1.2,0.1,1.6,0.2c0.4,0.1,0.8,0.4,1.2,0.7c0.7,0.6,1.1,1.5,1.1,2.5
			c0,1-0.4,1.9-1.1,2.5c-0.4,0.3-0.8,0.5-1.2,0.7c-0.4,0.1-0.9,0.2-1.6,0.2H189.2z M190.2-58.5h0.5c0.5,0,0.8,0,1.1-0.1
			c0.3-0.1,0.6-0.3,0.8-0.5c0.5-0.5,0.8-1.1,0.8-1.8c0-0.7-0.2-1.3-0.7-1.8c-0.4-0.4-1.1-0.6-2-0.6h-0.5V-58.5z"/>
		<path class="st2" d="M207.1-61c0-1,0.3-1.8,1.1-2.5c0.7-0.7,1.5-1,2.5-1c1,0,1.8,0.3,2.5,1c0.7,0.7,1,1.5,1,2.5c0,1-0.3,1.8-1,2.5
			c-0.7,0.7-1.5,1-2.5,1c-0.9,0-1.7-0.3-2.4-0.9C207.5-59,207.1-59.9,207.1-61z M208.2-61c0,0.8,0.3,1.4,0.8,1.8
			c0.5,0.5,1.1,0.7,1.7,0.7c0.7,0,1.3-0.2,1.8-0.7c0.5-0.5,0.7-1.1,0.7-1.8c0-0.7-0.2-1.3-0.7-1.8c-0.5-0.5-1.1-0.7-1.8-0.7
			c-0.7,0-1.3,0.2-1.8,0.7C208.4-62.3,208.2-61.7,208.2-61z"/>
	</g>
	<g>
		<path d="M208.3,199.1l2.2-11.3l3.6,8.2l3.8-8.2l2,11.3h-1.6l-1-6.4l-3.1,6.9l-3-6.9l-1.1,6.4H208.3z"/>
		<path d="M236,190h-4.2v2.5h4.1v1.5h-4.1v3.5h4.2v1.5h-5.8v-10.6h5.8V190z"/>
		<path d="M249.7,194.6l3.3,4.5H251l-3-4.3h-0.3v4.3h-1.6v-10.6h1.9c1.4,0,2.4,0.3,3,0.8c0.7,0.6,1,1.4,1,2.3c0,0.7-0.2,1.4-0.6,1.9
			S250.4,194.4,249.7,194.6z M247.7,193.4h0.5c1.5,0,2.3-0.6,2.3-1.7c0-1.1-0.7-1.6-2.2-1.6h-0.6V193.4z"/>
		<path d="M270.2,189.1v1.9c-0.9-0.8-1.9-1.2-2.9-1.2c-1.1,0-2,0.4-2.7,1.2c-0.7,0.8-1.1,1.7-1.1,2.8c0,1.1,0.4,2,1.1,2.8
			s1.7,1.1,2.7,1.1c0.6,0,1-0.1,1.4-0.3c0.2-0.1,0.4-0.2,0.7-0.4c0.2-0.2,0.5-0.3,0.7-0.6v1.9c-0.9,0.5-1.9,0.8-2.9,0.8
			c-1.5,0-2.8-0.5-3.9-1.6c-1.1-1.1-1.6-2.3-1.6-3.8c0-1.3,0.4-2.5,1.3-3.6c1.1-1.3,2.5-1.9,4.2-1.9
			C268.4,188.3,269.3,188.6,270.2,189.1z"/>
		<path d="M286.7,196.5h-4.5l-1.2,2.6h-1.7l5.2-11.2l5,11.2h-1.7L286.7,196.5z M286,195l-1.6-3.6l-1.6,3.6H286z"/>
		<path d="M298.9,199.1v-10.6h2.2c1.1,0,1.9,0.1,2.5,0.3c0.7,0.2,1.3,0.6,1.8,1c1.1,1,1.6,2.3,1.6,3.9c0,1.6-0.6,2.9-1.7,3.9
			c-0.6,0.5-1.2,0.8-1.8,1c-0.6,0.2-1.4,0.3-2.5,0.3H298.9z M300.5,197.6h0.7c0.7,0,1.3-0.1,1.8-0.2c0.5-0.2,0.9-0.4,1.3-0.8
			c0.8-0.7,1.2-1.6,1.2-2.8c0-1.2-0.4-2.1-1.2-2.8c-0.7-0.6-1.7-1-3.1-1h-0.7V197.6z"/>
		<path d="M316.6,193.8c0-1.5,0.5-2.8,1.6-3.8c1.1-1.1,2.4-1.6,3.9-1.6c1.5,0,2.8,0.5,3.9,1.6c1.1,1.1,1.6,2.4,1.6,3.9
			c0,1.5-0.5,2.8-1.6,3.9c-1.1,1.1-2.4,1.6-3.9,1.6c-1.4,0-2.6-0.5-3.7-1.4C317.2,196.8,316.6,195.5,316.6,193.8z M318.2,193.8
			c0,1.2,0.4,2.1,1.2,2.9c0.8,0.8,1.7,1.1,2.7,1.1c1.1,0,2-0.4,2.8-1.1c0.8-0.8,1.1-1.7,1.1-2.8c0-1.1-0.4-2.1-1.1-2.8
			c-0.7-0.8-1.7-1.1-2.8-1.1c-1.1,0-2,0.4-2.8,1.1C318.6,191.7,318.2,192.7,318.2,193.8z"/>
	</g>
	<rect x="249.6" y="-16.8" style="fill:none;" width="121" height="51.6"/>
	<text transform="matrix(1 0 0 1 249.6102 23.8883)"><tspan x="0" y="0" style="font-family:'Futura-Bold'; font-size:49px;">IBE</tspan><tspan x="81.6" y="0" style="font-family:'Futura-Bold'; font-size:49px;">X</tspan></text>
	<rect x="249.6" y="32.7" style="fill:none;" width="121" height="17.7"/>
	<text transform="matrix(1 0 0 1 249.6102 44.2549)"><tspan x="0" y="0" style="font-family:'Futura-Medium'; font-size:14px; letter-spacing:8;">MERCAD</tspan><tspan x="108.5" y="0" style="font-family:'Futura-Medium'; font-size:14px;">O</tspan></text>
	<rect x="203.3" y="58" style="fill:none;" width="117.1" height="8.7"/>
	<text transform="matrix(1 0 0 1 203.2601 65.3938)"><tspan x="0" y="0" style="font-family:'Futura-Medium'; font-size:9px; letter-spacing:11;">MERCAD</tspan><tspan x="109.1" y="0" style="font-family:'Futura-Medium'; font-size:9px;">O</tspan></text>
	<path id="Path_206_1_" class="st0" d="M90,29.7v-0.3c0-0.4,0-0.8-0.1-1.2c0-0.4-0.1-0.8-0.1-1.2c0-0.1,0-0.3,0-0.4
		c0-0.1,0-0.3-0.1-0.4l0-0.1c0-0.3-0.1-0.7-0.2-1c0-0.1,0-0.2,0-0.3c-0.1-0.4-0.1-0.7-0.2-1.1l0-0.2c-0.1-0.4-0.2-0.8-0.3-1.2
		c0-0.1-0.1-0.3-0.1-0.4c-0.1-0.3-0.1-0.5-0.2-0.8c-0.1-0.2-0.1-0.4-0.2-0.6c-0.1-0.2-0.1-0.3-0.2-0.5c-0.1-0.3-0.2-0.5-0.3-0.8
		c0-0.1-0.1-0.1-0.1-0.2c0-0.1-0.1-0.1-0.1-0.2c-0.1-0.2-0.2-0.5-0.3-0.7c0-0.1-0.1-0.2-0.1-0.2l-0.1-0.1C84.7,12.1,80.4,7.3,75,4.1
		c-0.1-0.1-0.3-0.2-0.4-0.3l0,0c-0.1,0-0.1-0.1-0.2-0.1c-0.7-0.4-1.4-0.7-2.1-1.1c-0.1-0.1-0.3-0.1-0.4-0.2c0,0,0,0-0.1,0
		c0,0-0.1,0-0.1,0c-0.3-0.1-0.6-0.3-0.9-0.4l-0.1,0l0,0c-1.6-0.6-3.2-1.1-4.8-1.4l-0.1,0c-0.4-0.1-0.8-0.1-1.3-0.2
		c-0.1,0-0.3,0-0.4-0.1c-0.3,0-0.6-0.1-1-0.1c-0.2,0-0.4,0-0.6-0.1s-0.4,0-0.6,0c-0.3,0-0.6,0-0.8,0c-0.5,0-1,0-1.5,0
		c-0.3,0-0.6,0-0.9,0c-0.2,0-0.5,0-0.7,0l-0.3,0c-0.1,0-0.3,0-0.4,0c-0.2,0-0.5,0-0.7,0.1c-0.1,0-0.2,0-0.3,0
		c-0.5,0.1-1,0.1-1.5,0.2c-0.1,0-0.2,0-0.3,0.1l-0.5,0.1h0c-0.3,0.1-0.6,0.1-0.8,0.2c0,0-0.1,0-0.1,0c-0.1,0-0.1,0-0.2,0
		C52.4,1,52.2,1,52,1.1c-0.3,0.1-0.6,0.1-0.8,0.2c-0.1,0-0.3,0.1-0.4,0.1c-0.3,0.1-0.5,0.2-0.8,0.3h0c-0.4,0.1-0.7,0.3-1.1,0.4
		c-0.2,0.1-0.3,0.1-0.5,0.2c-0.4,0.1-0.7,0.3-1,0.5L46.9,3c-0.2,0.1-0.5,0.2-0.7,0.3h0C45.8,3.5,45.4,3.7,45,4
		c-0.4-0.2-0.8-0.5-1.2-0.7h0c-0.2-0.1-0.5-0.2-0.7-0.3l-0.5-0.2c-0.3-0.2-0.7-0.3-1-0.5c-0.2-0.1-0.3-0.1-0.5-0.2
		C40.8,2,40.4,1.8,40,1.7h0c-0.3-0.1-0.5-0.2-0.8-0.3c-0.1,0-0.3-0.1-0.4-0.1c-0.3-0.1-0.5-0.2-0.8-0.2C37.8,1,37.7,1,37.5,0.9
		l-0.2,0c0,0-0.1,0-0.1,0c-0.3-0.1-0.6-0.1-0.8-0.2h0l-0.5-0.1c-0.1,0-0.2,0-0.3-0.1c-0.5-0.1-1-0.2-1.5-0.2c-0.1,0-0.2,0-0.3,0
		c-0.2,0-0.5-0.1-0.7-0.1c-0.1,0-0.3,0-0.4,0l-0.3,0c-0.2,0-0.5,0-0.7,0c-0.3,0-0.6,0-0.9,0c-0.5,0-1,0-1.5,0c-0.3,0-0.5,0-0.8,0
		c-0.2,0-0.4,0-0.6,0s-0.4,0-0.6,0.1c-0.3,0-0.6,0.1-1,0.1c-0.1,0-0.3,0-0.4,0.1c-0.4,0.1-0.8,0.1-1.3,0.2l-0.1,0
		C22.7,0.9,21,1.4,19.5,2l0,0l-0.1,0c-0.3,0.1-0.6,0.2-0.9,0.4c0,0-0.1,0-0.1,0c0,0,0,0-0.1,0c-0.1,0.1-0.3,0.1-0.4,0.2
		c-0.2,0.1-0.4,0.2-0.5,0.3c-0.5,0.3-1.1,0.5-1.6,0.8c-0.1,0-0.1,0.1-0.2,0.1l0,0c-5.6,3.2-10.1,8-12.7,13.9l-0.1,0.1l-0.1,0.2
		c-0.1,0.2-0.2,0.5-0.3,0.7c0,0.1-0.1,0.1-0.1,0.2c0,0.1,0,0.1-0.1,0.2C2,19.4,1.9,19.7,1.8,20c-0.1,0.2-0.1,0.3-0.2,0.5
		c-0.1,0.2-0.1,0.4-0.2,0.6c-0.1,0.3-0.2,0.5-0.2,0.8c0,0.1-0.1,0.3-0.1,0.4c-0.1,0.4-0.2,0.8-0.3,1.2l0,0.2
		c-0.1,0.4-0.2,0.7-0.2,1.1c0,0.1,0,0.2,0,0.3c-0.1,0.3-0.1,0.7-0.2,1l0,0.1c0,0.1,0,0.3-0.1,0.4c0,0.1,0,0.3,0,0.4
		c0,0.4-0.1,0.8-0.1,1.2S0,29,0,29.4v0.3c0,0.1,0,0.2,0,0.2v0.1c0,0.1,0,0.3,0,0.4l0,0.8l0,0.6c0,0.3,0,0.6,0.1,0.8
		c0,0.2,0,0.3,0,0.5c0,0.1,0,0.2,0,0.4l0,0.2c0,0.1,0,0.3,0.1,0.4c0,0.2,0.1,0.4,0.1,0.6c0,0.3,0.1,0.6,0.1,0.8
		c0,0.2,0.1,0.5,0.1,0.7c0,0.2,0.1,0.5,0.2,0.7c0.1,0.3,0.2,0.7,0.3,1c0,0.1,0.1,0.3,0.1,0.4C1.3,39,1.5,39.5,1.7,40
		c0.1,0.2,0.1,0.4,0.2,0.5c0,0.1,0.1,0.2,0.1,0.3C2,40.9,2,41,2,41c0.1,0.2,0.1,0.3,0.2,0.5c0.1,0.2,0.1,0.4,0.2,0.5
		c0,0.1,0.1,0.1,0.1,0.2c0.1,0.2,0.1,0.3,0.2,0.5C2.9,43,3,43.3,3.1,43.5c0.1,0.2,0.2,0.3,0.2,0.5c0.1,0.2,0.3,0.5,0.4,0.7
		C3.9,44.9,3.9,45,4,45.2c0.1,0.2,0.3,0.5,0.4,0.7c0.1,0.1,0.2,0.3,0.3,0.4C4.9,46.5,5,46.8,5.2,47l0.3,0.4c0.2,0.2,0.3,0.4,0.5,0.6
		c0.1,0.1,0.2,0.3,0.3,0.5l0.4,0.5c0.4,0.5,0.8,1,1.2,1.5l0,0l0,0l1.7,1.7l0,0l0.1,0.1l6.3-6.3l0.5-0.5l7.9-7.9l-0.2-0.2l-0.9-0.9
		c0,0-0.1-0.1-0.1-0.1c-0.2-0.2-0.3-0.4-0.5-0.5l0,0c-0.5-0.6-0.8-1.2-1.1-1.8c-0.1-0.2-0.2-0.4-0.3-0.6c-0.1-0.2-0.1-0.4-0.2-0.6
		l0,0c-0.2-0.6-0.3-1.1-0.4-1.7c0,0,0-0.1,0-0.1c0-0.1,0-0.3,0-0.4c0-0.1,0-0.3,0-0.4c0-0.1,0-0.2,0-0.4c0,0,0-0.1,0-0.1
		c0-0.1,0-0.3,0-0.4c0,0,0,0,0-0.1c0-0.2,0-0.4,0.1-0.6v0c0-0.2,0.1-0.4,0.1-0.6c0-0.2,0.1-0.4,0.1-0.6c0.1-0.4,0.2-0.8,0.4-1.2l0,0
		c0.1-0.2,0.2-0.4,0.3-0.6c0-0.1,0.1-0.2,0.1-0.3c0.1-0.2,0.3-0.4,0.4-0.6l0,0c0.1-0.2,0.2-0.3,0.3-0.5c0,0,0-0.1,0.1-0.1
		c0.1-0.1,0.2-0.3,0.3-0.4c0.1-0.1,0.2-0.3,0.4-0.4l0.1-0.1c0.1-0.1,0.2-0.2,0.4-0.3c0,0,0,0,0.1-0.1c0.1-0.1,0.2-0.2,0.3-0.3
		c0,0,0.1-0.1,0.2-0.1c0.1-0.1,0.3-0.2,0.4-0.3c0.2-0.1,0.3-0.2,0.5-0.3c0.2-0.1,0.3-0.2,0.5-0.3c0.1-0.1,0.3-0.1,0.4-0.2l0.1,0
		c0.1-0.1,0.3-0.1,0.4-0.2l0.1,0c0.2-0.1,0.3-0.1,0.5-0.2c0.2-0.1,0.3-0.1,0.5-0.1c0.1,0,0.3-0.1,0.4-0.1c0.1,0,0.3-0.1,0.4-0.1
		c0.3,0,0.5-0.1,0.8-0.1c0.2,0,0.3,0,0.5,0c0.2,0,0.4,0,0.6,0c0.3,0,0.6,0,0.8,0.1c0,0,0.1,0,0.1,0c-0.1,0.4-0.2,0.8-0.3,1.2l0,0v0
		c-0.1,0.4-0.2,0.8-0.3,1.2c0,0,0,0,0,0.1l-0.1,0.5c0,0.1,0,0.2-0.1,0.3c0,0.2-0.1,0.3-0.1,0.5c-0.3,1.6-0.5,3.3-0.5,4.9
		c0,0.2,0,0.5,0,0.7v24c0,0,0,0.1,0,0.1c0,0.3,0.1,0.5,0.3,0.7l14,14c0.2,0.2,0.5,0.4,0.8,0.4l0,0c0.3,0,0.6-0.1,0.8-0.4l14-14
		c0.2-0.2,0.3-0.5,0.3-0.7c0,0,0-0.1,0-0.1v-24c0-0.2,0-0.4,0-0.5c0-1.7-0.2-3.4-0.5-5.1c0-0.2-0.1-0.3-0.1-0.5c0-0.1,0-0.2-0.1-0.3
		l-0.1-0.5c0,0,0,0,0-0.1c-0.1-0.4-0.2-0.8-0.3-1.2v0l0,0c-0.1-0.4-0.2-0.8-0.3-1.2c0,0,0.1,0,0.1,0c0.3,0,0.5-0.1,0.8-0.1
		c0.2,0,0.4,0,0.6,0c0.2,0,0.3,0,0.5,0c0.3,0,0.5,0.1,0.8,0.1c0.1,0,0.3,0,0.4,0.1c0.1,0,0.3,0.1,0.4,0.1c0.2,0,0.3,0.1,0.5,0.1
		c0.2,0,0.3,0.1,0.5,0.2l0.1,0c0.1,0.1,0.3,0.1,0.4,0.2l0.1,0c0.1,0.1,0.3,0.1,0.4,0.2c0.2,0.1,0.3,0.2,0.5,0.3
		c0.2,0.1,0.3,0.2,0.5,0.3c0.1,0.1,0.3,0.2,0.4,0.3c0.1,0,0.1,0.1,0.2,0.1c0.1,0.1,0.2,0.2,0.3,0.3c0,0,0,0,0.1,0.1
		c0.1,0.1,0.3,0.2,0.4,0.3l0.1,0.1c0.1,0.1,0.2,0.3,0.4,0.4c0.1,0.1,0.2,0.3,0.3,0.4c0,0,0,0.1,0.1,0.1c0.1,0.1,0.2,0.3,0.3,0.5l0,0
		c0.1,0.2,0.3,0.4,0.4,0.6c0.2,0.3,0.3,0.6,0.4,0.9l0,0c0.1,0.2,0.2,0.5,0.3,0.7c0.1,0.2,0.1,0.3,0.1,0.5c0.1,0.2,0.1,0.4,0.1,0.6
		c0,0,0,0,0,0c0,0.2,0.1,0.4,0.1,0.6v0c0,0.2,0,0.4,0.1,0.6v0.1l0,0.4c0,0,0,0.1,0,0.1c0,0.1,0,0.2,0,0.4c0,0.1,0,0.3,0,0.4
		c0,0.1,0,0.3,0,0.4c0,0,0,0.1,0,0.1c-0.1,0.6-0.2,1.1-0.4,1.7l0,0c-0.1,0.2-0.1,0.4-0.2,0.6c-0.1,0.2-0.2,0.4-0.3,0.6
		c-0.3,0.7-0.7,1.3-1.1,1.8l0,0c-0.1,0.2-0.3,0.4-0.5,0.5c0,0-0.1,0.1-0.1,0.1l-0.9,0.9l-0.2,0.2l8.5,8.5l6.1,6.1l0.1-0.1l1.7-1.7
		l0,0l0,0c0.4-0.5,0.9-1,1.2-1.5l0.4-0.5c0.1-0.2,0.2-0.3,0.3-0.5c0.2-0.2,0.3-0.4,0.5-0.6l0.3-0.4c0.2-0.2,0.3-0.4,0.4-0.7
		c0.1-0.1,0.2-0.3,0.3-0.4c0.1-0.2,0.3-0.5,0.4-0.7c0.1-0.1,0.2-0.3,0.3-0.5c0.1-0.2,0.3-0.5,0.4-0.7c0.1-0.2,0.2-0.3,0.2-0.5
		c0.1-0.2,0.2-0.5,0.4-0.7c0.1-0.2,0.1-0.3,0.2-0.5c0-0.1,0.1-0.1,0.1-0.2c0.1-0.2,0.1-0.4,0.2-0.5c0.1-0.2,0.1-0.4,0.2-0.5
		c0-0.1,0-0.1,0.1-0.2c0-0.1,0.1-0.2,0.1-0.3l0.2-0.5c0.2-0.5,0.3-1,0.5-1.6c0-0.1,0.1-0.3,0.1-0.4c0.1-0.3,0.2-0.7,0.3-1
		c0-0.2,0.1-0.3,0.1-0.5c0-0.1,0-0.1,0-0.2c0-0.2,0.1-0.5,0.1-0.7c0.1-0.3,0.1-0.6,0.1-0.8c0-0.2,0.1-0.4,0.1-0.6
		c0-0.1,0-0.3,0.1-0.4c0-0.2,0-0.4,0-0.5c0-0.2,0-0.3,0-0.5c0-0.3,0-0.6,0.1-0.8l0-0.6l0-0.8c0-0.1,0-0.3,0-0.4v-0.1
		C90,29.9,90,29.8,90,29.7z M47.3,5.4L47.3,5.4c0.1,0,0.2-0.1,0.2-0.1c0.3-0.2,0.7-0.3,1-0.5l0,0c0.9-0.4,1.9-0.8,2.8-1.1l0.2-0.1
		c0.4-0.1,0.8-0.2,1.2-0.4c0.1,0,0.2-0.1,0.3-0.1c0.4-0.1,0.7-0.2,1.1-0.3c0.2,0,0.3-0.1,0.5-0.1c0.3-0.1,0.7-0.1,1-0.2
		c0.2,0,0.4-0.1,0.6-0.1c0.3,0,0.6-0.1,0.9-0.1c0.2,0,0.5,0,0.7-0.1c0.3,0,0.6,0,0.9,0c0.3,0,0.5,0,0.8,0c0.4,0,0.9,0,1.3,0
		c0.7,0,1.4,0.1,2.1,0.2l0.5,0c0.2,0,0.4,0.1,0.6,0.1c0.2,0,0.4,0.1,0.7,0.1c0.2,0,0.3,0.1,0.5,0.1C65.5,3,65.7,3,66,3.1
		c0.1,0,0.3,0.1,0.4,0.1c0.3,0.1,0.6,0.1,0.9,0.2c0.1,0,0.2,0.1,0.3,0.1c0.3,0.1,0.7,0.2,1,0.3c0.1,0,0.1,0,0.2,0.1
		c0.4,0.1,0.8,0.3,1.1,0.4l0,0c0.4,0.2,0.8,0.3,1.2,0.5c0.5,0.2,1,0.5,1.5,0.7c0.2,0.1,0.3,0.2,0.5,0.3c0.2,0.1,0.5,0.3,0.7,0.4
		c0.2,0.1,0.4,0.2,0.6,0.3c0,0,0.1,0.1,0.2,0.1l0.3,0.2c0.1,0,0.1,0.1,0.2,0.1c0.3,0.2,0.5,0.4,0.8,0.5c0.1,0.1,0.2,0.1,0.3,0.2
		c0.4,0.3,0.7,0.5,1.1,0.8l0.1,0.1c0.4,0.3,0.8,0.6,1.1,1c0.1,0.1,0.1,0.1,0.2,0.2c0.3,0.3,0.6,0.6,0.9,0.9l0.2,0.2
		c0.7,0.7,1.4,1.5,2,2.3c0,0,0,0,0,0c0.6,0.8,1.2,1.7,1.8,2.6c0.1,0.1,0.1,0.2,0.2,0.3s0.1,0.3,0.2,0.4c0.1,0.1,0.1,0.2,0.2,0.3
		c0.4,0.7,0.7,1.4,1.1,2.1l0,0l0.3,0.6c0.1,0.2,0.1,0.3,0.2,0.5c0.4,0.9,0.7,1.8,0.9,2.7c0,0.1,0,0.1,0,0.2l0,0.1
		c0.1,0.3,0.2,0.6,0.2,0.9l0,0.2c0.1,0.3,0.1,0.6,0.2,0.9c0,0,0,0.1,0,0.1c0.2,1,0.3,2.1,0.4,3.1c0,0.6,0.1,1.1,0.1,1.7
		c0,0.2,0,0.3,0,0.5v0.3c0,0.4,0,0.7,0,1.1l0,0.3c0,0.3,0,0.6-0.1,0.9c0,0.1,0,0.3,0,0.4c0,0.3-0.1,0.6-0.1,0.9c0,0.1,0,0.1,0,0.2
		c-0.1,0.6-0.2,1.1-0.3,1.7c0,0.2-0.1,0.3-0.1,0.5c0,0.2-0.1,0.4-0.1,0.5c-0.1,0.3-0.1,0.5-0.2,0.8c0,0.1-0.1,0.3-0.1,0.4
		c-0.1,0.3-0.2,0.6-0.3,0.9c0,0.1-0.1,0.1-0.1,0.2c-0.1,0.2-0.1,0.3-0.2,0.5s-0.1,0.4-0.2,0.6c-0.1,0.2-0.2,0.5-0.3,0.7
		c-0.1,0.2-0.2,0.5-0.3,0.7l-0.1,0.3c-0.1,0.2-0.2,0.5-0.4,0.7c-0.5,1-1.1,2.1-1.8,3c-0.1,0.1-0.1,0.1-0.2,0.2
		c-0.3,0.4-0.6,0.8-0.9,1.2c-0.1,0.1-0.2,0.2-0.2,0.3c-0.4,0.4-0.7,0.9-1.1,1.3l0,0l-3.6-3.6l-1.5-1.5c0-0.1,0.1-0.1,0.1-0.2
		c1.8-2,3.1-4.4,4-6.9c0.1-0.2,0.1-0.4,0.2-0.7c0.1-0.2,0.1-0.5,0.2-0.7c0-0.1,0-0.1,0.1-0.2c0.2-0.6,0.3-1.3,0.4-2
		c0-0.3,0.1-0.6,0.1-0.9v-0.1c0.1-0.7,0.1-1.4,0.1-2.1v-0.1c0-0.1,0-0.2,0-0.3c0-0.1,0-0.1,0-0.2c0-0.3,0-0.6,0-0.9v0
		c0-0.4-0.1-0.9-0.1-1.3c-0.1-1-0.3-1.9-0.6-2.8c-0.1-0.4-0.2-0.8-0.4-1.2l0,0l0,0c-0.1-0.2-0.1-0.4-0.2-0.6l0,0
		c-0.1-0.2-0.1-0.4-0.2-0.6l0,0c0-0.1-0.1-0.2-0.1-0.2c-0.3-0.6-0.6-1.3-0.9-1.9l0,0c-0.1-0.2-0.2-0.3-0.3-0.5s-0.2-0.3-0.3-0.5l0,0
		c-2.7-4.1-6.7-7.1-11.4-8.5c-0.2-0.1-0.4-0.1-0.6-0.2c-0.1,0-0.3-0.1-0.4-0.1c-0.3-0.1-0.7-0.2-1-0.2c-0.1,0-0.1,0-0.2,0
		c-0.3-0.1-0.6-0.1-1-0.1c-0.1,0-0.1,0-0.2,0c-0.3,0-0.7-0.1-1-0.1c0,0,0,0-0.1,0h0l-0.4,0c-2.1-0.1-4.3,0.2-6.4,0.7
		c-0.4,0.1-0.8,0.3-1.2,0.4l0,0h0c-0.3-0.3-0.6-0.6-0.8-1h0c-0.1-0.1-0.1-0.1-0.2-0.2C52.1,9.6,52,9.5,52,9.4
		c-0.2-0.2-0.4-0.4-0.6-0.6c-0.1-0.1-0.2-0.2-0.4-0.3c-0.1-0.1-0.1-0.1-0.2-0.2c-0.8-0.7-1.6-1.4-2.4-2h0C48,5.9,47.7,5.7,47.3,5.4
		L47.3,5.4z M32.2,53.5V30.1c0-0.1,0-0.2,0-0.4c0-0.2,0-0.4,0-0.5v-0.1c0-0.2,0-0.3,0-0.5c0,0,0-0.1,0-0.1v0l0-0.5l0-0.5
		c0-0.1,0-0.2,0-0.3c0-0.1,0-0.3,0-0.4v-0.1c0-0.1,0-0.3,0-0.4c0-0.1,0-0.2,0-0.3c0-0.2,0.1-0.3,0.1-0.5c0-0.1,0-0.2,0-0.3
		c0-0.1,0-0.2,0.1-0.4c0-0.2,0.1-0.4,0.1-0.6c0-0.1,0-0.2,0-0.2c0-0.1,0.1-0.2,0.1-0.4c0-0.2,0.1-0.4,0.2-0.6c0-0.1,0-0.1,0-0.2
		c0-0.1,0.1-0.2,0.1-0.3v0l0,0c0-0.1,0-0.1,0.1-0.2c0.1-0.3,0.2-0.6,0.3-0.9c0,0,0,0,0,0h0l0,0c0.1,0,0.2,0.1,0.3,0.1l0,0
		c0.1,0,0.3,0.1,0.4,0.2c0.1,0.1,0.3,0.1,0.4,0.2l0.1,0.1c0.1,0.1,0.3,0.2,0.4,0.2c0.1,0,0.1,0.1,0.2,0.1c0.2,0.1,0.4,0.3,0.5,0.4
		c0.1,0.1,0.3,0.2,0.4,0.3c0.1,0.1,0.2,0.2,0.4,0.3c0.1,0.1,0.2,0.2,0.3,0.4c0.2,0.2,0.4,0.4,0.5,0.6c0.1,0.1,0.1,0.2,0.2,0.3
		c0.1,0.2,0.3,0.4,0.4,0.6c0.1,0.2,0.2,0.4,0.4,0.7l0,0c0.6,1.1,0.9,2.4,0.9,3.6v21.2c0,0.3,0.1,0.6,0.4,0.8l0.2,0.2l2.2,2.2
		l0.2,0.2l0,0l0.7,0.7l0.2,0.2l0,0l-4.7,4.7l-5.8-5.8L32.2,53.5z M39.3,11.6c0.2-0.2,0.4-0.4,0.6-0.7c0.2-0.2,0.4-0.4,0.6-0.6
		c0.1-0.1,0.3-0.3,0.5-0.4c0.2-0.2,0.4-0.4,0.6-0.6c0.1-0.1,0.2-0.2,0.4-0.3c0.2-0.2,0.5-0.4,0.7-0.6c0.1-0.1,0.2-0.1,0.3-0.2
		c0.3-0.2,0.6-0.4,0.8-0.6C44.3,7.2,44.6,7,45,6.7l0,0l0,0l0,0l0,0c0.4,0.2,0.7,0.5,1.1,0.7c0.3,0.2,0.6,0.4,0.8,0.6l0.3,0.2
		c0.2,0.2,0.5,0.4,0.7,0.6C48,9,48.2,9.1,48.3,9.2c0.2,0.2,0.4,0.4,0.6,0.6c0.2,0.1,0.3,0.3,0.5,0.4c0.2,0.2,0.4,0.4,0.6,0.6
		c0.2,0.2,0.4,0.4,0.6,0.7c0.1,0.1,0.1,0.1,0.2,0.2l0,0l-0.2,0.1c-0.2,0.1-0.5,0.2-0.7,0.4c-0.1,0.1-0.3,0.1-0.4,0.2
		c-0.2,0.1-0.4,0.2-0.6,0.3c-0.1,0-0.1,0.1-0.2,0.1c-0.1,0-0.1,0.1-0.2,0.1c-0.1,0.1-0.2,0.1-0.3,0.2c-0.1,0-0.1,0.1-0.2,0.1
		c-0.1,0.1-0.2,0.1-0.3,0.2c0,0-0.1,0.1-0.1,0.1c0,0-0.1,0-0.1,0.1c-0.1,0-0.1,0.1-0.2,0.1c-0.2,0.2-0.4,0.3-0.6,0.5
		c-0.2,0.2-0.5,0.4-0.7,0.6c-0.1,0.1-0.1,0.1-0.2,0.2l0,0c-0.1,0.1-0.2,0.2-0.4,0.3c-0.1,0.1-0.1,0.1-0.2,0.2
		c-0.1,0.1-0.2,0.2-0.3,0.3c-0.1-0.1-0.2-0.2-0.3-0.3c-0.1-0.1-0.1-0.1-0.2-0.2c-0.1-0.1-0.2-0.2-0.4-0.3l0,0
		c-0.1-0.1-0.1-0.1-0.2-0.2c-0.2-0.2-0.5-0.4-0.7-0.6c-0.2-0.2-0.4-0.3-0.6-0.5c-0.1,0-0.1-0.1-0.2-0.1c0,0-0.1,0-0.1-0.1
		c0,0-0.1-0.1-0.1-0.1c-0.1-0.1-0.2-0.1-0.3-0.2c-0.1,0-0.1-0.1-0.2-0.1c-0.1-0.1-0.2-0.2-0.3-0.2c-0.1,0-0.1-0.1-0.2-0.1
		c-0.1,0-0.1-0.1-0.2-0.1c-0.2-0.1-0.4-0.2-0.6-0.3c-0.1-0.1-0.2-0.1-0.4-0.2c-0.2-0.1-0.5-0.2-0.7-0.4l-0.2-0.1l0,0
		C39.2,11.7,39.3,11.6,39.3,11.6z M55.5,19.1L55.5,19.1c-0.2,0.1-0.3,0.1-0.5,0.2c-0.1,0.1-0.3,0.1-0.4,0.2c0,0-0.1,0-0.1,0.1
		c-0.1,0.1-0.3,0.1-0.4,0.2c-0.2,0.1-0.5,0.3-0.7,0.4l0,0l0,0c-0.1,0.1-0.2,0.1-0.3,0.2c-0.1,0.1-0.3,0.2-0.4,0.3
		c-0.8,0.6-1.5,1.3-2.2,2.2l0,0c-0.3,0.4-0.6,0.8-0.8,1.3l0,0c0,0,0,0,0,0c-0.1-0.3-0.2-0.5-0.3-0.8c0,0,0-0.1,0-0.1
		c-0.1-0.2-0.1-0.4-0.2-0.6c-0.1-0.2-0.2-0.4-0.2-0.6c-0.1-0.2-0.2-0.4-0.3-0.7c-0.1-0.1-0.1-0.3-0.2-0.4c-0.1-0.3-0.3-0.5-0.4-0.8
		c-0.3-0.6-0.6-1.1-1-1.6c-0.1-0.2-0.3-0.4-0.4-0.6l0,0c0,0,0.1-0.1,0.1-0.1c0.1-0.1,0.3-0.3,0.4-0.4c0.1-0.1,0.2-0.2,0.3-0.3
		c0.6-0.6,1.2-1.1,1.8-1.5l0,0c0.3-0.2,0.7-0.5,1-0.7l0,0c0.3-0.2,0.7-0.4,1.1-0.6l0,0c0.1-0.1,0.3-0.1,0.4-0.2
		c0.2-0.1,0.4-0.2,0.7-0.3l0,0c0.1,0.1,0.2,0.2,0.2,0.3c0.1,0.2,0.3,0.3,0.4,0.5c0,0.1,0.1,0.1,0.1,0.2c0.7,1.1,1.4,2.2,1.9,3.4
		c0.1,0.3,0.3,0.5,0.4,0.8C55.5,19,55.5,19.1,55.5,19.1z M41.9,30.4L41.9,30.4c0-0.1,0-0.2,0-0.3v-0.2c0-0.1,0-0.1,0-0.2
		c0,0,0-0.1,0-0.1v-0.1c0,0,0,0,0-0.1c0,0,0,0,0-0.1v0c0,0,0-0.1,0-0.1c0-0.3,0-0.6,0.1-0.9c0-0.2,0-0.3,0.1-0.5
		c0-0.3,0.1-0.6,0.1-0.9c0-0.2,0.1-0.3,0.1-0.5l0.1-0.5v0c0-0.1,0-0.2,0.1-0.3c0.3-1.1,0.7-2.1,1.1-3.2c0.1-0.3,0.2-0.5,0.4-0.7
		c0.1-0.2,0.2-0.3,0.3-0.5c0.1-0.1,0.1-0.3,0.2-0.4c0.2-0.3,0.4-0.6,0.6-0.9v0v0c0.2,0.3,0.4,0.6,0.6,0.9c0.1,0.1,0.1,0.2,0.2,0.4
		c0.1,0.2,0.2,0.3,0.3,0.5c0.1,0.2,0.3,0.5,0.4,0.7c0.5,1,0.9,2.1,1.1,3.2c0,0.1,0,0.2,0.1,0.3v0l0.1,0.5c0,0.2,0.1,0.3,0.1,0.5
		c0.1,0.3,0.1,0.6,0.1,0.9c0,0.2,0,0.3,0.1,0.5c0,0.3,0.1,0.6,0.1,0.9c0,0,0,0.1,0,0.1v0c0,0,0,0,0,0.1c0,0,0,0,0,0.1v0.1
		c0,0,0,0.1,0,0.1v0.1c0,0,0,0.1,0,0.1c0,0.1,0,0.1,0,0.2c0,0.1,0,0.2,0,0.3v0c0,0.1,0,0.1,0,0.2v19.8L45,53.5l-3.1-3.1V30.6
		C41.9,30.5,41.9,30.5,41.9,30.4z M34.6,18.9c0.1-0.3,0.3-0.5,0.4-0.8c0.6-1.2,1.2-2.3,1.9-3.4c0-0.1,0.1-0.1,0.1-0.2
		c0.1-0.2,0.2-0.3,0.4-0.5c0.1-0.1,0.1-0.2,0.2-0.3l0,0c0.2,0.1,0.5,0.2,0.7,0.3c0.1,0.1,0.3,0.1,0.4,0.2l0,0
		c0.4,0.2,0.7,0.4,1.1,0.6l0,0c0.3,0.2,0.7,0.4,1,0.7l0,0c0.6,0.5,1.2,1,1.8,1.5c0.1,0.1,0.2,0.2,0.3,0.3c0.1,0.1,0.3,0.3,0.4,0.4
		c0,0,0.1,0.1,0.1,0.1l0,0c-0.1,0.2-0.3,0.4-0.4,0.6c-0.4,0.5-0.7,1-1,1.6c-0.1,0.3-0.3,0.5-0.4,0.8c-0.1,0.1-0.1,0.3-0.2,0.4
		c-0.1,0.2-0.2,0.4-0.3,0.7c-0.1,0.2-0.2,0.4-0.2,0.6s-0.2,0.4-0.2,0.6c0,0,0,0.1,0,0.1c-0.1,0.3-0.2,0.5-0.3,0.8c0,0,0,0,0,0l0,0
		c-0.3-0.4-0.5-0.9-0.8-1.3l0,0c-0.6-0.8-1.3-1.5-2.2-2.2c-0.1-0.1-0.3-0.2-0.4-0.3c-0.1-0.1-0.2-0.2-0.3-0.2l0,0l0,0
		c-0.2-0.1-0.5-0.3-0.7-0.4c-0.1-0.1-0.3-0.1-0.4-0.2l-0.1-0.1c-0.1-0.1-0.3-0.1-0.4-0.2c-0.1-0.1-0.3-0.1-0.5-0.2l0,0
		C34.5,19.1,34.5,19,34.6,18.9L34.6,18.9z M40.3,61.6l4.7-4.7l0,0l4.7,4.7l0,0L45,66.3L40.3,61.6L40.3,61.6z M51.4,59.9l-4.7-4.7
		l0,0l0.2-0.2l0.7-0.7l0.2-0.2l2.2-2.2l0.2-0.2c0.2-0.2,0.4-0.5,0.4-0.8V29.7c0.1-1.3,0.4-2.5,0.9-3.6l0,0c0.1-0.2,0.2-0.4,0.4-0.7
		c0.1-0.2,0.3-0.4,0.4-0.6c0.1-0.1,0.1-0.2,0.2-0.3c0.2-0.2,0.3-0.4,0.5-0.6c0.1-0.1,0.2-0.2,0.3-0.4c0.1-0.1,0.2-0.2,0.4-0.3
		c0.1-0.1,0.3-0.2,0.4-0.3c0.2-0.1,0.4-0.3,0.5-0.4c0.1,0,0.1-0.1,0.2-0.1c0.1-0.1,0.3-0.2,0.4-0.2l0.1-0.1c0.1-0.1,0.3-0.1,0.4-0.2
		c0.1-0.1,0.2-0.1,0.4-0.2l0,0c0.1-0.1,0.2-0.1,0.3-0.1l0,0h0c0,0,0,0,0,0c0.1,0.3,0.2,0.6,0.3,0.9c0,0.1,0,0.1,0.1,0.2l0,0v0
		c0,0.1,0.1,0.2,0.1,0.3c0,0.1,0,0.1,0,0.2c0.1,0.2,0.1,0.4,0.2,0.6c0,0.1,0.1,0.2,0.1,0.4c0,0.1,0,0.2,0,0.2c0,0.2,0.1,0.4,0.1,0.6
		c0,0.1,0,0.2,0.1,0.4c0,0.1,0,0.2,0,0.3c0,0.2,0.1,0.3,0.1,0.5c0,0.1,0,0.2,0,0.3c0,0.1,0,0.3,0,0.4v0.1c0,0.1,0,0.3,0,0.4
		c0,0.1,0,0.2,0,0.3l0,0.5l0,0.5v0c0,0,0,0.1,0,0.1c0,0.2,0,0.3,0,0.5v0.1c0,0.2,0,0.4,0,0.5c0,0.1,0,0.2,0,0.4v23.5l-0.6,0.6
		L51.4,59.9z M2.4,28.3c0.1-1,0.2-2.1,0.4-3.1c0,0,0-0.1,0-0.1C2.9,24.7,3,24.4,3,24.1l0-0.2c0.1-0.3,0.1-0.6,0.2-0.9l0-0.1
		c0.3-1,0.6-2,1-2.9c0.1-0.2,0.1-0.3,0.2-0.5c0.1-0.2,0.2-0.4,0.3-0.6l0,0c0.3-0.7,0.7-1.4,1.1-2.1c0.1-0.1,0.1-0.2,0.2-0.3
		c0.1-0.1,0.1-0.3,0.2-0.4c0.1-0.1,0.1-0.2,0.2-0.3C7,14.9,7.6,14,8.2,13.2c0,0,0,0,0,0c0.6-0.8,1.3-1.6,2-2.3l0.2-0.2
		c0.3-0.3,0.6-0.6,0.9-0.9c0.1-0.1,0.1-0.1,0.2-0.2c0.4-0.3,0.8-0.7,1.1-1l0.1-0.1c0.3-0.3,0.7-0.6,1.1-0.8c0.1-0.1,0.2-0.1,0.3-0.2
		c0.3-0.2,0.7-0.5,1-0.7l0.3-0.2c0.1,0,0.1-0.1,0.2-0.1c0.2-0.1,0.4-0.2,0.6-0.3c0.2-0.1,0.5-0.3,0.7-0.4c0.1-0.1,0.2-0.1,0.3-0.2
		l0.2-0.1c0.5-0.3,1-0.5,1.5-0.7c0.4-0.2,0.8-0.4,1.2-0.5l0,0c0.4-0.1,0.8-0.3,1.1-0.4c0.1,0,0.1,0,0.2-0.1c0.3-0.1,0.7-0.2,1-0.3
		c0.1,0,0.2-0.1,0.3-0.1c0.3-0.1,0.6-0.2,0.9-0.2c0.1,0,0.3-0.1,0.4-0.1C24.2,3,24.5,3,24.8,2.9c0.2,0,0.3-0.1,0.5-0.1
		c0.2,0,0.4-0.1,0.7-0.1s0.4-0.1,0.6-0.1l0.5,0c0.7-0.1,1.4-0.1,2.1-0.2c0.4,0,0.9,0,1.3,0c0.3,0,0.5,0,0.8,0c0.3,0,0.6,0,0.9,0
		c0.2,0,0.5,0,0.7,0.1c0.3,0,0.6,0.1,0.9,0.1c0.2,0,0.4,0.1,0.6,0.1c0.3,0.1,0.7,0.1,1,0.2c0.2,0,0.3,0.1,0.5,0.1
		c0.4,0.1,0.7,0.2,1.1,0.3c0.1,0,0.2,0.1,0.3,0.1c0.4,0.1,0.8,0.2,1.2,0.4l0.2,0.1c1,0.3,1.9,0.7,2.8,1.1l0,0c0.3,0.2,0.7,0.3,1,0.5
		c0.1,0,0.2,0.1,0.2,0.1h0l0,0C42.3,5.7,42,6,41.6,6.2h0c-0.8,0.6-1.6,1.3-2.4,2L39,8.5c-0.1,0.1-0.2,0.2-0.4,0.3
		C38.4,9,38.2,9.2,38,9.4c-0.1,0.1-0.2,0.2-0.2,0.3l-0.2,0.2h0c-0.3,0.3-0.6,0.6-0.8,1h0l0,0c-0.4-0.1-0.8-0.3-1.2-0.4
		c-2.1-0.6-4.2-0.8-6.4-0.7l-0.4,0h0c0,0,0,0-0.1,0c-0.4,0-0.7,0.1-1,0.1c-0.1,0-0.1,0-0.2,0c-0.3,0-0.7,0.1-1,0.1
		c-0.1,0-0.1,0-0.2,0c-0.3,0.1-0.7,0.1-1,0.2c-0.1,0-0.3,0.1-0.4,0.1c-0.2,0-0.4,0.1-0.6,0.2c-2.4,0.7-4.6,1.8-6.6,3.4
		C15.9,15.3,14.2,17,13,19l0,0c-0.1,0.2-0.2,0.3-0.3,0.5c-0.1,0.2-0.2,0.3-0.3,0.5l0,0c-0.4,0.6-0.7,1.2-1,1.9
		c0,0.1-0.1,0.2-0.1,0.2l0,0c-0.1,0.2-0.1,0.4-0.2,0.6l0,0c-0.1,0.2-0.1,0.4-0.2,0.6l0,0l0,0c-0.5,1.3-0.8,2.6-1,4
		c-0.1,0.4-0.1,0.9-0.1,1.3v0c0,0.3,0,0.6,0,0.9c0,0.1,0,0.1,0,0.2c0,0.1,0,0.2,0,0.3v0.1c0,0.7,0,1.4,0.1,2.1v0.1
		c0,0.3,0.1,0.6,0.1,0.9c0.1,0.7,0.2,1.3,0.4,2c0,0.1,0,0.1,0.1,0.2c0.1,0.2,0.1,0.5,0.2,0.7s0.1,0.4,0.2,0.7c0.8,2.5,2.2,4.9,4,6.9
		c0,0.1,0.1,0.1,0.1,0.2l-5.2,5.2l0,0c-0.4-0.4-0.7-0.8-1.1-1.3l-0.2-0.3c-0.3-0.4-0.6-0.8-0.9-1.2c-0.1-0.1-0.1-0.1-0.2-0.2
		c-0.7-1-1.3-2-1.8-3c-0.1-0.2-0.2-0.5-0.4-0.7c0-0.1-0.1-0.2-0.1-0.3c-0.1-0.2-0.2-0.4-0.3-0.7c-0.1-0.2-0.2-0.5-0.3-0.7
		c-0.1-0.2-0.1-0.4-0.2-0.6c-0.1-0.2-0.2-0.5-0.3-0.7c-0.1-0.3-0.2-0.6-0.3-0.9c0-0.1-0.1-0.3-0.1-0.4c-0.1-0.3-0.1-0.5-0.2-0.8
		c0-0.1-0.1-0.2-0.1-0.3c0-0.1,0-0.1-0.1-0.2c0-0.2-0.1-0.3-0.1-0.5c-0.1-0.6-0.2-1.1-0.3-1.7c0-0.1,0-0.1,0-0.2
		c0-0.3-0.1-0.6-0.1-0.9c0-0.1,0-0.3,0-0.4c0-0.3-0.1-0.6-0.1-0.9l0-0.3c0-0.4,0-0.7,0-1.1v-0.3c0-0.2,0-0.3,0-0.5
		C2.4,29.4,2.4,28.8,2.4,28.3z M20.5,23.2c-1.4,2-2.2,4.3-2.2,6.7v0c0,0,0,0.1,0,0.1c0,0.1,0,0.2,0,0.4c0,0.1,0,0.2,0,0.3l0,0v0
		c0,0.4,0.1,0.7,0.1,1.1l0,0.1c0.1,0.4,0.1,0.8,0.2,1.1v0l0,0c0,0,0,0.1,0,0.1c0,0.2,0.1,0.3,0.1,0.5c0,0.1,0,0.1,0.1,0.2
		c0,0.1,0.1,0.2,0.1,0.3l0,0.1c0,0.1,0.1,0.2,0.1,0.3c0.1,0.2,0.1,0.3,0.2,0.5c0.1,0.2,0.2,0.4,0.3,0.6c0,0.1,0.1,0.1,0.1,0.2
		c0.3,0.5,0.6,0.9,0.9,1.4l0.1,0.2l0,0L16.5,42c-1.4-1.6-2.6-3.5-3.3-5.6c0,0,0-0.1,0-0.1c-0.1-0.2-0.1-0.4-0.2-0.7
		c-0.1-0.2-0.1-0.4-0.2-0.7c0,0,0-0.1,0-0.1c0,0,0-0.1,0-0.2c-0.1-0.2-0.1-0.4-0.1-0.6c0-0.1-0.1-0.2-0.1-0.4l0,0c0,0,0-0.1,0-0.1
		c-0.1-0.3-0.1-0.6-0.2-1l0-0.1c0-0.4-0.1-0.8-0.1-1.1l0,0c0-0.2,0-0.4,0-0.6v0c0-0.2,0-0.3,0-0.5V30c0-0.3,0-0.6,0-1
		c0-0.1,0-0.3,0-0.4c0-0.2,0-0.4,0.1-0.6c0-0.2,0-0.4,0.1-0.6c0-0.2,0-0.3,0.1-0.5c0-0.3,0.1-0.5,0.2-0.8c0-0.1,0-0.2,0.1-0.2
		c0.1-0.3,0.2-0.7,0.3-1v0c1-3.2,2.9-6.1,5.4-8.3c2.2-1.9,4.8-3.3,7.7-4c0.1,0,0.3-0.1,0.4-0.1c0.3-0.1,0.5-0.1,0.8-0.1
		c0.2,0,0.4-0.1,0.6-0.1c0.2,0,0.4,0,0.7-0.1c0.2,0,0.4,0,0.6,0c0.1,0,0.1,0,0.2,0c0.3,0,0.6,0,0.8,0h0.4c0.4,0,0.7,0,1.1,0l0.1,0
		c0.4,0,0.8,0.1,1.2,0.1l0.1,0c0.4,0.1,0.8,0.1,1.2,0.2c0.4,0.1,0.7,0.2,1.1,0.3c0.1,0,0.1,0,0.2,0c-0.2,0.2-0.3,0.4-0.5,0.7
		c-0.1,0.1-0.2,0.3-0.2,0.4l0,0l0,0.1c-0.2,0.3-0.4,0.6-0.6,0.9c-0.3,0.4-0.5,0.9-0.7,1.3l-0.1,0.2c-0.1,0.2-0.2,0.5-0.3,0.7
		c-0.1,0.2-0.2,0.5-0.3,0.7c-0.1,0.2-0.2,0.5-0.3,0.7l0,0l0,0c-0.4-0.1-0.8-0.1-1.2-0.1l0,0c-0.3,0-0.5,0-0.8,0
		c-3.1,0-6.1,1.2-8.3,3.4C21.3,22.2,20.9,22.7,20.5,23.2L20.5,23.2z M69,37.5l0.1-0.2c0.3-0.4,0.7-0.9,0.9-1.4
		c0-0.1,0.1-0.1,0.1-0.2c0.1-0.2,0.2-0.4,0.3-0.6c0.1-0.2,0.1-0.3,0.2-0.5c0-0.1,0.1-0.2,0.1-0.3l0-0.1c0-0.1,0.1-0.2,0.1-0.3
		c0-0.1,0-0.1,0.1-0.2c0-0.2,0.1-0.3,0.1-0.5c0,0,0-0.1,0-0.1l0,0v0c0.1-0.4,0.2-0.7,0.2-1.1l0-0.1c0.1-0.4,0.1-0.7,0.1-1.1v0l0,0
		c0-0.1,0-0.2,0-0.3s0-0.2,0-0.4v-0.2c0-1.1-0.2-2.2-0.5-3.3c-0.1-0.4-0.3-0.9-0.5-1.3c-0.1-0.3-0.2-0.5-0.4-0.8
		c-2.1-3.8-6-6.2-10.4-6.2c-0.3,0-0.5,0-0.8,0l0,0c-0.4,0-0.8,0.1-1.2,0.1l0,0l0,0c-0.1-0.3-0.2-0.5-0.3-0.7
		c-0.1-0.2-0.2-0.5-0.3-0.7c-0.1-0.2-0.2-0.5-0.3-0.7l-0.1-0.2c-0.2-0.4-0.5-0.9-0.7-1.3c-0.2-0.3-0.4-0.6-0.6-0.9l0-0.1l0,0
		c-0.1-0.1-0.2-0.3-0.2-0.4c-0.1-0.2-0.3-0.4-0.5-0.7c0.1,0,0.1,0,0.2,0c0.4-0.1,0.7-0.2,1.1-0.3c0.4-0.1,0.8-0.2,1.2-0.2l0.1,0
		c0.4-0.1,0.8-0.1,1.2-0.1l0.1,0c0.4,0,0.7,0,1.1,0H60c0.3,0,0.6,0,0.8,0c0.1,0,0.1,0,0.2,0c0.2,0,0.4,0,0.6,0c0.2,0,0.4,0,0.7,0.1
		c0.2,0,0.4,0.1,0.6,0.1c0.3,0,0.5,0.1,0.8,0.1c0.1,0,0.3,0.1,0.4,0.1c6.2,1.5,11.2,6.2,13.1,12.3v0c0,0.1,0,0.1,0,0.2
		c0.1,0.3,0.2,0.6,0.2,0.9c0,0.1,0,0.2,0.1,0.2c0.1,0.3,0.1,0.5,0.2,0.8c0,0.2,0.1,0.3,0.1,0.5c0,0.2,0.1,0.4,0.1,0.6
		c0,0.2,0.1,0.4,0.1,0.6c0,0.1,0,0.3,0,0.4c0,0.3,0,0.6,0,1v0.2c0,0.2,0,0.3,0,0.5v0c0,0.2,0,0.4,0,0.6l0,0c0,0.4-0.1,0.8-0.1,1.1
		l0,0.1c0,0.3-0.1,0.6-0.2,1c0,0,0,0.1,0,0.1l0,0c0,0.1-0.1,0.2-0.1,0.4c0,0.2-0.1,0.4-0.1,0.6c0,0.1,0,0.1,0,0.2c0,0.1,0,0.1,0,0.1
		c-0.1,0.2-0.1,0.4-0.2,0.7c-0.1,0.2-0.1,0.4-0.2,0.7c0,0,0,0.1,0,0.1c-0.8,2.1-1.9,4-3.3,5.6L69,37.5L69,37.5z"/>
</g>
<g id="Layer_2" class="st3">
</g>
</svg>
