<svg id="Layer_1" data-name="Layer 1" xmlns="http://www.w3.org/2000/svg" viewBox="0 0 65.01 50"><title>ibex-logo-white</title><path id="Path_206" data-name="Path 206" d="M65,21.44v-.23c0-.29,0-.58,0-.87s0-.56-.07-.84q0-.13,0-.3c0-.1,0-.2,0-.31V18.8c0-.24-.07-.48-.12-.72a1.52,1.52,0,0,0,0-.21c0-.26-.1-.53-.16-.8l0-.11c-.06-.3-.14-.6-.22-.89,0-.1-.05-.19-.08-.29s-.11-.37-.17-.56-.1-.31-.16-.47l-.12-.35-.21-.55a.88.88,0,0,1-.05-.15l-.06-.13-.21-.5-.08-.16,0-.08A22,22,0,0,0,54.2,3l-.32-.19h0l-.15-.08c-.5-.28-1-.54-1.54-.78l-.32-.15-.06,0-.08,0L51,1.45H51a21.54,21.54,0,0,0-3.5-1l-.07,0c-.3,0-.6-.11-.9-.15l-.3,0-.7-.08-.43,0-.46,0L44,0c-.38,0-.75,0-1.11,0L42.2,0l-.52,0h-.21a2.58,2.58,0,0,0-.29,0l-.53.05-.24,0c-.36,0-.72.1-1.07.17l-.2,0L38.8.47h0l-.61.14-.08,0L38,.66l-.4.11L37,.94,36.66,1l-.55.19h0l-.77.29L35,1.65c-.26.1-.51.22-.76.33l-.33.15c-.16.09-.33.16-.5.25h0c-.3.15-.6.31-.89.48q-.45-.25-.9-.48h0l-.5-.25L30.8,2c-.25-.11-.5-.23-.75-.33l-.35-.14-.77-.29h0L28.37,1,28.06.94,27.47.77l-.4-.11-.13,0-.08,0L26.25.47h0L25.89.41l-.2,0C25.33.3,25,.25,24.61.2l-.24,0-.53,0-.3,0-.21,0-.52,0-.68,0c-.37,0-.74,0-1.11,0l-.6,0L20,.07l-.43,0c-.23,0-.47,0-.69.08l-.3,0-.91.15-.06,0a22.36,22.36,0,0,0-3.51,1h0l0,0a5.72,5.72,0,0,0-.68.28l-.09,0-.05,0-.32.15-.4.19c-.39.18-.77.38-1.14.59l-.15.07,0,0a22.21,22.21,0,0,0-9.2,10l0,.07-.08.17-.21.5s0,.09-.05.13l-.06.15c-.07.18-.14.37-.2.55s-.09.24-.13.35-.11.31-.16.47-.11.37-.16.56l-.09.28c-.08.3-.16.6-.22.9l0,.11c0,.26-.11.53-.16.8l0,.21c0,.24-.08.48-.11.71v.09c0,.1,0,.21,0,.31s0,.2,0,.3c0,.28,0,.56-.07.84s0,.58,0,.87V22l0,.55L0,23c0,.2,0,.4,0,.6s0,.24,0,.36a2.45,2.45,0,0,1,0,.27v.12a2.56,2.56,0,0,1,.05.27c0,.15,0,.31.07.46s.06.4.1.6.07.35.1.52.07.34.11.51.12.48.19.72,0,.2.08.3c.11.38.23.76.36,1.13,0,.13.09.26.13.39a2.6,2.6,0,0,0,.1.25s0,.07,0,.11.11.25.16.38l.15.38.07.15c.06.11.1.23.16.35s.17.36.26.53l.17.34c.1.17.19.35.28.52s.13.23.19.33.2.34.31.51.13.22.2.33l.32.48.22.33.34.45.24.34.31.37q.43.54.9,1h0v0L7,37.72H7l.08.07,4.52-4.52.34-.34,5.71-5.71-.11-.11-.67-.67-.07-.07c-.12-.13-.23-.26-.34-.4h0a7.24,7.24,0,0,1-.83-1.33q-.09-.2-.18-.42c-.05-.14-.1-.27-.14-.42h0A6.17,6.17,0,0,1,15,22.58a.13.13,0,0,1,0-.06,3,3,0,0,1,0-.31,2.45,2.45,0,0,1,0-.27c0-.09,0-.18,0-.27v-.1a1.51,1.51,0,0,1,0-.3,0,0,0,0,1,0,0,2.85,2.85,0,0,1,0-.41v0a2.79,2.79,0,0,1,.07-.4,2.23,2.23,0,0,1,.1-.43,4.29,4.29,0,0,1,.3-.85v0c.07-.15.14-.3.22-.45a1.86,1.86,0,0,0,.1-.2c.09-.15.19-.31.29-.45h0a4.15,4.15,0,0,1,.24-.34l0-.05a2.55,2.55,0,0,1,.26-.3,2.26,2.26,0,0,1,.25-.28L17,17a2,2,0,0,1,.26-.25l.05-.05a2.43,2.43,0,0,1,.25-.2l.11-.09.31-.22a2.92,2.92,0,0,1,.37-.24l.34-.19a2.75,2.75,0,0,1,.3-.14l0,0,.32-.13,0,0a2.06,2.06,0,0,1,.35-.12l.37-.1.28-.07.28-.06.56-.07h.33c.14,0,.28,0,.41,0l.6,0h.07c-.09.28-.17.57-.24.85h0v0c-.09.28-.16.57-.23.85,0,0,0,0,0,0l-.07.35a2,2,0,0,0-.05.24c0,.11,0,.22-.07.33a21.18,21.18,0,0,0-.38,3.55V39a.22.22,0,0,0,0,.08.81.81,0,0,0,.24.53L31.9,49.75a.83.83,0,0,0,.61.26h0a.87.87,0,0,0,.6-.26l10.1-10.1a.78.78,0,0,0,.25-.53.22.22,0,0,0,0-.08V21.36a21.56,21.56,0,0,0-.38-3.68c0-.11-.05-.22-.07-.33a2,2,0,0,0-.05-.24l-.07-.34a.08.08,0,0,1,0,0c-.07-.29-.15-.58-.23-.86h0c-.07-.29-.15-.58-.24-.86h.07l.6,0h.74a5.39,5.39,0,0,1,.56.08l.28,0,.28.07.37.11a1.35,1.35,0,0,1,.34.11l.05,0,.32.13,0,0a2.64,2.64,0,0,1,.29.15l.34.19a2.06,2.06,0,0,1,.37.23l.31.22.11.09a2.43,2.43,0,0,1,.25.2l0,.05.27.25.06.06.26.28c.08.1.17.2.24.3l0,.05.24.34h0a3.4,3.4,0,0,1,.28.45,5.67,5.67,0,0,1,.33.65v0c.07.17.13.34.19.52a1.91,1.91,0,0,1,.1.34,2.6,2.6,0,0,1,.1.4s0,0,0,0,.05.27.07.4v0c0,.14,0,.27,0,.41v.44a2.26,2.26,0,0,1,0,.26,2.53,2.53,0,0,1,0,.28c0,.1,0,.21,0,.31a.13.13,0,0,0,0,.06,6.5,6.5,0,0,1-.27,1.22h0a3.52,3.52,0,0,1-.15.42,3.79,3.79,0,0,1-.18.42A6.57,6.57,0,0,1,48.58,26h0a4.13,4.13,0,0,1-.34.39l-.06.07-.67.67-.12.12,6.16,6.15L58,37.79l.07-.06,1.22-1.22,0,0h0c.31-.34.62-.69.9-1.05l.31-.37.25-.33c.11-.16.23-.3.34-.46l.22-.33.32-.48c.07-.11.14-.22.2-.33s.21-.33.31-.51l.18-.33.29-.52c0-.11.12-.22.17-.34s.17-.35.26-.53a3.73,3.73,0,0,1,.16-.35l.06-.14c.06-.13.1-.26.16-.39l.15-.38,0-.11a1.84,1.84,0,0,0,.09-.25l.14-.38c.13-.38.25-.76.36-1.13,0-.1,0-.2.08-.3s.13-.48.19-.72,0-.25.08-.38l0-.14c0-.17.07-.35.1-.52s.07-.4.1-.6.05-.31.07-.46,0-.18,0-.27l0-.38c0-.13,0-.25,0-.37s0-.4,0-.6l0-.45v-1A1.28,1.28,0,0,0,65,21.44ZM34.19,3.91h0l.17-.08.71-.34h0c.67-.3,1.35-.56,2-.79l.12,0c.3-.1.6-.17.89-.26l.24-.06.8-.18.36-.08L40.23,2l.45-.06.65-.08.52,0c.2,0,.42,0,.62,0l.56,0H44a14.71,14.71,0,0,1,1.49.11l.33,0,.46.07.48.08.38.07.56.12.3.08.64.16.23.07c.24.07.48.14.71.23l.15,0,.82.31h0l.87.37c.37.16.72.34,1.07.52l.37.2.5.29.41.24.12.07.18.12.16.11.58.39.2.15q.39.28.78.6l.05,0c.28.23.56.46.82.71l.12.11.67.64.13.14a21,21,0,0,1,1.47,1.66l0,0a20.26,20.26,0,0,1,1.3,1.88l.15.25.16.27c0,.07.08.15.13.22a17.19,17.19,0,0,1,.77,1.55h0l.19.45c0,.12.09.23.14.34a17.68,17.68,0,0,1,.66,2l0,.12,0,.08c0,.22.11.43.16.65l0,.12c.06.22.1.44.14.65a.36.36,0,0,0,0,.11,21.06,21.06,0,0,1,.27,2.24c0,.4,0,.8,0,1.19v.57c0,.25,0,.51,0,.77v.18c0,.23,0,.45-.06.67l0,.3-.09.63a.68.68,0,0,1,0,.14c-.06.41-.14.82-.23,1.22l-.09.37c0,.12-.06.27-.1.4l-.15.56-.09.28c-.07.22-.14.44-.22.66l-.06.16-.12.34c0,.12-.1.26-.16.4l-.21.5c-.07.17-.14.33-.22.49l-.09.19-.25.5a21,21,0,0,1-1.31,2.18l-.12.16c-.2.28-.41.57-.63.84l-.16.21c-.26.31-.52.63-.8.92h0l-2.63-2.63-1.08-1.08a1.47,1.47,0,0,1,.1-.13,14.42,14.42,0,0,0,2.86-5c.06-.17.11-.33.15-.49s.1-.33.14-.5,0-.11,0-.16c.11-.47.2-.94.28-1.42,0-.2,0-.41.07-.62V23.2A14.72,14.72,0,0,0,58,21.71v-.45c0-.21,0-.42,0-.63v0c0-.31-.06-.62-.1-.92a15.73,15.73,0,0,0-.43-2c-.08-.29-.17-.56-.27-.84h0l-.15-.4h0c-.05-.14-.1-.27-.16-.4h0a1.42,1.42,0,0,0-.08-.18,14.54,14.54,0,0,0-.68-1.37h0l-.23-.36c-.07-.13-.15-.25-.22-.37h0a14.92,14.92,0,0,0-8.27-6.16L47,7.45l-.27-.07c-.24-.06-.49-.11-.73-.15l-.11,0c-.23,0-.46-.08-.7-.11l-.15,0c-.26,0-.5-.06-.76-.07h-.35a14.6,14.6,0,0,0-4.6.53c-.3.08-.6.18-.89.28h0c-.19-.23-.4-.46-.6-.68h0L37.71,7c-.06-.06-.11-.14-.18-.2l-.44-.46-.25-.24L36.69,6A20.19,20.19,0,0,0,35,4.49h0c-.26-.2-.53-.39-.79-.57ZM23.27,38.67V21.48c0-.13,0-.26,0-.39v0c0-.11,0-.22,0-.34v-.12l0-.39,0-.33c0-.06,0-.12,0-.19l0-.31v-.05c0-.09,0-.19,0-.27s0-.16,0-.24l.06-.37a1.43,1.43,0,0,1,0-.22c0-.08,0-.17,0-.26l.09-.4,0-.17.06-.26.12-.45,0-.13L24,16.3v0h0l.05-.15c.06-.21.13-.44.2-.65a0,0,0,0,1,0,0h0l.25.11h0l.27.13.27.15.08,0,.28.18.12.08.39.29.28.23.26.25c.09.08.17.18.25.26a5.45,5.45,0,0,1,.38.46c.06.07.1.14.15.21l.29.43c.09.15.18.32.26.48v0a6.92,6.92,0,0,1,.68,2.64V36.76a.86.86,0,0,0,.25.61l.15.15,1.59,1.59.16.16h0l.5.5.12.12h0l-3.4,3.4L23.7,39.11ZM28.41,8.35a5.25,5.25,0,0,1,.46-.49c.16-.16.3-.31.46-.45l.32-.32c.15-.15.31-.28.46-.42l.27-.23L30.9,6l.21-.16.6-.45.78-.53h0l.78.53.6.45.2.16.53.43.26.23c.16.14.31.27.46.42a3.34,3.34,0,0,1,.33.32c.16.14.31.3.46.45s.31.32.46.49.09.1.14.15h0l-.15.08-.5.26L35.81,9c-.14.08-.28.16-.41.25l-.16.1-.12.08-.25.16-.15.11-.21.15-.09.07-.06.05-.15.11c-.15.11-.3.24-.44.36s-.35.29-.51.44L33.1,11h0c-.08.08-.18.16-.26.25l-.12.13c-.08.07-.14.15-.21.22l-.21-.22a1.59,1.59,0,0,0-.13-.13,3.07,3.07,0,0,0-.26-.25h0l-.16-.16-.51-.44-.45-.36L30.62,10l-.06-.05-.09-.07-.22-.15-.15-.11-.24-.16-.12-.08-.16-.1L29.17,9l-.27-.16-.5-.26-.15-.08h0Zm11.72,5.47h0l-.34.14-.28.14-.1.05c-.1,0-.18.1-.27.14l-.53.32h0l-.23.17-.31.23a8.23,8.23,0,0,0-1.56,1.56v0a9,9,0,0,0-.61.91v0a0,0,0,0,0,0,0,5.05,5.05,0,0,0-.18-.55.19.19,0,0,0,0-.07c-.05-.15-.11-.31-.17-.46s-.12-.3-.18-.44-.14-.32-.21-.47-.1-.21-.16-.32-.2-.37-.29-.56a12.33,12.33,0,0,0-.72-1.15c-.1-.16-.21-.31-.31-.46h0a.38.38,0,0,1,.09-.09l.3-.32.23-.22a12.6,12.6,0,0,1,1.31-1.11l0,0c.24-.17.48-.34.72-.49h0a8.46,8.46,0,0,1,.77-.44h0l.29-.16.49-.24h0a1.43,1.43,0,0,1,.15.22c.09.13.19.25.27.38l.08.13a17.79,17.79,0,0,1,1.4,2.43c.1.2.19.39.28.59ZM30.25,22h0v-.86c0-.23,0-.46.05-.68s0-.23,0-.35.06-.45.11-.68,0-.23.07-.34l.08-.38h0a1.94,1.94,0,0,1,0-.2,12.45,12.45,0,0,1,.83-2.28,4.53,4.53,0,0,1,.27-.54,3,3,0,0,1,.19-.36c0-.09.1-.18.16-.27s.26-.41.4-.62h0c.14.2.27.41.4.62l.15.27c.07.11.13.23.2.36a4.53,4.53,0,0,1,.27.54,13.23,13.23,0,0,1,.83,2.28c0,.07,0,.14,0,.2h0l.08.38c0,.11.05.23.07.34s.08.45.11.68,0,.23,0,.35,0,.45,0,.68v.85h0V36.4l-2.24,2.25L30.25,36.4V22ZM25,13.63c.09-.2.18-.39.28-.58a19,19,0,0,1,1.39-2.44l.09-.13.26-.37a1.77,1.77,0,0,1,.16-.22h0l.49.24.29.15h0c.26.14.51.29.76.45h0c.25.15.49.32.73.48l0,0a12.6,12.6,0,0,1,1.31,1.11l.23.22c.11.1.2.21.3.32l.1.09h0l-.32.45a12.48,12.48,0,0,0-.72,1.16c-.1.18-.2.37-.29.56s-.1.21-.16.32-.15.31-.21.47a3.38,3.38,0,0,0-.18.44c-.05.14-.12.31-.17.46a.08.08,0,0,0,0,.07,5.05,5.05,0,0,0-.18.55,0,0,0,0,0,0,0v0a8,8,0,0,0-.61-.91v0A8.23,8.23,0,0,0,27,15l-.31-.23-.23-.17h0c-.16-.11-.34-.22-.52-.32l-.27-.15-.1,0L25.21,14l-.33-.14h0l.09-.19ZM29.1,44.5l3.4-3.4h0l3.4,3.4h0l-3.4,3.4-3.4-3.4Zm8-1.22-3.4-3.4h0l.11-.11.5-.49.17-.17,1.59-1.59.15-.15a.86.86,0,0,0,.25-.61V21.42a6.92,6.92,0,0,1,.68-2.64v0c.08-.16.16-.32.26-.48s.18-.29.28-.43l.15-.21c.12-.16.25-.31.38-.46l.25-.26.26-.25.28-.23.4-.29.12-.09.28-.17.07,0,.28-.15.26-.13,0,0,.24-.1h0v0c.07.21.13.44.2.65,0,.05,0,.1,0,.15h0v0a1.82,1.82,0,0,0,.07.25l0,.13c0,.15.08.29.11.45l.06.26a.85.85,0,0,0,0,.17c0,.14,0,.27.08.4s0,.17,0,.26l0,.22.06.37a2,2,0,0,0,0,.24c0,.07,0,.18,0,.27v.05l0,.31a1.37,1.37,0,0,1,0,.19l0,.33,0,.39v.12c0,.12,0,.23,0,.34v.05c0,.13,0,.26,0,.39V38.67l-.44.44ZM1.77,20.42a18.78,18.78,0,0,1,.28-2.24s0-.07,0-.1c0-.22.08-.44.13-.65l0-.13c0-.21.1-.43.16-.64l0-.09a15.49,15.49,0,0,1,.69-2.09c0-.12.1-.23.13-.34s.13-.31.2-.46h0c.24-.53.5-1,.78-1.55l.12-.22c.06-.09.1-.18.16-.27l.15-.25A20.26,20.26,0,0,1,6,9.51l0,0c.46-.58.94-1.13,1.45-1.66l.14-.13c.21-.22.44-.43.67-.64a.57.57,0,0,1,.11-.11c.27-.25.55-.48.83-.71l.05,0,.77-.6.2-.15.74-.5.18-.12.12-.07c.14-.08.27-.17.41-.24l.5-.29.21-.12L12.51,4c.35-.19.7-.36,1.07-.52l.87-.38h0c.28-.11.55-.22.83-.31l.14-.05.72-.22.22-.07L17,2.3l.3-.07.57-.12L18.27,2,18.74,2l.47-.07.33,0c.49-.05,1-.1,1.49-.11H22l.56,0,.62,0,.52.05.66.07.45.07c.24,0,.48.07.72.12l.35.07.8.18.24.07c.3.08.6.16.89.26l.13,0a19.51,19.51,0,0,1,2,.79h0l.7.33.18.09h0c-.27.18-.53.37-.79.57h0A20,20,0,0,0,28.33,6l-.14.14-.26.25-.44.45-.18.2-.11.12h0q-.3.33-.6.69h0c-.3-.11-.59-.2-.89-.29A14.6,14.6,0,0,0,21.1,7h-.35L20,7.09l-.15,0-.7.11-.11,0-.73.16L18,7.47l-.43.12A14.39,14.39,0,0,0,12.82,10a14.9,14.9,0,0,0-3.46,3.71h0c-.07.12-.15.24-.22.37s-.16.24-.23.36h0a14.54,14.54,0,0,0-.68,1.37,1.42,1.42,0,0,0-.08.18h0c-.06.13-.11.26-.16.4H8c-.06.13-.1.27-.15.4h0a14.24,14.24,0,0,0-.7,2.88c0,.31-.08.61-.1.92v0c0,.22,0,.42,0,.63v.46a12.23,12.23,0,0,0,.08,1.48v0c0,.21,0,.42.07.62a13.7,13.7,0,0,0,.28,1.42l0,.16c0,.17.09.34.14.5l.15.49a14.6,14.6,0,0,0,2.87,5,.64.64,0,0,0,.1.13L7,35.26H7c-.28-.3-.54-.6-.8-.92L6,34.12c-.22-.27-.43-.56-.63-.84l-.12-.16A21,21,0,0,1,4,30.94l-.25-.5-.09-.19c-.08-.16-.15-.33-.22-.49s-.15-.33-.21-.5S3.1,29,3,28.86l-.18-.5c-.08-.22-.15-.44-.22-.66l-.09-.27-.15-.57a1.05,1.05,0,0,1-.06-.24.83.83,0,0,1,0-.15l-.09-.38c-.09-.4-.17-.81-.23-1.22,0-.05,0-.09,0-.14,0-.21-.06-.42-.09-.63l0-.3c0-.22,0-.44-.06-.66V23c0-.26,0-.52,0-.77v-.57A11.89,11.89,0,0,1,1.77,20.42Zm13.06-3.67a8.37,8.37,0,0,0-1.6,4.87v0a.17.17,0,0,0,0,.1V22a1.55,1.55,0,0,0,0,.22h0v0c0,.27,0,.52.08.78l0,.09a7.78,7.78,0,0,0,.17.81h0l0,.09c0,.11.06.22.1.34a.5.5,0,0,1,0,.13l.09.24v.05l.11.23.15.37.24.46c0,.05.05.1.08.14A7.65,7.65,0,0,0,15,27l.1.13h0l-3.2,3.2a12.9,12.9,0,0,1-2.42-4l0-.09c-.06-.15-.11-.31-.16-.47s-.1-.32-.14-.48,0-.07,0-.1l0-.13c0-.14-.07-.29-.11-.44s0-.17,0-.27H9a.29.29,0,0,0,0-.09c0-.23-.08-.46-.11-.69l0-.1c0-.28-.06-.55-.08-.83h0c0-.14,0-.28,0-.42v-.52c0-.23,0-.46,0-.68a2.64,2.64,0,0,1,0-.29c0-.15,0-.3.05-.45l.06-.44c0-.11,0-.22.05-.33L9,18.87a1.16,1.16,0,0,1,0-.18c.06-.24.13-.5.2-.74v0a13.22,13.22,0,0,1,3.93-6,13,13,0,0,1,5.56-2.86c.1,0,.19-.05.29-.06l.56-.11.4-.06.49-.05.41,0h1c.26,0,.53,0,.79,0h.07c.28,0,.57.05.85.09h.05c.29,0,.59.1.88.16l.78.2.14,0-.34.48L25,10h0l0,0c-.15.22-.29.45-.42.67s-.36.62-.53.93l-.06.11c-.08.17-.16.34-.25.51s-.16.36-.25.53l-.23.54h0v0a5.27,5.27,0,0,0-.89-.1v0l-.59,0a8.46,8.46,0,0,0-6,2.49,8.79,8.79,0,0,0-.88,1Zm35,10.37L50,27a8.38,8.38,0,0,0,.68-1,.91.91,0,0,0,.07-.14l.25-.47c.06-.12.1-.24.16-.36l.1-.24v0a2.41,2.41,0,0,0,.08-.25.5.5,0,0,0,0-.13c0-.11.07-.22.1-.33l0-.09h0a7.78,7.78,0,0,0,.17-.81V23q.06-.39.09-.78v0h0V22a2.09,2.09,0,0,0,0-.26v-.17a8.2,8.2,0,0,0-.39-2.4,6.31,6.31,0,0,0-.35-.91q-.12-.29-.27-.57a8.54,8.54,0,0,0-7.5-4.47,5.82,5.82,0,0,0-.59,0h0c-.3,0-.59.05-.89.1h0c-.07-.18-.15-.36-.23-.54s-.16-.35-.25-.53l-.25-.51L41,11.65c-.17-.31-.34-.63-.52-.93l-.42-.67,0,0h0l-.18-.28-.33-.48.13,0,.78-.2c.3-.06.59-.12.89-.16h0c.29,0,.57-.07.86-.09h.06l.8,0h.26l.6,0h.14l.41,0,.49.05.4.06L46,9a1.36,1.36,0,0,1,.29.06,13.18,13.18,0,0,1,9.49,8.88v0a.36.36,0,0,1,0,.11c.06.21.11.42.17.63,0,.06,0,.12,0,.18l.12.58c0,.11,0,.22,0,.33l.06.44a3.27,3.27,0,0,1,0,.45,2.64,2.64,0,0,1,0,.28c0,.23,0,.46,0,.69v.5h0c0,.15,0,.29,0,.43h0c0,.28-.05.55-.09.83v.1q0,.34-.12.69s0,.06,0,.09h0l-.06.27c0,.14-.07.29-.11.44l0,.12a.81.81,0,0,1,0,.11c0,.16-.09.32-.14.48s-.1.32-.16.47a.41.41,0,0,0,0,.08,13.22,13.22,0,0,1-2.42,4l-3.2-3.2Z" style="fill:#fff"/></svg>